<?xml version="1.0" encoding="UTF-8"?>
<svg id="Layer_2" data-name="Layer 2" xmlns="http://www.w3.org/2000/svg" width="334" height="290.6" viewBox="0 0 334 290.6">
  <defs>
    <style>
      .cls-1 {
        fill: #bcbfd3;
        stroke: #bcbfd3;
      }

      .cls-1, .cls-2 {
        stroke-linecap: round;
        stroke-linejoin: round;
        stroke-width: 30px;
      }

      .cls-3 {
        fill: #747f93;
      }

      .cls-2 {
        fill: #fff;
        stroke: #fff;
      }
    </style>
  </defs>
  <g id="Grouped">
    <g>
      <path class="cls-1" d="m298,196.2l-121-65.7v-15.6c21.9-5.2,36.8-25.6,34.9-48.3-1.9-22-19.9-39.8-41.9-41.5-22.6-1.7-42.7,13-47.9,35.1-.7,3,0,6.1,1.9,8.6,1.9,2.4,4.8,3.8,7.8,3.8h.9c4.6,0,8.7-3.2,9.8-7.8,2.8-11.6,13.5-19.4,25.5-18.7,12.7.8,22.8,11.4,23,24.2.2,12.2-8.8,22.8-20.8,24.6l-2.2.7c-7.2,2.4-12,9-12,16.6v18.8l-119.9,65.2h-.1c-13.2,8.4-21,22.6-21,38.2,0,22.8,18.5,41.3,41.3,41.3h221.5c22.8,0,41.3-18.5,41.3-41.3s-7.9-29.8-21-38.1Zm0,38.1c0,11.2-9.1,20.3-20.3,20.3H56.3c-11.2,0-20.3-9.1-20.3-20.3s4.2-15.9,11.2-20.3l119.9-64.3,119.9,64.3c7,4.4,11.2,12,11.2,20.3Z"/>
      <path class="cls-2" d="m298,186.2l-121-65.7v-15.6c21.9-5.2,36.8-25.6,34.9-48.3-1.9-22-19.9-39.8-41.9-41.5-22.6-1.7-42.7,13-47.9,35.1-.7,3,0,6.1,1.9,8.6,1.9,2.4,4.8,3.8,7.8,3.8h.9c4.6,0,8.7-3.2,9.8-7.8,2.8-11.6,13.5-19.4,25.5-18.7,12.7.8,22.8,11.4,23,24.2.2,12.2-8.8,22.8-20.8,24.6l-2.2.7c-7.2,2.4-12,9-12,16.6v18.8l-119.9,65.2h-.1c-13.2,8.4-21,22.6-21,38.2,0,22.8,18.5,41.3,41.3,41.3h221.5c22.8,0,41.3-18.5,41.3-41.3s-7.9-29.8-21-38.1Zm0,38.1c0,11.2-9.1,20.3-20.3,20.3H56.3c-11.2,0-20.3-9.1-20.3-20.3s4.2-15.9,11.2-20.3l119.9-64.3,119.9,64.3c7,4.4,11.2,12,11.2,20.3Z"/>
      <path class="cls-3" d="m298,186.2l-121-65.7v-15.6c21.9-5.2,36.8-25.6,34.9-48.3-1.9-22-19.9-39.8-41.9-41.5-22.6-1.7-42.7,13-47.9,35.1-.7,3,0,6.1,1.9,8.6,1.9,2.4,4.8,3.8,7.8,3.8h.9c4.6,0,8.7-3.2,9.8-7.8,2.8-11.6,13.5-19.4,25.5-18.7,12.7.8,22.8,11.4,23,24.2.2,12.2-8.8,22.8-20.8,24.6l-2.2.7c-7.2,2.4-12,9-12,16.6v18.8l-119.9,65.2h-.1c-13.2,8.4-21,22.6-21,38.2,0,22.8,18.5,41.3,41.3,41.3h221.5c22.8,0,41.3-18.5,41.3-41.3s-7.9-29.8-21-38.1Zm0,38.1c0,11.2-9.1,20.3-20.3,20.3H56.3c-11.2,0-20.3-9.1-20.3-20.3s4.2-15.9,11.2-20.3l119.9-64.3,119.9,64.3c7,4.4,11.2,12,11.2,20.3Z"/>
    </g>
  </g>
</svg>