<?xml version="1.0" encoding="UTF-8"?>
<svg id="Layer_2" data-name="Layer 2" xmlns="http://www.w3.org/2000/svg" width="330" height="334.6" viewBox="0 0 330 334.6">
  <defs>
    <style>
      .cls-1, .cls-2, .cls-3, .cls-4, .cls-5 {
        stroke-linecap: round;
      }

      .cls-1, .cls-3 {
        fill: #bcbfd3;
        stroke: #bcbfd3;
      }

      .cls-1, .cls-3, .cls-4, .cls-5 {
        stroke-linejoin: round;
        stroke-width: 30px;
      }

      .cls-6, .cls-4, .cls-5 {
        fill: #fff;
      }

      .cls-2 {
        fill: none;
        stroke: #50555f;
        stroke-miterlimit: 10;
        stroke-width: 13.9px;
      }

      .cls-7 {
        fill: #d769a8;
      }

      .cls-3, .cls-8, .cls-5 {
        opacity: .2;
      }

      .cls-8, .cls-9 {
        fill: #b1c5e6;
      }

      .cls-10 {
        fill: #fcb84b;
      }

      .cls-11 {
        fill: #747f93;
      }

      .cls-4, .cls-5 {
        stroke: #fff;
      }

      .cls-12 {
        fill: #50555f;
      }
    </style>
  </defs>
  <g id="Grouped">
    <g>
      <g>
        <g>
          <g>
            <line class="cls-1" x1="125.7" y1="72.9" x2="125.7" y2="202"/>
            <rect class="cls-1" x="118.8" y="72.9" width="13.9" height="129.1"/>
          </g>
          <path class="cls-1" d="m140.2,56.3s91.2,0,139.7,81.8"/>
          <path class="cls-1" d="m178.1,98.2h-104.7c-32.2,0-58.4,26.2-58.4,58.4v.3l9,104.8c.2,32,24.4,58,54,58h95.4c29.6,0,53.8-26,54-58l9-104.4v-.7c0-32.2-26.2-58.4-58.3-58.4Zm-4.6,204.1h-95.4c-20.2,0-36.6-18.4-36.6-41v-.3l-9-104.7c.2-22.4,18.6-40.6,41-40.6h104.7c22.4,0,40.8,18.2,41,40.6l-9,104.4v.7c0,22.6-16.4,41-36.6,41Z"/>
          <path class="cls-1" d="m199.1,158.3H52.3c-3.1,0-6,1.3-8,3.5-2.1,2.3-3.1,5.2-2.8,8.3l7.8,90.5v.6c0,18.3,12.9,33.2,28.8,33.2h95.4c15.9,0,28.8-14.9,28.8-33.2v-.8s7.8-90.3,7.8-90.3c.3-3.1-.7-6-2.8-8.3-2.1-2.3-4.9-3.5-8-3.5Z"/>
          <rect class="cls-1" x="89.3" y="25" width="72.7" height="63.9" rx="12" ry="12"/>
          <ellipse class="cls-1" cx="102.2" cy="56.9" rx="7.3" ry="10"/>
          <ellipse class="cls-1" cx="277.2" cy="156.8" rx="34.6" ry="59.9" transform="translate(-34.9 93.5) rotate(-18)"/>
        </g>
        <rect class="cls-3" x="28.1" y="110.8" width="191.5" height="200.7" rx="43.7" ry="43.7"/>
        <g>
          <ellipse class="cls-1" cx="61.1" cy="149.3" rx="25.8" ry="13.3" transform="translate(-100.2 149.9) rotate(-68)"/>
          <ellipse class="cls-1" cx="52.9" cy="184.3" rx="5.1" ry="6.1"/>
        </g>
      </g>
      <g>
        <g>
          <g>
            <line class="cls-4" x1="125.7" y1="62.9" x2="125.7" y2="192"/>
            <rect class="cls-4" x="118.8" y="62.9" width="13.9" height="129.1"/>
          </g>
          <path class="cls-4" d="m140.2,46.3s91.2,0,139.7,81.8"/>
          <path class="cls-4" d="m178.1,88.2h-104.7c-32.2,0-58.4,26.2-58.4,58.4v.3l9,104.8c.2,32,24.4,58,54,58h95.4c29.6,0,53.8-26,54-58l9-104.4v-.7c0-32.2-26.2-58.4-58.3-58.4Zm-4.6,204.1h-95.4c-20.2,0-36.6-18.4-36.6-41v-.3l-9-104.7c.2-22.4,18.6-40.6,41-40.6h104.7c22.4,0,40.8,18.2,41,40.6l-9,104.4v.7c0,22.6-16.4,41-36.6,41Z"/>
          <path class="cls-4" d="m199.1,148.3H52.3c-3.1,0-6,1.3-8,3.5-2.1,2.3-3.1,5.2-2.8,8.3l7.8,90.5v.6c0,18.3,12.9,33.2,28.8,33.2h95.4c15.9,0,28.8-14.9,28.8-33.2v-.8s7.8-90.3,7.8-90.3c.3-3.1-.7-6-2.8-8.3-2.1-2.3-4.9-3.5-8-3.5Z"/>
          <rect class="cls-4" x="89.3" y="15" width="72.7" height="63.9" rx="12" ry="12"/>
          <ellipse class="cls-4" cx="102.2" cy="46.9" rx="7.3" ry="10"/>
          <ellipse class="cls-4" cx="277.2" cy="146.7" rx="34.6" ry="59.9" transform="translate(-31.8 93) rotate(-18)"/>
        </g>
        <rect class="cls-5" x="28.1" y="100.8" width="191.5" height="200.7" rx="43.7" ry="43.7"/>
        <g>
          <ellipse class="cls-4" cx="61.1" cy="139.3" rx="25.8" ry="13.3" transform="translate(-91 143.6) rotate(-68)"/>
          <ellipse class="cls-4" cx="52.9" cy="174.3" rx="5.1" ry="6.1"/>
        </g>
      </g>
      <g>
        <g>
          <rect class="cls-12" x="118.8" y="62.9" width="13.9" height="129.1"/>
          <path class="cls-2" d="m140.2,46.3s91.2,0,139.7,81.8"/>
          <path class="cls-9" d="m178.1,88.2h-104.7c-32.2,0-58.4,26.2-58.4,58.4v.3l9,104.8c.2,32,24.4,58,54,58h95.4c29.6,0,53.8-26,54-58l9-104.4v-.7c0-32.2-26.2-58.4-58.3-58.4Zm-4.6,204.1h-95.4c-20.2,0-36.6-18.4-36.6-41v-.3l-9-104.7c.2-22.4,18.6-40.6,41-40.6h104.7c22.4,0,40.8,18.2,41,40.6l-9,104.4v.7c0,22.6-16.4,41-36.6,41Z"/>
          <path class="cls-7" d="m199.1,148.3H52.3c-3.1,0-6,1.3-8,3.5-2.1,2.3-3.1,5.2-2.8,8.3l7.8,90.5v.6c0,18.3,12.9,33.2,28.8,33.2h95.4c15.9,0,28.8-14.9,28.8-33.2v-.8s7.8-90.3,7.8-90.3c.3-3.1-.7-6-2.8-8.3-2.1-2.3-4.9-3.5-8-3.5Z"/>
          <rect class="cls-11" x="89.3" y="15" width="72.7" height="63.9" rx="12" ry="12"/>
          <ellipse class="cls-12" cx="102.2" cy="46.9" rx="7.3" ry="10"/>
          <ellipse class="cls-10" cx="277.2" cy="146.7" rx="34.6" ry="59.9" transform="translate(-31.8 93) rotate(-18)"/>
        </g>
        <rect class="cls-8" x="28.1" y="100.8" width="191.5" height="200.7" rx="43.7" ry="43.7"/>
        <g>
          <ellipse class="cls-6" cx="61.1" cy="139.3" rx="25.8" ry="13.3" transform="translate(-91 143.6) rotate(-68)"/>
          <ellipse class="cls-6" cx="52.9" cy="174.3" rx="5.1" ry="6.1"/>
        </g>
      </g>
    </g>
  </g>
</svg>