<?xml version="1.0" encoding="UTF-8"?>
<svg id="Layer_2" data-name="Layer 2" xmlns="http://www.w3.org/2000/svg" width="330" height="251.5" viewBox="0 0 330 251.5">
  <defs>
    <style>
      .cls-1 {
        fill: #bcbfd3;
        stroke: #bcbfd3;
      }

      .cls-1, .cls-2 {
        stroke-linecap: round;
        stroke-linejoin: round;
        stroke-width: 30px;
      }

      .cls-3 {
        fill: #fcb84b;
      }

      .cls-4 {
        fill: #5876ba;
      }

      .cls-2 {
        fill: #fff;
        stroke: #fff;
      }

      .cls-5 {
        fill: #50555f;
      }
    </style>
  </defs>
  <g id="Grouped">
    <g>
      <g>
        <path class="cls-1" d="m299.6,122l-4.6-3.2-3-34.7c0-20.8-16.9-45.7-37.7-45.7h-79.3v-2.4c0-6.1-4.9-11-11-11h-83.2c-6.1,0-11,4.9-11,11v2.4H29.2c-7.9,0-14.2,6.4-14.2,22.2v117.7c0,11,12.3,24.9,28.9,28.7.7-19.3,16.6-34.8,36.1-34.8s35.9,16,36.1,35.8h103c.2-19.8,16.3-35.8,36.1-35.8s35.9,16,36.1,35.8h9.6c7.9,0,14.2-6.4,14.2-14.2v-42.6c0-11.7-5.7-22.6-15.4-29.2Z"/>
        <g>
          <path class="cls-1" d="m159.6,125.1h50.8c1.5,0,2.8-1.2,2.8-2.8V57.7c0-1.5-1.2-2.8-2.8-2.8h-50.8c-1.5,0-2.8,1.2-2.8,2.8v64.6c0,1.5,1.2,2.8,2.8,2.8Z"/>
          <path class="cls-1" d="m279,120.2l-3-32.6v-.5s0-.5,0-.5c0-7.1-3.3-15.5-8.5-21.9-5.1-6.2-11.4-9.8-17.2-9.8h-22.3c-1.5,0-2.8,1.2-2.8,2.8v64.6c0,1.5,1.2,2.8,2.8,2.8h46.2c2.8,0,5.1-2.3,4.8-4.9Z"/>
          <rect class="cls-1" x="88.5" y="54.9" width="56.3" height="70.1" rx="2.8" ry="2.8"/>
          <path class="cls-1" d="m76.5,57.7c0-1.5-1.2-2.8-2.8-2.8H29.2c0,0-2.2,3.3-2.2,9.6v46.2c0,7.9,6.8,14.3,15.3,14.3h31.5c1.5,0,2.8-1.2,2.8-2.8V57.7Z"/>
        </g>
        <circle class="cls-1" cx="255.1" cy="208.4" r="28.1"/>
        <circle class="cls-1" cx="80" cy="208.4" r="28.1"/>
      </g>
      <g>
        <path class="cls-2" d="m299.6,112l-4.6-3.2-3-34.7c0-20.8-16.9-45.7-37.7-45.7h-79.3v-2.4c0-6.1-4.9-11-11-11h-83.2c-6.1,0-11,4.9-11,11v2.4H29.2c-7.9,0-14.2,6.4-14.2,22.2v117.7c0,11,12.3,24.9,28.9,28.7.7-19.3,16.6-34.8,36.1-34.8s35.9,16,36.1,35.8h103c.2-19.8,16.3-35.8,36.1-35.8s35.9,16,36.1,35.8h9.6c7.9,0,14.2-6.4,14.2-14.2v-42.6c0-11.7-5.7-22.6-15.4-29.2Z"/>
        <g>
          <path class="cls-2" d="m159.6,115.1h50.8c1.5,0,2.8-1.2,2.8-2.8V47.7c0-1.5-1.2-2.8-2.8-2.8h-50.8c-1.5,0-2.8,1.2-2.8,2.8v64.6c0,1.5,1.2,2.8,2.8,2.8Z"/>
          <path class="cls-2" d="m279,110.1l-3-32.6v-.5s0-.5,0-.5c0-7.1-3.3-15.5-8.5-21.9-5.1-6.2-11.4-9.8-17.2-9.8h-22.3c-1.5,0-2.8,1.2-2.8,2.8v64.6c0,1.5,1.2,2.8,2.8,2.8h46.2c2.8,0,5.1-2.3,4.8-4.9Z"/>
          <rect class="cls-2" x="88.5" y="44.9" width="56.3" height="70.1" rx="2.8" ry="2.8"/>
          <path class="cls-2" d="m76.5,47.7c0-1.5-1.2-2.8-2.8-2.8H29.2c0,0-2.2,3.3-2.2,9.6v46.2c0,7.9,6.8,14.3,15.3,14.3h31.5c1.5,0,2.8-1.2,2.8-2.8V47.7Z"/>
        </g>
        <circle class="cls-2" cx="255.1" cy="198.4" r="28.1"/>
        <circle class="cls-2" cx="80" cy="198.4" r="28.1"/>
      </g>
      <g>
        <path class="cls-3" d="m299.6,112l-4.6-3.2-3-34.7c0-20.8-16.9-45.7-37.7-45.7h-79.3v-2.4c0-6.1-4.9-11-11-11h-83.2c-6.1,0-11,4.9-11,11v2.4H29.2c-7.9,0-14.2,6.4-14.2,22.2v117.7c0,11,12.3,24.9,28.9,28.7.7-19.3,16.6-34.8,36.1-34.8s35.9,16,36.1,35.8h103c.2-19.8,16.3-35.8,36.1-35.8s35.9,16,36.1,35.8h9.6c7.9,0,14.2-6.4,14.2-14.2v-42.6c0-11.7-5.7-22.6-15.4-29.2Z"/>
        <g>
          <path class="cls-4" d="m159.6,115.1h50.8c1.5,0,2.8-1.2,2.8-2.8V47.7c0-1.5-1.2-2.8-2.8-2.8h-50.8c-1.5,0-2.8,1.2-2.8,2.8v64.6c0,1.5,1.2,2.8,2.8,2.8Z"/>
          <path class="cls-4" d="m279,110.1l-3-32.6v-.5s0-.5,0-.5c0-7.1-3.3-15.5-8.5-21.9-5.1-6.2-11.4-9.8-17.2-9.8h-22.3c-1.5,0-2.8,1.2-2.8,2.8v64.6c0,1.5,1.2,2.8,2.8,2.8h46.2c2.8,0,5.1-2.3,4.8-4.9Z"/>
          <rect class="cls-4" x="88.5" y="44.9" width="56.3" height="70.1" rx="2.8" ry="2.8"/>
          <path class="cls-4" d="m76.5,47.7c0-1.5-1.2-2.8-2.8-2.8H29.2c0,0-2.2,3.3-2.2,9.6v46.2c0,7.9,6.8,14.3,15.3,14.3h31.5c1.5,0,2.8-1.2,2.8-2.8V47.7Z"/>
        </g>
        <circle class="cls-5" cx="255.1" cy="198.4" r="28.1"/>
        <circle class="cls-5" cx="80" cy="198.4" r="28.1"/>
      </g>
    </g>
  </g>
</svg>