<?xml version="1.0" encoding="UTF-8"?>
<svg id="Layer_2" data-name="Layer 2" xmlns="http://www.w3.org/2000/svg" width="256.8" height="340" viewBox="0 0 256.8 340">
  <defs>
    <style>
      .cls-1, .cls-2 {
        stroke: #bcbfd3;
      }

      .cls-1, .cls-2, .cls-3 {
        fill: #bcbfd3;
      }

      .cls-1, .cls-2, .cls-4, .cls-5 {
        stroke-linecap: round;
        stroke-linejoin: round;
        stroke-width: 30px;
      }

      .cls-6, .cls-4, .cls-5 {
        fill: #fff;
      }

      .cls-2, .cls-7, .cls-5 {
        opacity: .2;
      }

      .cls-7, .cls-8 {
        fill: #b1c5e6;
      }

      .cls-9 {
        fill: #5876ba;
      }

      .cls-10 {
        fill: #f04b36;
      }

      .cls-4, .cls-5 {
        stroke: #fff;
      }
    </style>
  </defs>
  <g id="Grouped">
    <g>
      <g>
        <g>
          <polygon class="cls-1" points="15 132.8 15 132.8 16.6 85.9 15 132.8"/>
          <polygon class="cls-1" points="241.7 129.8 241.8 132.8 241.8 132.8 241.7 129.8"/>
          <path class="cls-1" d="m18.7,35.9c.3-1.3.8-2.5,1.4-3.6-.6,1.1-1.1,2.3-1.4,3.6Z"/>
          <g>
            <path class="cls-3" d="m241.7,129.8l-3.1-90.8c0-1.8-.5-3.6-1.1-5.2.7,1.6,1.1,3.3,1.1,5.2l3.1,90.8Z"/>
            <path class="cls-3" d="m237.5,33.9c.7,1.6,1.1,3.3,1.1,5.2l3.1,90.8-3.1-90.8c0-1.8-.5-3.6-1.1-5.2h0Z"/>
          </g>
          <path class="cls-1" d="m212.7,167.4c-1.5,3-3.3,5.9-5.2,8.6,1.9-2.7,3.7-5.6,5.2-8.6Z"/>
          <path class="cls-1" d="m38.7,45.7l-3,87.5h0l3-87.5h179.5l3,87.5c0,11.1-2.5,21.6-6.9,31.1,4.4-9.5,6.8-20,6.9-31.1l-3-87.5H38.7Z"/>
          <path class="cls-1" d="m204.2,180.4c-1,1.2-1.9,2.3-3,3.4,1-1.1,2-2.3,3-3.4Z"/>
          <g>
            <path class="cls-3" d="m229.3,26c1,.4,1.9.9,2.8,1.4-.9-.6-1.8-1-2.8-1.4Z"/>
            <path class="cls-3" d="m229.3,26c1,.4,1.9.9,2.8,1.4-.9-.6-1.8-1-2.8-1.4h0Z"/>
          </g>
          <g>
            <path class="cls-3" d="m224.1,25h0c1.8,0,3.6.3,5.2,1-1.6-.6-3.4-1-5.2-1Z"/>
            <path class="cls-3" d="m224.1,25c1.8,0,3.6.3,5.2,1-1.6-.6-3.4-1-5.2-1h0Z"/>
          </g>
          <path class="cls-1" d="m238.6,39.1c0-1.8-.5-3.6-1.1-5.2-.2-.5-.5-1.1-.8-1.5-.2-.3-.4-.6-.5-.9-.4-.6-.8-1.1-1.3-1.6-.2-.3-.5-.5-.7-.7-.7-.6-1.4-1.2-2.1-1.7-.9-.6-1.8-1-2.8-1.4-1.6-.6-3.4-1-5.2-1H32.7c-4.4,0-8.4,2-11,5.1-.6.7-1.1,1.4-1.6,2.2-.6,1.1-1.1,2.3-1.4,3.6-.3,1-.4,2.1-.5,3.2l-3.2,93.7c0,16.6,4.2,32.2,11.6,45.9,1.9,3.4,3.9,6.7,6.1,9.8,2.2,3.1,4.7,6.1,7.2,9,1,1.1,2.1,2.3,3.2,3.3,3.8,3.8,7.9,7.3,12.3,10.4,1.3.9,2.5,1.8,3.8,2.6,2,1.3,4,2.4,6,3.5,1.4.7,2.7,1.4,4.2,2.1,2.1,1,4.3,2,6.4,2.8,1.5.6,2.9,1.1,4.4,1.6,1.5.5,3,1,4.5,1.4,1.5.4,3.1.8,4.6,1.2,7,1.6,14.3,2.5,21.7,2.5h34.3c7.5,0,14.8-.9,21.7-2.5,1.6-.4,3.1-.8,4.6-1.2,1.5-.4,3-.9,4.5-1.4,1.5-.5,3-1,4.4-1.6,2.2-.9,4.3-1.8,6.4-2.8,1.4-.7,2.8-1.4,4.2-2.1,2-1.1,4-2.3,6-3.5,1.3-.8,2.6-1.7,3.8-2.6,4.4-3.1,8.5-6.6,12.3-10.4,1.1-1.1,2.2-2.2,3.2-3.3,2.6-2.8,5-5.9,7.2-9s4.3-6.4,6.1-9.8c7.4-13.6,11.6-29.3,11.6-45.9v-3c-.1,0-3.2-90.8-3.2-90.8Zm-24.3,125.2c-.5,1.1-1,2.1-1.6,3.2-1.5,3-3.3,5.9-5.2,8.6-1,1.5-2.1,2.9-3.3,4.4-1,1.2-1.9,2.3-3,3.4-13.8,15.1-33.7,24.6-55.7,24.6h-34.3c-41.6,0-75.4-33.7-75.6-75.2h0l3-87.5h179.5l3,87.5c0,11.1-2.5,21.6-6.9,31.1Z"/>
          <g>
            <path class="cls-3" d="m234.9,29.8c.5.5.9,1,1.3,1.6-.4-.6-.8-1.1-1.3-1.6Z"/>
            <path class="cls-3" d="m234.9,29.8c.5.5.9,1,1.3,1.6-.4-.6-.8-1.1-1.3-1.6h0Z"/>
          </g>
          <g>
            <path class="cls-3" d="m145.6,208.4h-34.3c-41.6,0-75.4-33.7-75.6-75.2h0c.2,41.5,34,75.2,75.6,75.2h34.3c22,0,41.9-9.5,55.7-24.6-13.8,15.1-33.7,24.6-55.7,24.6Z"/>
            <path class="cls-3" d="m35.7,133.1c.2,41.5,34,75.2,75.6,75.2h34.3c22,0,41.9-9.5,55.7-24.6-13.8,15.1-33.7,24.6-55.7,24.6h-34.3c-41.6,0-75.4-33.7-75.6-75.2h0Z"/>
          </g>
          <g>
            <path class="cls-3" d="m207.5,176c-1,1.5-2.1,2.9-3.3,4.4,1.1-1.4,2.2-2.9,3.3-4.4Z"/>
            <path class="cls-3" d="m207.5,176c-1,1.5-2.1,2.9-3.3,4.4,1.1-1.4,2.2-2.9,3.3-4.4h0Z"/>
          </g>
          <g>
            <path class="cls-3" d="m214.3,164.2c-.5,1.1-1,2.1-1.6,3.2.5-1.1,1.1-2.1,1.6-3.2Z"/>
            <path class="cls-3" d="m214.3,164.2c-.5,1.1-1,2.1-1.6,3.2.5-1.1,1.1-2.1,1.6-3.2h0Z"/>
          </g>
          <g>
            <path class="cls-3" d="m232.1,27.4c.8.5,1.5,1.1,2.1,1.7-.7-.6-1.4-1.2-2.1-1.7Z"/>
            <path class="cls-3" d="m232.1,27.4c.8.5,1.5,1.1,2.1,1.7-.7-.6-1.4-1.2-2.1-1.7h0Z"/>
          </g>
          <path class="cls-1" d="m61.7,84.3c-7.8,0-14.2,6.2-14.5,14l-1.2,34.9c.3,35.7,29.5,64.8,65.2,64.8h34.3c35.8,0,65-29,65.2-64.8l-1.2-34.9c-.3-7.8-6.7-14-14.5-14H61.7Z"/>
          <rect class="cls-1" x="113.3" y="222.8" width="30.2" height="102.2"/>
          <path class="cls-1" d="m87.3,292.9h82.2c13.5,0,24.4,10.9,24.4,24.4v.8c0,3.8-3.1,6.9-6.9,6.9h-117.2c-3.8,0-6.9-3.1-6.9-6.9v-.8c0-13.5,10.9-24.4,24.4-24.4Z"/>
        </g>
        <path class="cls-2" d="m30,36h200.7v102.6c0,45.7-37.1,82.7-82.7,82.7h-35.2c-45.7,0-82.7-37.1-82.7-82.7V36h0Z"/>
        <g>
          <ellipse class="cls-1" cx="56.9" cy="139.9" rx="13.3" ry="25.8" transform="translate(-15.3 7.3) rotate(-6.4)"/>
          <ellipse class="cls-1" cx="66.4" cy="174.6" rx="5.1" ry="6.1" transform="translate(-75.2 52.7) rotate(-28.5)"/>
        </g>
      </g>
      <g>
        <g>
          <polygon class="cls-4" points="15 122.8 15 122.8 16.6 75.9 15 122.8"/>
          <polygon class="cls-4" points="241.7 119.8 241.8 122.8 241.8 122.8 241.7 119.8"/>
          <path class="cls-4" d="m18.7,25.9c.3-1.3.8-2.5,1.4-3.6-.6,1.1-1.1,2.3-1.4,3.6Z"/>
          <g>
            <path class="cls-6" d="m241.7,119.8l-3.1-90.8c0-1.8-.5-3.6-1.1-5.2.7,1.6,1.1,3.3,1.1,5.2l3.1,90.8Z"/>
            <path class="cls-6" d="m237.5,23.9c.7,1.6,1.1,3.3,1.1,5.2l3.1,90.8-3.1-90.8c0-1.8-.5-3.6-1.1-5.2h0Z"/>
          </g>
          <path class="cls-4" d="m212.7,157.4c-1.5,3-3.3,5.9-5.2,8.6,1.9-2.7,3.7-5.6,5.2-8.6Z"/>
          <path class="cls-4" d="m38.7,35.7l-3,87.5h0l3-87.5h179.5l3,87.5c0,11.1-2.5,21.6-6.9,31.1,4.4-9.5,6.8-20,6.9-31.1l-3-87.5H38.7Z"/>
          <path class="cls-4" d="m204.2,170.4c-1,1.2-1.9,2.3-3,3.4,1-1.1,2-2.3,3-3.4Z"/>
          <g>
            <path class="cls-6" d="m229.3,16c1,.4,1.9.9,2.8,1.4-.9-.6-1.8-1-2.8-1.4Z"/>
            <path class="cls-6" d="m229.3,16c1,.4,1.9.9,2.8,1.4-.9-.6-1.8-1-2.8-1.4h0Z"/>
          </g>
          <g>
            <path class="cls-6" d="m224.1,15h0c1.8,0,3.6.3,5.2,1-1.6-.6-3.4-1-5.2-1Z"/>
            <path class="cls-6" d="m224.1,15c1.8,0,3.6.3,5.2,1-1.6-.6-3.4-1-5.2-1h0Z"/>
          </g>
          <path class="cls-4" d="m238.6,29.1c0-1.8-.5-3.6-1.1-5.2-.2-.5-.5-1.1-.8-1.5-.2-.3-.4-.6-.5-.9-.4-.6-.8-1.1-1.3-1.6-.2-.3-.5-.5-.7-.7-.7-.6-1.4-1.2-2.1-1.7-.9-.6-1.8-1-2.8-1.4-1.6-.6-3.4-1-5.2-1H32.7c-4.4,0-8.4,2-11,5.1-.6.7-1.1,1.4-1.6,2.2-.6,1.1-1.1,2.3-1.4,3.6-.3,1-.4,2.1-.5,3.2l-3.2,93.7c0,16.6,4.2,32.2,11.6,45.9,1.9,3.4,3.9,6.7,6.1,9.8,2.2,3.1,4.7,6.1,7.2,9,1,1.1,2.1,2.3,3.2,3.3,3.8,3.8,7.9,7.3,12.3,10.4,1.3.9,2.5,1.8,3.8,2.6,2,1.3,4,2.4,6,3.5,1.4.7,2.7,1.4,4.2,2.1,2.1,1,4.3,2,6.4,2.8,1.5.6,2.9,1.1,4.4,1.6,1.5.5,3,1,4.5,1.4,1.5.4,3.1.8,4.6,1.2,7,1.6,14.3,2.5,21.7,2.5h34.3c7.5,0,14.8-.9,21.7-2.5,1.6-.4,3.1-.8,4.6-1.2,1.5-.4,3-.9,4.5-1.4,1.5-.5,3-1,4.4-1.6,2.2-.9,4.3-1.8,6.4-2.8,1.4-.7,2.8-1.4,4.2-2.1,2-1.1,4-2.3,6-3.5,1.3-.8,2.6-1.7,3.8-2.6,4.4-3.1,8.5-6.6,12.3-10.4,1.1-1.1,2.2-2.2,3.2-3.3,2.6-2.8,5-5.9,7.2-9s4.3-6.4,6.1-9.8c7.4-13.6,11.6-29.3,11.6-45.9v-3c-.1,0-3.2-90.8-3.2-90.8Zm-24.3,125.2c-.5,1.1-1,2.1-1.6,3.2-1.5,3-3.3,5.9-5.2,8.6-1,1.5-2.1,2.9-3.3,4.4-1,1.2-1.9,2.3-3,3.4-13.8,15.1-33.7,24.6-55.7,24.6h-34.3c-41.6,0-75.4-33.7-75.6-75.2h0l3-87.5h179.5l3,87.5c0,11.1-2.5,21.6-6.9,31.1Z"/>
          <g>
            <path class="cls-6" d="m234.9,19.8c.5.5.9,1,1.3,1.6-.4-.6-.8-1.1-1.3-1.6Z"/>
            <path class="cls-6" d="m234.9,19.8c.5.5.9,1,1.3,1.6-.4-.6-.8-1.1-1.3-1.6h0Z"/>
          </g>
          <g>
            <path class="cls-6" d="m145.6,198.4h-34.3c-41.6,0-75.4-33.7-75.6-75.2h0c.2,41.5,34,75.2,75.6,75.2h34.3c22,0,41.9-9.5,55.7-24.6-13.8,15.1-33.7,24.6-55.7,24.6Z"/>
            <path class="cls-6" d="m35.7,123.1c.2,41.5,34,75.2,75.6,75.2h34.3c22,0,41.9-9.5,55.7-24.6-13.8,15.1-33.7,24.6-55.7,24.6h-34.3c-41.6,0-75.4-33.7-75.6-75.2h0Z"/>
          </g>
          <g>
            <path class="cls-6" d="m207.5,166c-1,1.5-2.1,2.9-3.3,4.4,1.1-1.4,2.2-2.9,3.3-4.4Z"/>
            <path class="cls-6" d="m207.5,166c-1,1.5-2.1,2.9-3.3,4.4,1.1-1.4,2.2-2.9,3.3-4.4h0Z"/>
          </g>
          <g>
            <path class="cls-6" d="m214.3,154.2c-.5,1.1-1,2.1-1.6,3.2.5-1.1,1.1-2.1,1.6-3.2Z"/>
            <path class="cls-6" d="m214.3,154.2c-.5,1.1-1,2.1-1.6,3.2.5-1.1,1.1-2.1,1.6-3.2h0Z"/>
          </g>
          <g>
            <path class="cls-6" d="m232.1,17.4c.8.5,1.5,1.1,2.1,1.7-.7-.6-1.4-1.2-2.1-1.7Z"/>
            <path class="cls-6" d="m232.1,17.4c.8.5,1.5,1.1,2.1,1.7-.7-.6-1.4-1.2-2.1-1.7h0Z"/>
          </g>
          <path class="cls-4" d="m61.7,74.3c-7.8,0-14.2,6.2-14.5,14l-1.2,34.9c.3,35.7,29.5,64.8,65.2,64.8h34.3c35.8,0,65-29,65.2-64.8l-1.2-34.9c-.3-7.8-6.7-14-14.5-14H61.7Z"/>
          <rect class="cls-4" x="113.3" y="212.8" width="30.2" height="102.2"/>
          <path class="cls-4" d="m87.3,282.9h82.2c13.5,0,24.4,10.9,24.4,24.4v.8c0,3.8-3.1,6.9-6.9,6.9h-117.2c-3.8,0-6.9-3.1-6.9-6.9v-.8c0-13.5,10.9-24.4,24.4-24.4Z"/>
        </g>
        <path class="cls-5" d="m30,26h200.7v102.6c0,45.7-37.1,82.7-82.7,82.7h-35.2c-45.7,0-82.7-37.1-82.7-82.7V26h0Z"/>
        <g>
          <ellipse class="cls-4" cx="56.9" cy="129.9" rx="13.3" ry="25.8" transform="translate(-14.2 7.2) rotate(-6.4)"/>
          <ellipse class="cls-4" cx="66.4" cy="164.6" rx="5.1" ry="6.1" transform="translate(-70.4 51.5) rotate(-28.5)"/>
        </g>
      </g>
      <g>
        <g>
          <polygon class="cls-9" points="15 122.8 15 122.8 16.6 75.9 15 122.8"/>
          <polygon class="cls-9" points="241.7 119.8 241.8 122.8 241.8 122.8 241.7 119.8"/>
          <path class="cls-9" d="m18.7,25.9c.3-1.3.8-2.5,1.4-3.6-.6,1.1-1.1,2.3-1.4,3.6Z"/>
          <path class="cls-9" d="m241.7,119.8l-3.1-90.8c0-1.8-.5-3.6-1.1-5.2.7,1.6,1.1,3.3,1.1,5.2l3.1,90.8Z"/>
          <path class="cls-9" d="m212.7,157.4c-1.5,3-3.3,5.9-5.2,8.6,1.9-2.7,3.7-5.6,5.2-8.6Z"/>
          <path class="cls-9" d="m38.7,35.7l-3,87.5h0l3-87.5h179.5l3,87.5c0,11.1-2.5,21.6-6.9,31.1,4.4-9.5,6.8-20,6.9-31.1l-3-87.5H38.7Z"/>
          <path class="cls-9" d="m204.2,170.4c-1,1.2-1.9,2.3-3,3.4,1-1.1,2-2.3,3-3.4Z"/>
          <path class="cls-9" d="m229.3,16c1,.4,1.9.9,2.8,1.4-.9-.6-1.8-1-2.8-1.4Z"/>
          <path class="cls-9" d="m224.1,15h0c1.8,0,3.6.3,5.2,1-1.6-.6-3.4-1-5.2-1Z"/>
          <path class="cls-8" d="m238.6,29.1c0-1.8-.5-3.6-1.1-5.2-.2-.5-.5-1.1-.8-1.5-.2-.3-.4-.6-.5-.9-.4-.6-.8-1.1-1.3-1.6-.2-.3-.5-.5-.7-.7-.7-.6-1.4-1.2-2.1-1.7-.9-.6-1.8-1-2.8-1.4-1.6-.6-3.4-1-5.2-1H32.7c-4.4,0-8.4,2-11,5.1-.6.7-1.1,1.4-1.6,2.2-.6,1.1-1.1,2.3-1.4,3.6-.3,1-.4,2.1-.5,3.2l-3.2,93.7c0,16.6,4.2,32.2,11.6,45.9,1.9,3.4,3.9,6.7,6.1,9.8,2.2,3.1,4.7,6.1,7.2,9,1,1.1,2.1,2.3,3.2,3.3,3.8,3.8,7.9,7.3,12.3,10.4,1.3.9,2.5,1.8,3.8,2.6,2,1.3,4,2.4,6,3.5,1.4.7,2.7,1.4,4.2,2.1,2.1,1,4.3,2,6.4,2.8,1.5.6,2.9,1.1,4.4,1.6,1.5.5,3,1,4.5,1.4,1.5.4,3.1.8,4.6,1.2,7,1.6,14.3,2.5,21.7,2.5h34.3c7.5,0,14.8-.9,21.7-2.5,1.6-.4,3.1-.8,4.6-1.2,1.5-.4,3-.9,4.5-1.4,1.5-.5,3-1,4.4-1.6,2.2-.9,4.3-1.8,6.4-2.8,1.4-.7,2.8-1.4,4.2-2.1,2-1.1,4-2.3,6-3.5,1.3-.8,2.6-1.7,3.8-2.6,4.4-3.1,8.5-6.6,12.3-10.4,1.1-1.1,2.2-2.2,3.2-3.3,2.6-2.8,5-5.9,7.2-9s4.3-6.4,6.1-9.8c7.4-13.6,11.6-29.3,11.6-45.9v-3c-.1,0-3.2-90.8-3.2-90.8Zm-24.3,125.2c-.5,1.1-1,2.1-1.6,3.2-1.5,3-3.3,5.9-5.2,8.6-1,1.5-2.1,2.9-3.3,4.4-1,1.2-1.9,2.3-3,3.4-13.8,15.1-33.7,24.6-55.7,24.6h-34.3c-41.6,0-75.4-33.7-75.6-75.2h0l3-87.5h179.5l3,87.5c0,11.1-2.5,21.6-6.9,31.1Z"/>
          <path class="cls-9" d="m234.9,19.8c.5.5.9,1,1.3,1.6-.4-.6-.8-1.1-1.3-1.6Z"/>
          <path class="cls-9" d="m145.6,198.4h-34.3c-41.6,0-75.4-33.7-75.6-75.2h0c.2,41.5,34,75.2,75.6,75.2h34.3c22,0,41.9-9.5,55.7-24.6-13.8,15.1-33.7,24.6-55.7,24.6Z"/>
          <path class="cls-9" d="m207.5,166c-1,1.5-2.1,2.9-3.3,4.4,1.1-1.4,2.2-2.9,3.3-4.4Z"/>
          <path class="cls-9" d="m214.3,154.2c-.5,1.1-1,2.1-1.6,3.2.5-1.1,1.1-2.1,1.6-3.2Z"/>
          <path class="cls-9" d="m232.1,17.4c.8.5,1.5,1.1,2.1,1.7-.7-.6-1.4-1.2-2.1-1.7Z"/>
          <path class="cls-10" d="m61.7,74.3c-7.8,0-14.2,6.2-14.5,14l-1.2,34.9c.3,35.7,29.5,64.8,65.2,64.8h34.3c35.8,0,65-29,65.2-64.8l-1.2-34.9c-.3-7.8-6.7-14-14.5-14H61.7Z"/>
          <rect class="cls-8" x="113.3" y="212.8" width="30.2" height="102.2"/>
          <path class="cls-8" d="m87.3,282.9h82.2c13.5,0,24.4,10.9,24.4,24.4v.8c0,3.8-3.1,6.9-6.9,6.9h-117.2c-3.8,0-6.9-3.1-6.9-6.9v-.8c0-13.5,10.9-24.4,24.4-24.4Z"/>
        </g>
        <path class="cls-7" d="m30,26h200.7v102.6c0,45.7-37.1,82.7-82.7,82.7h-35.2c-45.7,0-82.7-37.1-82.7-82.7V26h0Z"/>
        <g>
          <ellipse class="cls-6" cx="56.9" cy="129.9" rx="13.3" ry="25.8" transform="translate(-14.2 7.2) rotate(-6.4)"/>
          <ellipse class="cls-6" cx="66.4" cy="164.6" rx="5.1" ry="6.1" transform="translate(-70.4 51.5) rotate(-28.5)"/>
        </g>
      </g>
    </g>
  </g>
</svg>