<?xml version="1.0" encoding="UTF-8"?>
<svg id="Layer_2" data-name="Layer 2" xmlns="http://www.w3.org/2000/svg" width="330" height="291.2" viewBox="0 0 330 291.2">
  <defs>
    <style>
      .cls-1 {
        fill: #bcbfd3;
        stroke: #bcbfd3;
      }

      .cls-1, .cls-2 {
        stroke-linecap: round;
        stroke-linejoin: round;
        stroke-width: 30px;
      }

      .cls-3 {
        fill: #418c41;
      }

      .cls-4 {
        fill: #58b657;
      }

      .cls-2 {
        fill: #fff;
        stroke: #fff;
      }
    </style>
  </defs>
  <g id="Grouped">
    <g>
      <g>
        <path class="cls-1" d="m157.8,263.2c-3.7,0-6.8-3-6.9-6.8,0-.4-.9-22.2,0-72.6.8-45.6-53.1-71-53.6-71.2-3.5-1.6-5-5.7-3.4-9.2,1.6-3.5,5.7-5,9.1-3.4,2.6,1.2,62.6,29.3,61.7,84-.9,50.1,0,71.7,0,72.1,0,3.8-2.9,7-6.7,7.1,0,0-.1,0-.2,0Z"/>
        <path class="cls-1" d="m157.4,276.2c3.7,0,6.8-3,6.9-6.8,0-.4.9-22.2,0-72.6-.8-45.6,53.1-71,53.6-71.2,3.5-1.6,5-5.7,3.4-9.2-1.6-3.5-5.7-5-9.1-3.4-2.6,1.2-62.6,29.3-61.7,84,.9,50.1,0,71.7,0,72.1,0,3.8,2.9,7,6.7,7.1,0,0,.1,0,.2,0Z"/>
        <g>
          <path class="cls-1" d="m300.8,51.5l-26.6-3.5c-38.5-5.1-75.1,17.9-87.3,54.7l-8.4,25.5c-1.6,4.9-.8,9.9,1.7,13.8l132.4-83c-2.5-3.9-6.6-6.8-11.7-7.5Z"/>
          <path class="cls-1" d="m191.7,149.5l26.6,3.5c38.5,5.1,75.1-17.9,87.3-54.7l8.4-25.5c1.6-4.9.8-9.9-1.7-13.8l-132.4,83c2.5,3.9,6.6,6.8,11.7,7.5Z"/>
        </g>
        <g>
          <path class="cls-1" d="m146.9,123.2l-4.8-27.6c-6.9-39.9-41.2-69.3-81.7-70.1l-28-.5c-5.3,0-10.1,2.3-13.2,5.9l123.9,106.2c3.2-3.7,4.8-8.7,3.9-14Z"/>
          <path class="cls-1" d="m15.3,44.9l4.8,27.6c6.9,39.9,41.2,69.3,81.7,70.1l28,.5c5.3,0,10.1-2.3,13.2-5.9L19.1,31c-3.2,3.7-4.8,8.7-3.9,14Z"/>
        </g>
        <g>
          <path class="cls-1" d="m53.6,171.2l17.4-7.4c25.2-10.6,54.4-1.9,69.6,20.9l10.5,15.7c2,3,2.4,6.5,1.4,9.7l-105.5-31.7c.9-3.1,3.2-5.9,6.5-7.3Z"/>
          <path class="cls-1" d="m146.1,217.4l-17.4,7.4c-25.2,10.6-54.4,1.9-69.6-20.9l-10.5-15.7c-2-3-2.4-6.5-1.4-9.7l105.5,31.7c-.9,3.1-3.2,5.9-6.5,7.3Z"/>
        </g>
      </g>
      <g>
        <path class="cls-2" d="m157.8,253.2c-3.7,0-6.8-3-6.9-6.8,0-.4-.9-22.2,0-72.6.8-45.6-53.1-71-53.6-71.2-3.5-1.6-5-5.7-3.4-9.2,1.6-3.5,5.7-5,9.1-3.4,2.6,1.2,62.6,29.3,61.7,84-.9,50.1,0,71.7,0,72.1,0,3.8-2.9,7-6.7,7.1,0,0-.1,0-.2,0Z"/>
        <path class="cls-2" d="m157.4,266.2c3.7,0,6.8-3,6.9-6.8,0-.4.9-22.2,0-72.6-.8-45.6,53.1-71,53.6-71.2,3.5-1.6,5-5.7,3.4-9.2-1.6-3.5-5.7-5-9.1-3.4-2.6,1.2-62.6,29.3-61.7,84,.9,50.1,0,71.7,0,72.1,0,3.8,2.9,7,6.7,7.1,0,0,.1,0,.2,0Z"/>
        <g>
          <path class="cls-2" d="m300.8,41.4l-26.6-3.5c-38.5-5.1-75.1,17.9-87.3,54.7l-8.4,25.5c-1.6,4.9-.8,9.9,1.7,13.8l132.4-83c-2.5-3.9-6.6-6.8-11.7-7.5Z"/>
          <path class="cls-2" d="m191.7,139.5l26.6,3.5c38.5,5.1,75.1-17.9,87.3-54.7l8.4-25.5c1.6-4.9.8-9.9-1.7-13.8l-132.4,83c2.5,3.9,6.6,6.8,11.7,7.5Z"/>
        </g>
        <g>
          <path class="cls-2" d="m146.9,113.2l-4.8-27.6c-6.9-39.9-41.2-69.3-81.7-70.1l-28-.5c-5.3,0-10.1,2.3-13.2,5.9l123.9,106.2c3.2-3.7,4.8-8.7,3.9-14Z"/>
          <path class="cls-2" d="m15.3,34.9l4.8,27.6c6.9,39.9,41.2,69.3,81.7,70.1l28,.5c5.3,0,10.1-2.3,13.2-5.9L19.1,20.9c-3.2,3.7-4.8,8.7-3.9,14Z"/>
        </g>
        <g>
          <path class="cls-2" d="m53.6,161.2l17.4-7.4c25.2-10.6,54.4-1.9,69.6,20.9l10.5,15.7c2,3,2.4,6.5,1.4,9.7l-105.5-31.7c.9-3.1,3.2-5.9,6.5-7.3Z"/>
          <path class="cls-2" d="m146.1,207.4l-17.4,7.4c-25.2,10.6-54.4,1.9-69.6-20.9l-10.5-15.7c-2-3-2.4-6.5-1.4-9.7l105.5,31.7c-.9,3.1-3.2,5.9-6.5,7.3Z"/>
        </g>
      </g>
      <g>
        <path class="cls-3" d="m157.8,253.2c-3.7,0-6.8-3-6.9-6.8,0-.4-.9-22.2,0-72.6.8-45.6-53.1-71-53.6-71.2-3.5-1.6-5-5.7-3.4-9.2,1.6-3.5,5.7-5,9.1-3.4,2.6,1.2,62.6,29.3,61.7,84-.9,50.1,0,71.7,0,72.1,0,3.8-2.9,7-6.7,7.1,0,0-.1,0-.2,0Z"/>
        <path class="cls-4" d="m157.4,266.2c3.7,0,6.8-3,6.9-6.8,0-.4.9-22.2,0-72.6-.8-45.6,53.1-71,53.6-71.2,3.5-1.6,5-5.7,3.4-9.2-1.6-3.5-5.7-5-9.1-3.4-2.6,1.2-62.6,29.3-61.7,84,.9,50.1,0,71.7,0,72.1,0,3.8,2.9,7,6.7,7.1,0,0,.1,0,.2,0Z"/>
        <g>
          <path class="cls-4" d="m300.8,41.4l-26.6-3.5c-38.5-5.1-75.1,17.9-87.3,54.7l-8.4,25.5c-1.6,4.9-.8,9.9,1.7,13.8l132.4-83c-2.5-3.9-6.6-6.8-11.7-7.5Z"/>
          <path class="cls-3" d="m191.7,139.5l26.6,3.5c38.5,5.1,75.1-17.9,87.3-54.7l8.4-25.5c1.6-4.9.8-9.9-1.7-13.8l-132.4,83c2.5,3.9,6.6,6.8,11.7,7.5Z"/>
        </g>
        <g>
          <path class="cls-4" d="m146.9,113.2l-4.8-27.6c-6.9-39.9-41.2-69.3-81.7-70.1l-28-.5c-5.3,0-10.1,2.3-13.2,5.9l123.9,106.2c3.2-3.7,4.8-8.7,3.9-14Z"/>
          <path class="cls-3" d="m15.3,34.9l4.8,27.6c6.9,39.9,41.2,69.3,81.7,70.1l28,.5c5.3,0,10.1-2.3,13.2-5.9L19.1,20.9c-3.2,3.7-4.8,8.7-3.9,14Z"/>
        </g>
        <g>
          <path class="cls-4" d="m53.6,161.2l17.4-7.4c25.2-10.6,54.4-1.9,69.6,20.9l10.5,15.7c2,3,2.4,6.5,1.4,9.7l-105.5-31.7c.9-3.1,3.2-5.9,6.5-7.3Z"/>
          <path class="cls-3" d="m146.1,207.4l-17.4,7.4c-25.2,10.6-54.4,1.9-69.6-20.9l-10.5-15.7c-2-3-2.4-6.5-1.4-9.7l105.5,31.7c-.9,3.1-3.2,5.9-6.5,7.3Z"/>
        </g>
      </g>
    </g>
  </g>
</svg>