<?xml version="1.0" encoding="UTF-8"?>
<svg id="Layer_2" data-name="Layer 2" xmlns="http://www.w3.org/2000/svg" width="199.7" height="340" viewBox="0 0 199.7 340">
  <defs>
    <style>
      .cls-1 {
        fill: #bcbfd3;
        stroke: #bcbfd3;
      }

      .cls-1, .cls-2 {
        stroke-linecap: round;
        stroke-linejoin: round;
        stroke-width: 30px;
      }

      .cls-3 {
        fill: #5876ba;
      }

      .cls-4 {
        fill: #f04b36;
      }

      .cls-5 {
        fill: #b1c5e6;
      }

      .cls-2 {
        fill: #fff;
        stroke: #fff;
      }
    </style>
  </defs>
  <g id="Grouped">
    <g>
      <g>
        <path class="cls-1" d="m156.3,82.2v-3.4c0-8.6-7-15.6-15.6-15.6H59c-8.6,0-15.6,7-15.6,15.6v3.4c0,7.1-5.7,12.8-12.8,12.8h0c-8.6,0-15.6,7-15.6,15.6v198.8c0,8.6,7,15.6,15.6,15.6h138.6c8.6,0,15.6-7,15.6-15.6V110.6c0-8.6-7-15.6-15.6-15.6h0c-7.1,0-12.8-5.7-12.8-12.8Z"/>
        <rect class="cls-1" x="43.4" y="25" width="112.9" height="30.4" rx="15.2" ry="15.2"/>
        <rect class="cls-1" x="15" y="142.3" width="169.7" height="129.3"/>
        <path class="cls-1" d="m135,188.5h-7.1c-5.3,0-9.5-4.3-9.5-9.5v-7.1c0-5.3-4.3-9.5-9.5-9.5h-17.9c-5.3,0-9.5,4.3-9.5,9.5v7.1c0,5.3-4.3,9.5-9.5,9.5h-7.1c-5.3,0-9.5,4.3-9.5,9.5v17.9c0,5.3,4.3,9.5,9.5,9.5h7.1c5.3,0,9.5,4.3,9.5,9.5v7.1c0,5.3,4.3,9.5,9.5,9.5h17.9c5.3,0,9.5-4.3,9.5-9.5v-7.1c0-5.3,4.3-9.5,9.5-9.5h7.1c5.3,0,9.5-4.3,9.5-9.5v-17.9c0-5.3-4.3-9.5-9.5-9.5Z"/>
      </g>
      <g>
        <path class="cls-2" d="m156.3,72.2v-3.4c0-8.6-7-15.6-15.6-15.6H59c-8.6,0-15.6,7-15.6,15.6v3.4c0,7.1-5.7,12.8-12.8,12.8h0c-8.6,0-15.6,7-15.6,15.6v198.8c0,8.6,7,15.6,15.6,15.6h138.6c8.6,0,15.6-7,15.6-15.6V100.6c0-8.6-7-15.6-15.6-15.6h0c-7.1,0-12.8-5.7-12.8-12.8Z"/>
        <rect class="cls-2" x="43.4" y="15" width="112.9" height="30.4" rx="15.2" ry="15.2"/>
        <rect class="cls-2" x="15" y="132.3" width="169.7" height="129.3"/>
        <path class="cls-2" d="m135,178.5h-7.1c-5.3,0-9.5-4.3-9.5-9.5v-7.1c0-5.3-4.3-9.5-9.5-9.5h-17.9c-5.3,0-9.5,4.3-9.5,9.5v7.1c0,5.3-4.3,9.5-9.5,9.5h-7.1c-5.3,0-9.5,4.3-9.5,9.5v17.9c0,5.3,4.3,9.5,9.5,9.5h7.1c5.3,0,9.5,4.3,9.5,9.5v7.1c0,5.3,4.3,9.5,9.5,9.5h17.9c5.3,0,9.5-4.3,9.5-9.5v-7.1c0-5.3,4.3-9.5,9.5-9.5h7.1c5.3,0,9.5-4.3,9.5-9.5v-17.9c0-5.3-4.3-9.5-9.5-9.5Z"/>
      </g>
      <g>
        <path class="cls-5" d="m156.3,72.2v-3.4c0-8.6-7-15.6-15.6-15.6H59c-8.6,0-15.6,7-15.6,15.6v3.4c0,7.1-5.7,12.8-12.8,12.8h0c-8.6,0-15.6,7-15.6,15.6v198.8c0,8.6,7,15.6,15.6,15.6h138.6c8.6,0,15.6-7,15.6-15.6V100.6c0-8.6-7-15.6-15.6-15.6h0c-7.1,0-12.8-5.7-12.8-12.8Z"/>
        <rect class="cls-4" x="43.4" y="15" width="112.9" height="30.4" rx="15.2" ry="15.2"/>
        <rect class="cls-3" x="15" y="132.3" width="169.7" height="129.3"/>
        <path class="cls-4" d="m135,178.5h-7.1c-5.3,0-9.5-4.3-9.5-9.5v-7.1c0-5.3-4.3-9.5-9.5-9.5h-17.9c-5.3,0-9.5,4.3-9.5,9.5v7.1c0,5.3-4.3,9.5-9.5,9.5h-7.1c-5.3,0-9.5,4.3-9.5,9.5v17.9c0,5.3,4.3,9.5,9.5,9.5h7.1c5.3,0,9.5,4.3,9.5,9.5v7.1c0,5.3,4.3,9.5,9.5,9.5h17.9c5.3,0,9.5-4.3,9.5-9.5v-7.1c0-5.3,4.3-9.5,9.5-9.5h7.1c5.3,0,9.5-4.3,9.5-9.5v-17.9c0-5.3-4.3-9.5-9.5-9.5Z"/>
      </g>
    </g>
  </g>
</svg>