<?xml version="1.0" encoding="UTF-8"?>
<svg id="Layer_2" data-name="Layer 2" xmlns="http://www.w3.org/2000/svg" width="330" height="240.2" viewBox="0 0 330 240.2">
  <defs>
    <style>
      .cls-1 {
        fill: #bcbfd3;
        stroke: #bcbfd3;
      }

      .cls-1, .cls-2 {
        stroke-linecap: round;
        stroke-linejoin: round;
        stroke-width: 30px;
      }

      .cls-3 {
        fill: #fcb84b;
      }

      .cls-2 {
        fill: #fff;
        stroke: #fff;
      }

      .cls-4 {
        fill: #50555f;
      }
    </style>
  </defs>
  <g id="Grouped">
    <g>
      <g>
        <path class="cls-1" d="m144.2,148.3L20.1,96.4c-6.8-2.8-6.8-12.4,0-15.3l124.1-51.9c13.3-5.6,28.4-5.6,41.7,0l124.1,51.9c6.8,2.8,6.8,12.4,0,15.3l-124.1,51.9c-13.3,5.6-28.4,5.6-41.7,0Z"/>
        <path class="cls-1" d="m165,160.5c-8.3,0-16.3-1.6-23.9-4.8l-64-26.8v67.7c0,38.2,170.5,38.2,170.5,0v-65.4l-58.7,24.6c-7.6,3.2-15.7,4.8-23.9,4.8Z"/>
        <path class="cls-1" d="m97.8,179.1c-2.1,0-6.8-2.4-10.1-4.1s-3-3.3-2.7-5.5l6.8-44.5c0-2.1,1.1-4.1,2.9-5.2l67.2-40.2c2.8-1.7,6.5-.8,8.2,2.1,1.7,2.8.8,6.5-2.1,8.2l-64.3,38.4,6.7,41.1c.4,2.2-.7,4.4-2.7,5.5-3.2,1.8-7.9,4.1-10,4.1Z"/>
      </g>
      <g>
        <path class="cls-2" d="m144.2,138.3L20.1,86.4c-6.8-2.8-6.8-12.4,0-15.3l124.1-51.9c13.3-5.6,28.4-5.6,41.7,0l124.1,51.9c6.8,2.8,6.8,12.4,0,15.3l-124.1,51.9c-13.3,5.6-28.4,5.6-41.7,0Z"/>
        <path class="cls-2" d="m165,150.5c-8.3,0-16.3-1.6-23.9-4.8l-64-26.8v67.7c0,38.2,170.5,38.2,170.5,0v-65.4l-58.7,24.6c-7.6,3.2-15.7,4.8-23.9,4.8Z"/>
        <path class="cls-2" d="m97.8,169.1c-2.1,0-6.8-2.4-10.1-4.1s-3-3.3-2.7-5.5l6.8-44.5c0-2.1,1.1-4.1,2.9-5.2l67.2-40.2c2.8-1.7,6.5-.8,8.2,2.1,1.7,2.8.8,6.5-2.1,8.2l-64.3,38.4,6.7,41.1c.4,2.2-.7,4.4-2.7,5.5-3.2,1.8-7.9,4.1-10,4.1Z"/>
      </g>
      <g>
        <path class="cls-4" d="m144.2,138.3L20.1,86.4c-6.8-2.8-6.8-12.4,0-15.3l124.1-51.9c13.3-5.6,28.4-5.6,41.7,0l124.1,51.9c6.8,2.8,6.8,12.4,0,15.3l-124.1,51.9c-13.3,5.6-28.4,5.6-41.7,0Z"/>
        <path class="cls-4" d="m165,150.5c-8.3,0-16.3-1.6-23.9-4.8l-64-26.8v67.7c0,38.2,170.5,38.2,170.5,0v-65.4l-58.7,24.6c-7.6,3.2-15.7,4.8-23.9,4.8Z"/>
        <path class="cls-3" d="m97.8,169.1c-2.1,0-6.8-2.4-10.1-4.1s-3-3.3-2.7-5.5l6.8-44.5c0-2.1,1.1-4.1,2.9-5.2l67.2-40.2c2.8-1.7,6.5-.8,8.2,2.1,1.7,2.8.8,6.5-2.1,8.2l-64.3,38.4,6.7,41.1c.4,2.2-.7,4.4-2.7,5.5-3.2,1.8-7.9,4.1-10,4.1Z"/>
      </g>
    </g>
  </g>
</svg>