<?xml version="1.0" encoding="UTF-8"?>
<svg id="Layer_2" data-name="Layer 2" xmlns="http://www.w3.org/2000/svg" width="228.1" height="340" viewBox="0 0 228.1 340">
  <defs>
    <style>
      .cls-1 {
        fill: #bcbfd3;
        stroke: #bcbfd3;
      }

      .cls-1, .cls-2 {
        stroke-linecap: round;
        stroke-linejoin: round;
        stroke-width: 30px;
      }

      .cls-3, .cls-2 {
        fill: #fff;
      }

      .cls-4 {
        fill: #b1c5e6;
      }

      .cls-5 {
        fill: #515660;
      }

      .cls-2 {
        stroke: #fff;
      }
    </style>
  </defs>
  <g id="Grouped">
    <g>
      <g>
        <rect class="cls-1" x="93.7" y="171.6" width="40.6" height="153.4" rx="20.3" ry="20.3"/>
        <ellipse class="cls-1" cx="114" cy="134.2" rx="81.4" ry="91.5"/>
        <path class="cls-1" d="m114,25c-54.6,0-99,49-99,109.2s44.4,109.2,99,109.2,99-49,99-109.2S168.7,25,114,25Zm0,200.7c-44.9,0-81.4-41.1-81.4-91.5S69.2,42.7,114,42.7s81.4,41.1,81.4,91.5-36.5,91.5-81.4,91.5Z"/>
        <polygon class="cls-1" points="162.3 105.7 169.8 121.7 183.4 130.5 169.8 139.3 162.3 155.3 154.8 139.3 141.2 130.5 154.8 121.7 162.3 105.7"/>
        <g>
          <path class="cls-1" d="m130.7,44.6l-94.4,116.4c2.9,10.5,7.4,20.3,13.2,28.8L157.4,56.8c-8.1-5.7-17.1-9.9-26.8-12.2Z"/>
          <path class="cls-1" d="m166,63.8L56.4,198.8c2.1,2.4,4.4,4.7,6.7,6.8l109.5-134.9c-2.1-2.4-4.3-4.7-6.6-6.9Z"/>
        </g>
      </g>
      <g>
        <rect class="cls-2" x="93.7" y="161.6" width="40.6" height="153.4" rx="20.3" ry="20.3"/>
        <ellipse class="cls-2" cx="114" cy="124.2" rx="81.4" ry="91.5"/>
        <path class="cls-2" d="m114,15C59.4,15,15,64,15,124.2s44.4,109.2,99,109.2,99-49,99-109.2S168.7,15,114,15Zm0,200.7c-44.9,0-81.4-41.1-81.4-91.5S69.2,32.7,114,32.7s81.4,41.1,81.4,91.5-36.5,91.5-81.4,91.5Z"/>
        <polygon class="cls-2" points="162.3 95.6 169.8 111.7 183.4 120.5 169.8 129.3 162.3 145.3 154.8 129.3 141.2 120.5 154.8 111.7 162.3 95.6"/>
        <g>
          <path class="cls-2" d="m130.7,34.6l-94.4,116.4c2.9,10.5,7.4,20.3,13.2,28.8L157.4,46.8c-8.1-5.7-17.1-9.9-26.8-12.2Z"/>
          <path class="cls-2" d="m166,53.8L56.4,188.8c2.1,2.4,4.4,4.7,6.7,6.8L172.6,60.7c-2.1-2.4-4.3-4.7-6.6-6.9Z"/>
        </g>
      </g>
      <g>
        <rect class="cls-5" x="93.7" y="161.6" width="40.6" height="153.4" rx="20.3" ry="20.3"/>
        <ellipse class="cls-4" cx="114" cy="124.2" rx="81.4" ry="91.5"/>
        <path class="cls-5" d="m114,15C59.4,15,15,64,15,124.2s44.4,109.2,99,109.2,99-49,99-109.2S168.7,15,114,15Zm0,200.7c-44.9,0-81.4-41.1-81.4-91.5S69.2,32.7,114,32.7s81.4,41.1,81.4,91.5-36.5,91.5-81.4,91.5Z"/>
        <polygon class="cls-3" points="162.3 95.6 169.8 111.7 183.4 120.5 169.8 129.3 162.3 145.3 154.8 129.3 141.2 120.5 154.8 111.7 162.3 95.6"/>
        <g>
          <path class="cls-3" d="m130.7,34.6l-94.4,116.4c2.9,10.5,7.4,20.3,13.2,28.8L157.4,46.8c-8.1-5.7-17.1-9.9-26.8-12.2Z"/>
          <path class="cls-3" d="m166,53.8L56.4,188.8c2.1,2.4,4.4,4.7,6.7,6.8L172.6,60.7c-2.1-2.4-4.3-4.7-6.6-6.9Z"/>
        </g>
      </g>
    </g>
  </g>
</svg>