<?xml version="1.0" encoding="UTF-8"?>
<svg id="Layer_2" data-name="Layer 2" xmlns="http://www.w3.org/2000/svg" width="330" height="304.1" viewBox="0 0 330 304.1">
  <defs>
    <style>
      .cls-1 {
        fill: #bcbfd3;
        stroke: #bcbfd3;
      }

      .cls-1, .cls-2 {
        stroke-linecap: round;
        stroke-linejoin: round;
        stroke-width: 30px;
      }

      .cls-3 {
        fill: #b1c5e6;
      }

      .cls-2 {
        fill: #fff;
        stroke: #fff;
      }
    </style>
  </defs>
  <g id="Grouped">
    <g>
      <g>
        <path class="cls-1" d="m238.7,50.3v-9.6c0-8.7-7-15.7-15.7-15.7H30.7c-8.7,0-15.7,7-15.7,15.7v127.2c0,22.6,6.7,40.9,18.3,55,6,7.4,15,11.6,24.5,11.6h138.1c9.5,0,18.5-4.3,24.5-11.6,4.9-6,9-12.8,12-20.3,2.1.2,4.2.3,6.3.3,42.1,0,76.3-34.1,76.3-76.3s-34.1-76.3-76.3-76.3Zm0,120.2s0,0,0,0c0-.9,0-1.7,0-2.6v-85.3c24.3,0,43.9,19.7,43.9,43.9s-19.7,43.9-43.9,43.9Z"/>
        <path class="cls-1" d="m231.3,244.2H22.4c-4.1,0-7.4,3.3-7.4,7.4v4.2c0,13.2,10.7,23.9,23.9,23.9h3.2c2.6,5.5,8.2,9.3,14.8,9.3h139.9c6.5,0,12.1-3.8,14.8-9.3h3.2c13.2,0,23.9-10.7,23.9-23.9v-4.2c0-4.1-3.3-7.4-7.4-7.4Z"/>
      </g>
      <g>
        <path class="cls-2" d="m238.7,40.3v-9.6c0-8.7-7-15.7-15.7-15.7H30.7c-8.7,0-15.7,7-15.7,15.7v127.2c0,22.6,6.7,40.9,18.3,55,6,7.4,15,11.6,24.5,11.6h138.1c9.5,0,18.5-4.3,24.5-11.6,4.9-6,9-12.8,12-20.3,2.1.2,4.2.3,6.3.3,42.1,0,76.3-34.1,76.3-76.3s-34.1-76.3-76.3-76.3Zm0,120.2s0,0,0,0c0-.9,0-1.7,0-2.6v-85.3c24.3,0,43.9,19.7,43.9,43.9s-19.7,43.9-43.9,43.9Z"/>
        <path class="cls-2" d="m231.3,234.2H22.4c-4.1,0-7.4,3.3-7.4,7.4v4.2c0,13.2,10.7,23.9,23.9,23.9h3.2c2.6,5.5,8.2,9.3,14.8,9.3h139.9c6.5,0,12.1-3.8,14.8-9.3h3.2c13.2,0,23.9-10.7,23.9-23.9v-4.2c0-4.1-3.3-7.4-7.4-7.4Z"/>
      </g>
      <g>
        <path class="cls-3" d="m238.7,40.3v-9.6c0-8.7-7-15.7-15.7-15.7H30.7c-8.7,0-15.7,7-15.7,15.7v127.2c0,22.6,6.7,40.9,18.3,55,6,7.4,15,11.6,24.5,11.6h138.1c9.5,0,18.5-4.3,24.5-11.6,4.9-6,9-12.8,12-20.3,2.1.2,4.2.3,6.3.3,42.1,0,76.3-34.1,76.3-76.3s-34.1-76.3-76.3-76.3Zm0,120.2s0,0,0,0c0-.9,0-1.7,0-2.6v-85.3c24.3,0,43.9,19.7,43.9,43.9s-19.7,43.9-43.9,43.9Z"/>
        <path class="cls-3" d="m231.3,234.2H22.4c-4.1,0-7.4,3.3-7.4,7.4v4.2c0,13.2,10.7,23.9,23.9,23.9h3.2c2.6,5.5,8.2,9.3,14.8,9.3h139.9c6.5,0,12.1-3.8,14.8-9.3h3.2c13.2,0,23.9-10.7,23.9-23.9v-4.2c0-4.1-3.3-7.4-7.4-7.4Z"/>
      </g>
    </g>
  </g>
</svg>