<?xml version="1.0" encoding="UTF-8"?>
<svg id="Layer_2" data-name="Layer 2" xmlns="http://www.w3.org/2000/svg" width="330" height="326.6" viewBox="0 0 330 326.6">
  <defs>
    <style>
      .cls-1 {
        fill: #bcbfd3;
        stroke: #bcbfd3;
      }

      .cls-1, .cls-2 {
        stroke-linecap: round;
        stroke-linejoin: round;
        stroke-width: 30px;
      }

      .cls-3 {
        fill: #58b657;
      }

      .cls-2 {
        fill: #fff;
        stroke: #fff;
      }
    </style>
  </defs>
  <g id="Grouped">
    <g>
      <g>
        <path class="cls-1" d="m293.5,139.1s0,0,0,0c-5-27.3-18.1-52.9-37.6-72.8-21.8-22.3-50.8-36.9-81.5-41.1-7.9-1.1-15.1,4.5-16.2,12.3-1.1,7.9,4.5,15.1,12.3,16.2,45.4,6.1,81.7,39,92.9,82.3s0,0,0,0l-11.2-1.1c-6.9-.7-11.9,6.3-9.1,12.6l22.6,50.2c2.8,6.3,11.4,7.2,15.5,1.6l32.2-44.7c4-5.6.5-13.5-6.4-14.2l-13.4-1.4Z"/>
        <path class="cls-1" d="m43.8,164.2c0-29.9,12.2-58.5,33.1-79.3,0,0,0,0,0,0l4.6,10.2c2.8,6.3,11.4,7.2,15.5,1.6l32.2-44.7c4-5.6.5-13.5-6.4-14.2l-54.8-5.5c-6.9-.7-11.9,6.3-9.1,12.6l5.5,12.3s0,0,0,0c-13.9,11.8-25.5,26.4-33.9,42.5-10.2,19.8-15.6,42-15.6,64.4s3.5,36.3,10.4,53.2c2.3,5.6,7.7,8.9,13.3,8.9s2.5-.2,3.8-.5c8.7-2.4,12.7-11.6,9.4-19.9-5.4-13.3-8.1-27.3-8.1-41.7Z"/>
        <path class="cls-1" d="m264,231.6c-6.2-5.7-16-4.7-21.2,1.9-21.3,26.9-53.2,42.3-87.5,42.3s-19.3-1.2-28.6-3.7c0,0,0,0,0,0l6.5-9.2c4-5.6.4-13.5-6.5-14.1l-54.9-5.1c-6.9-.6-11.9,6.4-9,12.7l23,50c2.9,6.3,11.5,7.1,15.5,1.4l7.8-11s0,0,0,0c14.8,5.2,30.3,7.8,46.1,7.8,43.2,0,83.4-19.5,110.2-53.5,4.7-6,3.9-14.5-1.6-19.5Z"/>
      </g>
      <g>
        <path class="cls-2" d="m293.5,129.1s0,0,0,0c-5-27.3-18.1-52.9-37.6-72.8-21.8-22.3-50.8-36.9-81.5-41.1-7.9-1.1-15.1,4.5-16.2,12.3s4.5,15.1,12.3,16.2c45.4,6.1,81.7,39,92.9,82.3s0,0,0,0l-11.2-1.1c-6.9-.7-11.9,6.3-9.1,12.6l22.6,50.2c2.8,6.3,11.4,7.2,15.5,1.6l32.2-44.7c4-5.6.5-13.5-6.4-14.2l-13.4-1.4Z"/>
        <path class="cls-2" d="m43.8,154.2c0-29.9,12.2-58.5,33.1-79.3s0,0,0,0l4.6,10.2c2.8,6.3,11.4,7.2,15.5,1.6l32.2-44.7c4-5.6.5-13.5-6.4-14.2l-54.8-5.5c-6.9-.7-11.9,6.3-9.1,12.6l5.5,12.3s0,0,0,0c-13.9,11.8-25.5,26.4-33.9,42.5-10.2,19.8-15.6,42-15.6,64.4s3.5,36.3,10.4,53.2c2.3,5.6,7.7,8.9,13.3,8.9s2.5-.2,3.8-.5c8.7-2.4,12.7-11.6,9.4-19.9-5.4-13.3-8.1-27.3-8.1-41.7Z"/>
        <path class="cls-2" d="m264,221.6c-6.2-5.7-16-4.7-21.2,1.9-21.3,26.9-53.2,42.3-87.5,42.3s-19.3-1.2-28.6-3.7c0,0,0,0,0,0l6.5-9.2c4-5.6.4-13.5-6.5-14.1l-54.9-5.1c-6.9-.6-11.9,6.4-9,12.7l23,50c2.9,6.3,11.5,7.1,15.5,1.4l7.8-11s0,0,0,0c14.8,5.2,30.3,7.8,46.1,7.8,43.2,0,83.4-19.5,110.2-53.5,4.7-6,3.9-14.5-1.6-19.5Z"/>
      </g>
      <g>
        <path class="cls-3" d="m293.5,129.1s0,0,0,0c-5-27.3-18.1-52.9-37.6-72.8-21.8-22.3-50.8-36.9-81.5-41.1-7.9-1.1-15.1,4.5-16.2,12.3s4.5,15.1,12.3,16.2c45.4,6.1,81.7,39,92.9,82.3s0,0,0,0l-11.2-1.1c-6.9-.7-11.9,6.3-9.1,12.6l22.6,50.2c2.8,6.3,11.4,7.2,15.5,1.6l32.2-44.7c4-5.6.5-13.5-6.4-14.2l-13.4-1.4Z"/>
        <path class="cls-3" d="m43.8,154.2c0-29.9,12.2-58.5,33.1-79.3s0,0,0,0l4.6,10.2c2.8,6.3,11.4,7.2,15.5,1.6l32.2-44.7c4-5.6.5-13.5-6.4-14.2l-54.8-5.5c-6.9-.7-11.9,6.3-9.1,12.6l5.5,12.3s0,0,0,0c-13.9,11.8-25.5,26.4-33.9,42.5-10.2,19.8-15.6,42-15.6,64.4s3.5,36.3,10.4,53.2c2.3,5.6,7.7,8.9,13.3,8.9s2.5-.2,3.8-.5c8.7-2.4,12.7-11.6,9.4-19.9-5.4-13.3-8.1-27.3-8.1-41.7Z"/>
        <path class="cls-3" d="m264,221.6c-6.2-5.7-16-4.7-21.2,1.9-21.3,26.9-53.2,42.3-87.5,42.3s-19.3-1.2-28.6-3.7c0,0,0,0,0,0l6.5-9.2c4-5.6.4-13.5-6.5-14.1l-54.9-5.1c-6.9-.6-11.9,6.4-9,12.7l23,50c2.9,6.3,11.5,7.1,15.5,1.4l7.8-11s0,0,0,0c14.8,5.2,30.3,7.8,46.1,7.8,43.2,0,83.4-19.5,110.2-53.5,4.7-6,3.9-14.5-1.6-19.5Z"/>
      </g>
    </g>
  </g>
</svg>