<?xml version="1.0" encoding="UTF-8"?>
<svg id="Layer_2" data-name="Layer 2" xmlns="http://www.w3.org/2000/svg" width="330" height="331" viewBox="0 0 330 331">
  <defs>
    <style>
      .cls-1 {
        fill: #bcbfd3;
        stroke: #bcbfd3;
      }

      .cls-1, .cls-2 {
        stroke-linecap: round;
        stroke-linejoin: round;
        stroke-width: 30px;
      }

      .cls-3, .cls-2 {
        fill: #fff;
      }

      .cls-4 {
        fill: #f04b36;
      }

      .cls-2 {
        stroke: #fff;
      }
    </style>
  </defs>
  <g id="Grouped">
    <g>
      <g>
        <path class="cls-1" d="m211,109l-81-34.2c-2.2-.9-4.6.7-4.6,3v44.3l76.6,33c4.1,1.8,6.8,5.9,6.8,10.4s-.3,3.1-.9,4.4c2.8,2.1,4.6,5.4,4.6,9.1v35.6h.2c2.2,1,4.6-.6,4.6-2.9v-92.9c0-4.2-2.5-8.1-6.4-9.7Z"/>
        <g>
          <path class="cls-1" d="m106.7,204.5l-83.8-36.1c-2.7-1.1-2.7-4.9,0-6l83.8-36.1c2.7-1.1,5.7-1.1,8.3,0l83.8,36.1c2.7,1.1,2.7,4.9,0,6l-83.8,36.1c-2.7,1.1-5.7,1.1-8.3,0Z"/>
          <path class="cls-1" d="m21.4,280.3l81,34.8c2.2.9,4.6-.7,4.6-3v-92.9c0-4.2-2.5-8.1-6.4-9.7l-81-34.2c-2.2-.9-4.6.7-4.6,3v92.4c0,4.2,2.5,8,6.4,9.7Z"/>
          <path class="cls-1" d="m198.3,279.7l-78.5,36c-2.2,1-4.6-.6-4.6-3v-93c0-4.2,2.5-8,6.3-9.7l78.4-34.1c2.2-.9,4.6.6,4.6,3v91.1c0,4.2-2.5,7.9-6.3,9.6Z"/>
          <ellipse class="cls-1" cx="59.7" cy="242.7" rx="10.1" ry="14.6"/>
          <path class="cls-1" d="m150.4,271.2c0,8.1-4.5,15.9-10.1,15.9s-10.1-6.5-10.1-14.6,4.5-15.9,10.1-15.9,10.1,6.5,10.1,14.6Z"/>
          <path class="cls-1" d="m190.2,218.4c0,8.1-4.5,13.3-10.1,13.3s-10.1-5.2-10.1-13.3,4.5-14.6,10.1-14.6,10.1,6.5,10.1,14.6Z"/>
          <ellipse class="cls-1" cx="112.4" cy="146.6" rx="14.6" ry="10.1"/>
          <ellipse class="cls-1" cx="112.4" cy="182.9" rx="14.6" ry="10.1"/>
          <ellipse class="cls-1" cx="162" cy="165.4" rx="14.6" ry="10.1"/>
          <ellipse class="cls-1" cx="63.5" cy="165.4" rx="14.6" ry="10.1"/>
        </g>
        <path class="cls-1" d="m217.1,104.1l-83.8-36.1c-2.7-1.1-2.7-4.9,0-6l83.8-36.1c2.7-1.1,5.7-1.1,8.3,0l83.8,36.1c2.7,1.1,2.7,4.9,0,6l-83.8,36.1c-2.7,1.1-5.7,1.1-8.3,0Z"/>
        <path class="cls-1" d="m308.7,179.3l-78.5,36c-2.2,1-4.6-.6-4.6-3v-93c0-4.2,2.5-8,6.3-9.7l78.4-34.1c2.2-.9,4.6.6,4.6,3v91.1c0,4.2-2.5,7.9-6.3,9.6Z"/>
        <path class="cls-1" d="m252.4,181.5c0,8.1-4.5,15.9-10.1,15.9s-10.1-6.5-10.1-14.6,4.5-15.9,10.1-15.9,10.1,6.5,10.1,14.6Z"/>
        <path class="cls-1" d="m307.2,109.2c0,8.1-4.5,13.3-10.1,13.3s-10.1-5.2-10.1-13.3,4.5-14.6,10.1-14.6,10.1,6.5,10.1,14.6Z"/>
        <ellipse class="cls-1" cx="222.8" cy="65" rx="14.6" ry="10.1"/>
        <ellipse class="cls-1" cx="272.4" cy="65" rx="14.6" ry="10.1"/>
        <ellipse class="cls-1" cx="173.9" cy="65" rx="14.6" ry="10.1"/>
        <path class="cls-1" d="m180,145.5c.2-1.1.3-2.2.3-3.3,0-8.1-4.5-14.6-10.1-14.6s-8.1,4-9.5,9.6l19.3,8.3Z"/>
        <path class="cls-1" d="m252.4,133c0,8.1-4.5,13.3-10.1,13.3s-10.1-5.2-10.1-13.3,4.5-14.6,10.1-14.6,10.1,6.5,10.1,14.6Z"/>
        <path class="cls-1" d="m307.2,156.5c0,8.1-4.5,15.9-10.1,15.9s-10.1-6.5-10.1-14.6,4.5-15.9,10.1-15.9,10.1,6.5,10.1,14.6Z"/>
        <path class="cls-1" d="m279.9,144.3c0,8.1-4.5,15.9-10.1,15.9s-10.1-6.5-10.1-14.6,4.5-15.9,10.1-15.9,10.1,6.5,10.1,14.6Z"/>
      </g>
      <g>
        <path class="cls-2" d="m211,99l-81-34.2c-2.2-.9-4.6.7-4.6,3v44.3l76.6,33c4.1,1.8,6.8,5.9,6.8,10.4s-.3,3.1-.9,4.4c2.8,2.1,4.6,5.4,4.6,9.1v35.6h.2c2.2,1,4.6-.6,4.6-2.9v-92.9c0-4.2-2.5-8.1-6.4-9.7Z"/>
        <g>
          <path class="cls-2" d="m106.7,194.5l-83.8-36.1c-2.7-1.1-2.7-4.9,0-6l83.8-36.1c2.7-1.1,5.7-1.1,8.3,0l83.8,36.1c2.7,1.1,2.7,4.9,0,6l-83.8,36.1c-2.7,1.1-5.7,1.1-8.3,0Z"/>
          <path class="cls-2" d="m21.4,270.3l81,34.8c2.2.9,4.6-.7,4.6-3v-92.9c0-4.2-2.5-8.1-6.4-9.7l-81-34.2c-2.2-.9-4.6.7-4.6,3v92.4c0,4.2,2.5,8,6.4,9.7Z"/>
          <path class="cls-2" d="m198.3,269.7l-78.5,36c-2.2,1-4.6-.6-4.6-3v-93c0-4.2,2.5-8,6.3-9.7l78.4-34.1c2.2-.9,4.6.6,4.6,3v91.1c0,4.2-2.5,7.9-6.3,9.6Z"/>
          <ellipse class="cls-2" cx="59.7" cy="232.7" rx="10.1" ry="14.6"/>
          <path class="cls-2" d="m150.4,261.2c0,8.1-4.5,15.9-10.1,15.9s-10.1-6.5-10.1-14.6,4.5-15.9,10.1-15.9,10.1,6.5,10.1,14.6Z"/>
          <path class="cls-2" d="m190.2,208.4c0,8.1-4.5,13.3-10.1,13.3s-10.1-5.2-10.1-13.3,4.5-14.6,10.1-14.6,10.1,6.5,10.1,14.6Z"/>
          <ellipse class="cls-2" cx="112.4" cy="136.6" rx="14.6" ry="10.1"/>
          <ellipse class="cls-2" cx="112.4" cy="172.9" rx="14.6" ry="10.1"/>
          <ellipse class="cls-2" cx="162" cy="155.4" rx="14.6" ry="10.1"/>
          <ellipse class="cls-2" cx="63.5" cy="155.4" rx="14.6" ry="10.1"/>
        </g>
        <path class="cls-2" d="m217.1,94.1l-83.8-36.1c-2.7-1.1-2.7-4.9,0-6L217.1,15.9c2.7-1.1,5.7-1.1,8.3,0l83.8,36.1c2.7,1.1,2.7,4.9,0,6l-83.8,36.1c-2.7,1.1-5.7,1.1-8.3,0Z"/>
        <path class="cls-2" d="m308.7,169.2l-78.5,36c-2.2,1-4.6-.6-4.6-3v-93c0-4.2,2.5-8,6.3-9.7l78.4-34.1c2.2-.9,4.6.6,4.6,3v91.1c0,4.2-2.5,7.9-6.3,9.6Z"/>
        <path class="cls-2" d="m252.4,171.5c0,8.1-4.5,15.9-10.1,15.9s-10.1-6.5-10.1-14.6,4.5-15.9,10.1-15.9,10.1,6.5,10.1,14.6Z"/>
        <path class="cls-2" d="m307.2,99.2c0,8.1-4.5,13.3-10.1,13.3s-10.1-5.2-10.1-13.3,4.5-14.6,10.1-14.6,10.1,6.5,10.1,14.6Z"/>
        <ellipse class="cls-2" cx="222.8" cy="55" rx="14.6" ry="10.1"/>
        <ellipse class="cls-2" cx="272.4" cy="55" rx="14.6" ry="10.1"/>
        <ellipse class="cls-2" cx="173.9" cy="55" rx="14.6" ry="10.1"/>
        <path class="cls-2" d="m180,135.5c.2-1.1.3-2.2.3-3.3,0-8.1-4.5-14.6-10.1-14.6s-8.1,4-9.5,9.6l19.3,8.3Z"/>
        <path class="cls-2" d="m252.4,123c0,8.1-4.5,13.3-10.1,13.3s-10.1-5.2-10.1-13.3,4.5-14.6,10.1-14.6,10.1,6.5,10.1,14.6Z"/>
        <path class="cls-2" d="m307.2,146.5c0,8.1-4.5,15.9-10.1,15.9s-10.1-6.5-10.1-14.6,4.5-15.9,10.1-15.9,10.1,6.5,10.1,14.6Z"/>
        <path class="cls-2" d="m279.9,134.3c0,8.1-4.5,15.9-10.1,15.9s-10.1-6.5-10.1-14.6,4.5-15.9,10.1-15.9,10.1,6.5,10.1,14.6Z"/>
      </g>
      <g>
        <path class="cls-4" d="m211,99l-81-34.2c-2.2-.9-4.6.7-4.6,3v44.3l76.6,33c4.1,1.8,6.8,5.9,6.8,10.4s-.3,3.1-.9,4.4c2.8,2.1,4.6,5.4,4.6,9.1v35.6h.2c2.2,1,4.6-.6,4.6-2.9v-92.9c0-4.2-2.5-8.1-6.4-9.7Z"/>
        <g>
          <path class="cls-4" d="m106.7,194.5l-83.8-36.1c-2.7-1.1-2.7-4.9,0-6l83.8-36.1c2.7-1.1,5.7-1.1,8.3,0l83.8,36.1c2.7,1.1,2.7,4.9,0,6l-83.8,36.1c-2.7,1.1-5.7,1.1-8.3,0Z"/>
          <path class="cls-4" d="m21.4,270.3l81,34.8c2.2.9,4.6-.7,4.6-3v-92.9c0-4.2-2.5-8.1-6.4-9.7l-81-34.2c-2.2-.9-4.6.7-4.6,3v92.4c0,4.2,2.5,8,6.4,9.7Z"/>
          <path class="cls-4" d="m198.3,269.7l-78.5,36c-2.2,1-4.6-.6-4.6-3v-93c0-4.2,2.5-8,6.3-9.7l78.4-34.1c2.2-.9,4.6.6,4.6,3v91.1c0,4.2-2.5,7.9-6.3,9.6Z"/>
          <ellipse class="cls-3" cx="59.7" cy="232.7" rx="10.1" ry="14.6"/>
          <path class="cls-3" d="m150.4,261.2c0,8.1-4.5,15.9-10.1,15.9s-10.1-6.5-10.1-14.6,4.5-15.9,10.1-15.9,10.1,6.5,10.1,14.6Z"/>
          <path class="cls-3" d="m190.2,208.4c0,8.1-4.5,13.3-10.1,13.3s-10.1-5.2-10.1-13.3,4.5-14.6,10.1-14.6,10.1,6.5,10.1,14.6Z"/>
          <ellipse class="cls-3" cx="112.4" cy="136.6" rx="14.6" ry="10.1"/>
          <ellipse class="cls-3" cx="112.4" cy="172.9" rx="14.6" ry="10.1"/>
          <ellipse class="cls-3" cx="162" cy="155.4" rx="14.6" ry="10.1"/>
          <ellipse class="cls-3" cx="63.5" cy="155.4" rx="14.6" ry="10.1"/>
        </g>
        <path class="cls-4" d="m217.1,94.1l-83.8-36.1c-2.7-1.1-2.7-4.9,0-6L217.1,15.9c2.7-1.1,5.7-1.1,8.3,0l83.8,36.1c2.7,1.1,2.7,4.9,0,6l-83.8,36.1c-2.7,1.1-5.7,1.1-8.3,0Z"/>
        <path class="cls-4" d="m308.7,169.2l-78.5,36c-2.2,1-4.6-.6-4.6-3v-93c0-4.2,2.5-8,6.3-9.7l78.4-34.1c2.2-.9,4.6.6,4.6,3v91.1c0,4.2-2.5,7.9-6.3,9.6Z"/>
        <path class="cls-3" d="m252.4,171.5c0,8.1-4.5,15.9-10.1,15.9s-10.1-6.5-10.1-14.6,4.5-15.9,10.1-15.9,10.1,6.5,10.1,14.6Z"/>
        <path class="cls-3" d="m307.2,99.2c0,8.1-4.5,13.3-10.1,13.3s-10.1-5.2-10.1-13.3,4.5-14.6,10.1-14.6,10.1,6.5,10.1,14.6Z"/>
        <ellipse class="cls-3" cx="222.8" cy="55" rx="14.6" ry="10.1"/>
        <ellipse class="cls-3" cx="272.4" cy="55" rx="14.6" ry="10.1"/>
        <ellipse class="cls-3" cx="173.9" cy="55" rx="14.6" ry="10.1"/>
        <path class="cls-3" d="m180,135.5c.2-1.1.3-2.2.3-3.3,0-8.1-4.5-14.6-10.1-14.6s-8.1,4-9.5,9.6l19.3,8.3Z"/>
        <path class="cls-3" d="m252.4,123c0,8.1-4.5,13.3-10.1,13.3s-10.1-5.2-10.1-13.3,4.5-14.6,10.1-14.6,10.1,6.5,10.1,14.6Z"/>
        <path class="cls-3" d="m307.2,146.5c0,8.1-4.5,15.9-10.1,15.9s-10.1-6.5-10.1-14.6,4.5-15.9,10.1-15.9,10.1,6.5,10.1,14.6Z"/>
        <path class="cls-3" d="m279.9,134.3c0,8.1-4.5,15.9-10.1,15.9s-10.1-6.5-10.1-14.6,4.5-15.9,10.1-15.9,10.1,6.5,10.1,14.6Z"/>
      </g>
    </g>
  </g>
</svg>