<?xml version="1.0" encoding="UTF-8"?>
<svg id="Layer_2" data-name="Layer 2" xmlns="http://www.w3.org/2000/svg" width="330" height="274.3" viewBox="0 0 330 274.3">
  <defs>
    <style>
      .cls-1 {
        fill: #bcbfd3;
        stroke: #bcbfd3;
      }

      .cls-1, .cls-2 {
        stroke-linecap: round;
        stroke-linejoin: round;
        stroke-width: 30px;
      }

      .cls-3, .cls-2 {
        fill: #fff;
      }

      .cls-4 {
        fill: #fcb84b;
      }

      .cls-5 {
        fill: #5876ba;
      }

      .cls-6 {
        fill: #f04b36;
      }

      .cls-2 {
        stroke: #fff;
      }
    </style>
  </defs>
  <g id="Grouped">
    <g>
      <g>
        <path class="cls-1" d="m228,90.8v-5.9c0-5.3-2.2-10.4-6.1-14.1l-42.6-40.1c-8.1-7.6-20.7-7.6-28.8,0l-42.6,40.1c-3.9,3.7-6.1,8.7-6.1,14.1v5.9H30c-8.3,0-15,6.7-15,15v138.5c0,8.3,6.7,15,15,15h270.1c8.3,0,15-6.7,15-15V105.8c0-8.3-6.7-15-15-15h-72Z"/>
        <g>
          <path class="cls-1" d="m237.3,80.4h68.6c5,0,8.2-5.2,6-9.7l-16.7-33.7c-2.7-5.4-8.2-8.8-14.2-8.8h-90.8l39,36.8c4.4,4.1,7.2,9.6,8.2,15.4Z"/>
          <path class="cls-1" d="m104.3,65l39-36.8H49c-6,0-11.5,3.4-14.2,8.8l-16.7,33.7c-2.2,4.4,1,9.7,6,9.7h72c1-5.8,3.8-11.3,8.2-15.4Z"/>
        </g>
        <path class="cls-1" d="m165,142.1h0c17.8,0,32.3,14.5,32.3,32.3v68.9c0,2.9-2.3,5.2-5.2,5.2h-54.2c-2.9,0-5.2-2.3-5.2-5.2v-68.9c0-17.8,14.5-32.3,32.3-32.3Z"/>
        <circle class="cls-1" cx="165" cy="98.3" r="23.4"/>
        <g>
          <g>
            <rect class="cls-1" x="34.5" y="164.8" width="32.2" height="46" rx="3.8" ry="3.8"/>
            <rect class="cls-1" x="79.6" y="164.8" width="32.2" height="46" rx="3.8" ry="3.8"/>
          </g>
          <g>
            <rect class="cls-1" x="218.2" y="164.8" width="32.2" height="46" rx="3.8" ry="3.8"/>
            <rect class="cls-1" x="263.3" y="164.8" width="32.2" height="46" rx="3.8" ry="3.8"/>
          </g>
        </g>
      </g>
      <g>
        <path class="cls-2" d="m228,80.8v-5.9c0-5.3-2.2-10.4-6.1-14.1l-42.6-40.1c-8.1-7.6-20.7-7.6-28.8,0l-42.6,40.1c-3.9,3.7-6.1,8.7-6.1,14.1v5.9H30c-8.3,0-15,6.7-15,15v138.5c0,8.3,6.7,15,15,15h270.1c8.3,0,15-6.7,15-15V95.8c0-8.3-6.7-15-15-15h-72Z"/>
        <g>
          <path class="cls-2" d="m237.3,70.4h68.6c5,0,8.2-5.2,6-9.7l-16.7-33.7c-2.7-5.4-8.2-8.8-14.2-8.8h-90.8l39,36.8c4.4,4.1,7.2,9.6,8.2,15.4Z"/>
          <path class="cls-2" d="m104.3,55l39-36.8H49c-6,0-11.5,3.4-14.2,8.8l-16.7,33.7c-2.2,4.4,1,9.7,6,9.7h72c1-5.8,3.8-11.3,8.2-15.4Z"/>
        </g>
        <path class="cls-2" d="m165,132.1h0c17.8,0,32.3,14.5,32.3,32.3v68.9c0,2.9-2.3,5.2-5.2,5.2h-54.2c-2.9,0-5.2-2.3-5.2-5.2v-68.9c0-17.8,14.5-32.3,32.3-32.3Z"/>
        <circle class="cls-2" cx="165" cy="88.3" r="23.4"/>
        <g>
          <g>
            <rect class="cls-2" x="34.5" y="154.8" width="32.2" height="46" rx="3.8" ry="3.8"/>
            <rect class="cls-2" x="79.6" y="154.8" width="32.2" height="46" rx="3.8" ry="3.8"/>
          </g>
          <g>
            <rect class="cls-2" x="218.2" y="154.8" width="32.2" height="46" rx="3.8" ry="3.8"/>
            <rect class="cls-2" x="263.3" y="154.8" width="32.2" height="46" rx="3.8" ry="3.8"/>
          </g>
        </g>
      </g>
      <g>
        <path class="cls-4" d="m228,80.8v-5.9c0-5.3-2.2-10.4-6.1-14.1l-42.6-40.1c-8.1-7.6-20.7-7.6-28.8,0l-42.6,40.1c-3.9,3.7-6.1,8.7-6.1,14.1v5.9H30c-8.3,0-15,6.7-15,15v138.5c0,8.3,6.7,15,15,15h270.1c8.3,0,15-6.7,15-15V95.8c0-8.3-6.7-15-15-15h-72Z"/>
        <g>
          <path class="cls-6" d="m237.3,70.4h68.6c5,0,8.2-5.2,6-9.7l-16.7-33.7c-2.7-5.4-8.2-8.8-14.2-8.8h-90.8l39,36.8c4.4,4.1,7.2,9.6,8.2,15.4Z"/>
          <path class="cls-6" d="m104.3,55l39-36.8H49c-6,0-11.5,3.4-14.2,8.8l-16.7,33.7c-2.2,4.4,1,9.7,6,9.7h72c1-5.8,3.8-11.3,8.2-15.4Z"/>
        </g>
        <path class="cls-6" d="m165,132.1h0c17.8,0,32.3,14.5,32.3,32.3v68.9c0,2.9-2.3,5.2-5.2,5.2h-54.2c-2.9,0-5.2-2.3-5.2-5.2v-68.9c0-17.8,14.5-32.3,32.3-32.3Z"/>
        <circle class="cls-3" cx="165" cy="88.3" r="23.4"/>
        <g>
          <g>
            <rect class="cls-5" x="34.5" y="154.8" width="32.2" height="46" rx="3.8" ry="3.8"/>
            <rect class="cls-5" x="79.6" y="154.8" width="32.2" height="46" rx="3.8" ry="3.8"/>
          </g>
          <g>
            <rect class="cls-5" x="218.2" y="154.8" width="32.2" height="46" rx="3.8" ry="3.8"/>
            <rect class="cls-5" x="263.3" y="154.8" width="32.2" height="46" rx="3.8" ry="3.8"/>
          </g>
        </g>
      </g>
    </g>
  </g>
</svg>