<?xml version="1.0" encoding="UTF-8"?>
<svg id="Layer_2" data-name="Layer 2" xmlns="http://www.w3.org/2000/svg" width="330" height="255.3" viewBox="0 0 330 255.3">
  <defs>
    <style>
      .cls-1 {
        fill: #bcbfd3;
        stroke: #bcbfd3;
      }

      .cls-1, .cls-2 {
        stroke-linecap: round;
        stroke-linejoin: round;
        stroke-width: 30px;
      }

      .cls-3 {
        fill: #fcb84b;
      }

      .cls-4 {
        fill: #5876ba;
      }

      .cls-5 {
        fill: #b1c5e6;
      }

      .cls-2 {
        fill: #fff;
        stroke: #fff;
      }

      .cls-6 {
        fill: #50555f;
      }
    </style>
  </defs>
  <g id="Grouped">
    <g>
      <g>
        <rect class="cls-1" x="15" y="25" width="300" height="215.3" rx="43.6" ry="43.6"/>
        <rect class="cls-1" x="15" y="62.9" width="300" height="38.2"/>
        <rect class="cls-1" x="226.2" y="149.7" width="54.8" height="54.8" rx="16.2" ry="16.2"/>
        <rect class="cls-1" x="42.4" y="126.2" width="105.4" height="16.3" rx="8.2" ry="8.2"/>
        <rect class="cls-1" x="42.4" y="154.1" width="52.7" height="16.3" rx="8.2" ry="8.2"/>
      </g>
      <g>
        <rect class="cls-2" x="15" y="15" width="300" height="215.3" rx="43.6" ry="43.6"/>
        <rect class="cls-2" x="15" y="52.9" width="300" height="38.2"/>
        <rect class="cls-2" x="226.2" y="139.7" width="54.8" height="54.8" rx="16.2" ry="16.2"/>
        <rect class="cls-2" x="42.4" y="116.2" width="105.4" height="16.3" rx="8.2" ry="8.2"/>
        <rect class="cls-2" x="42.4" y="144.1" width="52.7" height="16.3" rx="8.2" ry="8.2"/>
      </g>
      <g>
        <rect class="cls-4" x="15" y="15" width="300" height="215.3" rx="43.6" ry="43.6"/>
        <rect class="cls-6" x="15" y="52.9" width="300" height="38.2"/>
        <rect class="cls-3" x="226.2" y="139.7" width="54.8" height="54.8" rx="16.2" ry="16.2"/>
        <rect class="cls-5" x="42.4" y="116.2" width="105.4" height="16.3" rx="8.2" ry="8.2"/>
        <rect class="cls-5" x="42.4" y="144.1" width="52.7" height="16.3" rx="8.2" ry="8.2"/>
      </g>
    </g>
  </g>
</svg>