<?xml version="1.0" encoding="UTF-8"?>
<svg id="Layer_2" data-name="Layer 2" xmlns="http://www.w3.org/2000/svg" width="330" height="298.9" viewBox="0 0 330 298.9">
  <defs>
    <style>
      .cls-1 {
        fill: #bcbfd3;
        stroke: #bcbfd3;
      }

      .cls-1, .cls-2 {
        stroke-linecap: round;
        stroke-linejoin: round;
        stroke-width: 30px;
      }

      .cls-3 {
        fill: #5876ba;
      }

      .cls-4 {
        fill: #58b657;
      }

      .cls-2 {
        fill: #fff;
        stroke: #fff;
      }
    </style>
  </defs>
  <g id="Grouped">
    <g>
      <g>
        <polygon class="cls-1" points="109 25 15 53.3 15 283.9 109 255.6 109 25"/>
        <polygon class="cls-1" points="212 283.9 212 53.3 118 25 118 255.6 212 283.9"/>
        <polygon class="cls-1" points="315 255.6 315 25 221 53.3 221 283.9 315 255.6"/>
        <ellipse class="cls-1" cx="192.7" cy="85.3" rx="12.3" ry="17.6" transform="translate(-15.6 116.9) rotate(-32.5)"/>
        <g>
          <path class="cls-1" d="m100.6,160.9c-3.9-7.8-12.4-11.2-22.3-7.6-9.9,3.6-18.4,13.1-22.3,23.8l-19.3,7c-7.1,2.6-12.8,11-12.8,18.8v12.6c0,7.8,5.8,12,12.8,9.4l55.4-20.1c0,11.5,7.1,18.5,16.8,17.8v-64.7l-8.3,3Z"/>
          <path class="cls-1" d="m78.4,83.4v24c0,7.8,5.8,12,12.8,9.4l2.9-1c0,12,6,20.2,14.9,22.4V58.1l-17.8,6.5c-7.1,2.6-12.8,11-12.8,18.8Z"/>
        </g>
        <path class="cls-1" d="m206,133.2c-7.7-2.8-14,1.8-14,10.3s0,1.1,0,1.6l-1.3-.5c0,0-.2,0-.2,0-6.7-7.2-14.7-12.8-23.3-16-5.5-2-10.7-2.8-15.5-2.5,0-1,.1-2,.1-3.1,0-3-.4-5.9-1.1-8.9.2-.5.4-1.1.6-1.7,1.9,1.3,3.9,2.4,6.1,3.2,11.3,4.1,20.5-2.6,20.5-15s-9.2-25.8-20.5-29.9c-4.4-1.6-8.5-1.5-11.9-.1-1.9-2-4.2-3.5-6.6-4.4l-21.1-7.7v83.6c1.6.9,3.3,1.7,5,2.3,1.2.4,2.4.8,3.6,1.1-1.6,4.4-2.5,9.4-2.5,15l-6.1-2.2v65.2c10.8,2.1,19.1-5.1,19.1-17.4s-.5-5.7-1.3-8.5c0,0,0,0,0-.1,7.9,12,19,21.9,31.4,26.4,10.5,3.8,20.1,3.2,27.6-.9,1.3,6.7,6.4,13.2,12.5,15.4l4.6,1.7v-103c-1.8-1.6-3.8-2.8-5.9-3.6Z"/>
        <g>
          <path class="cls-1" d="m229.9,240.5h0c0,7.5,5.6,11.6,12.4,9.1h0c6.8-2.5,12.4-10.6,12.4-18.1h0c0-1.5-.2-2.9-.7-4.2l2.3-.9c7.1-2.6,12.8-11,12.8-18.8v-19.2c0-7.8-5.8-12-12.8-9.4l-23.5,8.6v-25.9c0-7.4-5.2-11.5-11.8-9.8v87.4l9.5-3.5c-.4,1.5-.7,3.1-.7,4.7Z"/>
          <path class="cls-1" d="m271.3,93.8l-2.2.8v-5.9c0-7.8-5.8-12-12.8-9.4l-10.7,3.9c-7.1,2.6-12.8,11-12.8,18.8v11.7c0,7.8,5.8,12,12.8,9.4l5.5-2c.8,6.6,6.2,10,12.7,7.7l7.5-2.7c7.1-2.6,12.8-11,12.8-18.8v-4c0-7.8-5.8-12-12.8-9.4Z"/>
        </g>
      </g>
      <g>
        <polygon class="cls-2" points="109 15 15 43.3 15 273.9 109 245.6 109 15"/>
        <polygon class="cls-2" points="212 273.9 212 43.3 118 15 118 245.6 212 273.9"/>
        <polygon class="cls-2" points="315 245.6 315 15 221 43.3 221 273.9 315 245.6"/>
        <ellipse class="cls-2" cx="192.7" cy="75.3" rx="12.3" ry="17.6" transform="translate(-10.3 115.3) rotate(-32.5)"/>
        <g>
          <path class="cls-2" d="m100.6,150.9c-3.9-7.8-12.4-11.2-22.3-7.6-9.9,3.6-18.4,13.1-22.3,23.8l-19.3,7c-7.1,2.6-12.8,11-12.8,18.8v12.6c0,7.8,5.8,12,12.8,9.4l55.4-20.1c0,11.5,7.1,18.5,16.8,17.8v-64.7l-8.3,3Z"/>
          <path class="cls-2" d="m78.4,73.4v24c0,7.8,5.8,12,12.8,9.4l2.9-1c0,12,6,20.2,14.9,22.4V48.1l-17.8,6.5c-7.1,2.6-12.8,11-12.8,18.8Z"/>
        </g>
        <path class="cls-2" d="m206,123.1c-7.7-2.8-14,1.8-14,10.3s0,1.1,0,1.6l-1.3-.5c0,0-.2,0-.2,0-6.7-7.2-14.7-12.8-23.3-16-5.5-2-10.7-2.8-15.5-2.5,0-1,.1-2,.1-3.1,0-3-.4-5.9-1.1-8.9.2-.5.4-1.1.6-1.7,1.9,1.3,3.9,2.4,6.1,3.2,11.3,4.1,20.5-2.6,20.5-15s-9.2-25.8-20.5-29.9c-4.4-1.6-8.5-1.5-11.9-.1-1.9-2-4.2-3.5-6.6-4.4l-21.1-7.7v83.6c1.6.9,3.3,1.7,5,2.3,1.2.4,2.4.8,3.6,1.1-1.6,4.4-2.5,9.4-2.5,15l-6.1-2.2v65.2c10.8,2.1,19.1-5.1,19.1-17.4s-.5-5.7-1.3-8.5c0,0,0,0,0-.1,7.9,12,19,21.9,31.4,26.4,10.5,3.8,20.1,3.2,27.6-.9,1.3,6.7,6.4,13.2,12.5,15.4l4.6,1.7v-103c-1.8-1.6-3.8-2.8-5.9-3.6Z"/>
        <g>
          <path class="cls-2" d="m229.9,230.5h0c0,7.5,5.6,11.6,12.4,9.1h0c6.8-2.5,12.4-10.6,12.4-18.1h0c0-1.5-.2-2.9-.7-4.2l2.3-.9c7.1-2.6,12.8-11,12.8-18.8v-19.2c0-7.8-5.8-12-12.8-9.4l-23.5,8.6v-25.9c0-7.4-5.2-11.5-11.8-9.8v87.4l9.5-3.5c-.4,1.5-.7,3.1-.7,4.7Z"/>
          <path class="cls-2" d="m271.3,83.8l-2.2.8v-5.9c0-7.8-5.8-12-12.8-9.4l-10.7,3.9c-7.1,2.6-12.8,11-12.8,18.8v11.7c0,7.8,5.8,12,12.8,9.4l5.5-2c.8,6.6,6.2,10,12.7,7.7l7.5-2.7c7.1-2.6,12.8-11,12.8-18.8v-4c0-7.8-5.8-12-12.8-9.4Z"/>
        </g>
      </g>
      <g>
        <polygon class="cls-3" points="109 15 15 43.3 15 273.9 109 245.6 109 15"/>
        <polygon class="cls-3" points="212 273.9 212 43.3 118 15 118 245.6 212 273.9"/>
        <polygon class="cls-3" points="315 245.6 315 15 221 43.3 221 273.9 315 245.6"/>
        <ellipse class="cls-4" cx="192.7" cy="75.3" rx="12.3" ry="17.6" transform="translate(-10.3 115.3) rotate(-32.5)"/>
        <g>
          <path class="cls-4" d="m100.6,150.9c-3.9-7.8-12.4-11.2-22.3-7.6-9.9,3.6-18.4,13.1-22.3,23.8l-19.3,7c-7.1,2.6-12.8,11-12.8,18.8v12.6c0,7.8,5.8,12,12.8,9.4l55.4-20.1c0,11.5,7.1,18.5,16.8,17.8v-64.7l-8.3,3Z"/>
          <path class="cls-4" d="m78.4,73.4v24c0,7.8,5.8,12,12.8,9.4l2.9-1c0,12,6,20.2,14.9,22.4V48.1l-17.8,6.5c-7.1,2.6-12.8,11-12.8,18.8Z"/>
        </g>
        <path class="cls-4" d="m206,123.1c-7.7-2.8-14,1.8-14,10.3s0,1.1,0,1.6l-1.3-.5c0,0-.2,0-.2,0-6.7-7.2-14.7-12.8-23.3-16-5.5-2-10.7-2.8-15.5-2.5,0-1,.1-2,.1-3.1,0-3-.4-5.9-1.1-8.9.2-.5.4-1.1.6-1.7,1.9,1.3,3.9,2.4,6.1,3.2,11.3,4.1,20.5-2.6,20.5-15s-9.2-25.8-20.5-29.9c-4.4-1.6-8.5-1.5-11.9-.1-1.9-2-4.2-3.5-6.6-4.4l-21.1-7.7v83.6c1.6.9,3.3,1.7,5,2.3,1.2.4,2.4.8,3.6,1.1-1.6,4.4-2.5,9.4-2.5,15l-6.1-2.2v65.2c10.8,2.1,19.1-5.1,19.1-17.4s-.5-5.7-1.3-8.5c0,0,0,0,0-.1,7.9,12,19,21.9,31.4,26.4,10.5,3.8,20.1,3.2,27.6-.9,1.3,6.7,6.4,13.2,12.5,15.4l4.6,1.7v-103c-1.8-1.6-3.8-2.8-5.9-3.6Z"/>
        <g>
          <path class="cls-4" d="m229.9,230.5h0c0,7.5,5.6,11.6,12.4,9.1h0c6.8-2.5,12.4-10.6,12.4-18.1h0c0-1.5-.2-2.9-.7-4.2l2.3-.9c7.1-2.6,12.8-11,12.8-18.8v-19.2c0-7.8-5.8-12-12.8-9.4l-23.5,8.6v-25.9c0-7.4-5.2-11.5-11.8-9.8v87.4l9.5-3.5c-.4,1.5-.7,3.1-.7,4.7Z"/>
          <path class="cls-4" d="m271.3,83.8l-2.2.8v-5.9c0-7.8-5.8-12-12.8-9.4l-10.7,3.9c-7.1,2.6-12.8,11-12.8,18.8v11.7c0,7.8,5.8,12,12.8,9.4l5.5-2c.8,6.6,6.2,10,12.7,7.7l7.5-2.7c7.1-2.6,12.8-11,12.8-18.8v-4c0-7.8-5.8-12-12.8-9.4Z"/>
        </g>
      </g>
    </g>
  </g>
</svg>