<?xml version="1.0" encoding="UTF-8"?>
<svg id="Layer_2" data-name="Layer 2" xmlns="http://www.w3.org/2000/svg" width="330" height="340" viewBox="0 0 330 340">
  <defs>
    <style>
      .cls-1 {
        fill: #bcbfd3;
        stroke: #bcbfd3;
      }

      .cls-1, .cls-2 {
        stroke-linecap: round;
        stroke-linejoin: round;
        stroke-width: 30px;
      }

      .cls-3 {
        fill: #f04b36;
      }

      .cls-4 {
        fill: #b1c5e6;
      }

      .cls-2 {
        fill: #fff;
        stroke: #fff;
      }

      .cls-5 {
        fill: #50555f;
      }
    </style>
  </defs>
  <g id="Grouped">
    <g>
      <g>
        <path class="cls-1" d="m165,46.1c34.4,0,66.8,13.4,91.2,37.8,24.4,24.4,37.8,56.7,37.8,91.2s-13.4,66.8-37.8,91.2c-24.4,24.4-56.7,37.8-91.2,37.8s-66.8-13.4-91.2-37.8c-24.4-24.4-37.8-56.7-37.8-91.2s13.4-66.8,37.8-91.2c24.4-24.4,56.7-37.8,91.2-37.8m0-21.1C82.2,25,15,92.2,15,175s67.2,150,150,150,150-67.2,150-150S247.8,25,165,25h0Z"/>
        <g>
          <g>
            <path class="cls-1" d="m127.6,158.1l65.5-67.2c6.4-6.6,17.6-1.5,16.8,7.7l-7.7,93.5-74.7-34Z"/>
            <path class="cls-1" d="m202.4,191.9l-65.5,67.2c-6.4,6.6-17.6,1.5-16.8-7.7l7.7-93.5,74.7,34Z"/>
          </g>
          <circle class="cls-1" cx="165" cy="175" r="19.6"/>
        </g>
      </g>
      <g>
        <path class="cls-2" d="m165,36.1c34.4,0,66.8,13.4,91.2,37.8,24.4,24.4,37.8,56.7,37.8,91.2s-13.4,66.8-37.8,91.2c-24.4,24.4-56.7,37.8-91.2,37.8s-66.8-13.4-91.2-37.8c-24.4-24.4-37.8-56.7-37.8-91.2s13.4-66.8,37.8-91.2c24.4-24.4,56.7-37.8,91.2-37.8m0-21.1C82.2,15,15,82.2,15,165s67.2,150,150,150,150-67.2,150-150S247.8,15,165,15h0Z"/>
        <g>
          <g>
            <path class="cls-2" d="m127.6,148.1l65.5-67.2c6.4-6.6,17.6-1.5,16.8,7.7l-7.7,93.5-74.7-34Z"/>
            <path class="cls-2" d="m202.4,181.9l-65.5,67.2c-6.4,6.6-17.6,1.5-16.8-7.7l7.7-93.5,74.7,34Z"/>
          </g>
          <circle class="cls-2" cx="165" cy="165" r="19.6"/>
        </g>
      </g>
      <g>
        <path class="cls-5" d="m165,36.1c34.4,0,66.8,13.4,91.2,37.8,24.4,24.4,37.8,56.7,37.8,91.2s-13.4,66.8-37.8,91.2c-24.4,24.4-56.7,37.8-91.2,37.8s-66.8-13.4-91.2-37.8c-24.4-24.4-37.8-56.7-37.8-91.2s13.4-66.8,37.8-91.2c24.4-24.4,56.7-37.8,91.2-37.8m0-21.1C82.2,15,15,82.2,15,165s67.2,150,150,150,150-67.2,150-150S247.8,15,165,15h0Z"/>
        <g>
          <g>
            <path class="cls-3" d="m127.6,148.1l65.5-67.2c6.4-6.6,17.6-1.5,16.8,7.7l-7.7,93.5-74.7-34Z"/>
            <path class="cls-5" d="m202.4,181.9l-65.5,67.2c-6.4,6.6-17.6,1.5-16.8-7.7l7.7-93.5,74.7,34Z"/>
          </g>
          <circle class="cls-4" cx="165" cy="165" r="19.6"/>
        </g>
      </g>
    </g>
  </g>
</svg>