<?xml version="1.0" encoding="UTF-8"?>
<svg id="Layer_2" data-name="Layer 2" xmlns="http://www.w3.org/2000/svg" width="330" height="233.1" viewBox="0 0 330 233.1">
  <defs>
    <style>
      .cls-1 {
        fill: #bcbfd3;
        stroke: #bcbfd3;
      }

      .cls-1, .cls-2 {
        stroke-width: 30px;
      }

      .cls-1, .cls-2, .cls-3 {
        stroke-linecap: round;
        stroke-linejoin: round;
      }

      .cls-4 {
        fill: #5876ba;
      }

      .cls-5 {
        fill: #f04b36;
      }

      .cls-6 {
        fill: #b1c5e6;
      }

      .cls-7 {
        fill: #5776ba;
      }

      .cls-2 {
        fill: #fff;
        stroke: #fff;
      }

      .cls-8 {
        fill: #50555f;
      }

      .cls-3 {
        fill: none;
        stroke: #f04b36;
        stroke-width: 17.2px;
      }
    </style>
  </defs>
  <g id="Grouped">
    <g>
      <g>
        <path class="cls-1" d="m255.2,109.7l-19.5-7.4-.4-.5v-.2c.1,0-.4-.3-.4-.3l-43-54.5c-5.7-7.2-16.1-8.4-23.3-2.7l-12.4,9.8c-1.9,1.5-3.3,3.3-4.4,5.3-20.7,1.5-41.9-10.9-63.4-32.3-9.4-4.3-20.5-1-26,7.8l-16.2,33.7-21.9,28.1c-5.7,12.7,0,27.6,12.7,33.3l152,68h0c0,0,102.9,0,102.9,0,12.8,0,23.1-10.4,23.1-23.1v-7.6c0-33-23.9-47.4-59.8-57.5Z"/>
        <path class="cls-1" d="m298.8,218.1h-114.4l-1.2-.5L18.7,144c-3.2-1.4-4.6-5.1-3.2-8.3,1.4-3.2,5.1-4.6,8.3-3.2l163.3,73h111.7c3.5,0,6.2,2.8,6.2,6.2s-2.8,6.2-6.2,6.2Z"/>
        <line class="cls-1" x1="137.9" y1="152.5" x2="39.8" y2="107"/>
        <line class="cls-1" x1="110.8" y1="106.2" x2="57.3" y2="82.3"/>
        <path class="cls-1" d="m291.9,198c12.8,0,23.1-10.4,23.1-23.1v-7.6c0-26.9-15.9-41.4-41.1-51.3-44.3,4.8-81.9,33.9-92.1,76.1-.2.8-.4,1.6-.6,2.5l7.7,3.5h0c0,0,102.9,0,102.9,0Z"/>
        <g>
          <path class="cls-1" d="m57.1,45.8l-10.9,22.6-21.9,28.1c-5.7,12.7,0,27.6,12.7,33.3l35.9,16.1c4.3-29.4-7.4-73.6-15.8-100.2Z"/>
          <path class="cls-1" d="m232.1,97.9l-40.3-51c-5.7-7.2-16.1-8.4-23.3-2.7l-12.4,9.8c-1.7,1.4-3.1,3-4.1,4.8,33.3,32.8,64.5,38.6,80,39.2Z"/>
          <path class="cls-1" d="m245,198h46.8c12.8,0,23.1-10.4,23.1-23.1v-5.9c-15.6,11.2-42.7,21.1-70,29.1Z"/>
        </g>
        <rect class="cls-1" x="183" y="47.2" width="16" height="46.8" rx="6.8" ry="6.8" transform="translate(185.2 -133) rotate(68.1)"/>
        <rect class="cls-1" x="204.1" y="70.8" width="16" height="46.8" rx="6.8" ry="6.8" transform="translate(220.4 -137.7) rotate(68.1)"/>
      </g>
      <g>
        <path class="cls-2" d="m255.2,99.7l-19.5-7.4-.4-.5v-.2c.1,0-.4-.3-.4-.3l-43-54.5c-5.7-7.2-16.1-8.4-23.3-2.7l-12.4,9.8c-1.9,1.5-3.3,3.3-4.4,5.3-20.7,1.5-41.9-10.9-63.4-32.3-9.4-4.3-20.5-1-26,7.8l-16.2,33.7-21.9,28.1c-5.7,12.7,0,27.6,12.7,33.3l152,68h0c0,0,102.9,0,102.9,0,12.8,0,23.1-10.4,23.1-23.1v-7.6c0-33-23.9-47.4-59.8-57.5Z"/>
        <path class="cls-2" d="m298.8,208.1h-114.4l-1.2-.5L18.7,134c-3.2-1.4-4.6-5.1-3.2-8.3,1.4-3.2,5.1-4.6,8.3-3.2l163.3,73h111.7c3.5,0,6.2,2.8,6.2,6.2s-2.8,6.2-6.2,6.2Z"/>
        <line class="cls-2" x1="137.9" y1="142.5" x2="39.8" y2="97"/>
        <line class="cls-2" x1="110.8" y1="96.2" x2="57.3" y2="72.3"/>
        <path class="cls-2" d="m291.9,188c12.8,0,23.1-10.4,23.1-23.1v-7.6c0-26.9-15.9-41.4-41.1-51.3-44.3,4.8-81.9,33.9-92.1,76.1-.2.8-.4,1.6-.6,2.5l7.7,3.5h0c0,0,102.9,0,102.9,0Z"/>
        <g>
          <path class="cls-2" d="m57.1,35.8l-10.9,22.6-21.9,28.1c-5.7,12.7,0,27.6,12.7,33.3l35.9,16.1c4.3-29.4-7.4-73.6-15.8-100.2Z"/>
          <path class="cls-2" d="m232.1,87.9l-40.3-51c-5.7-7.2-16.1-8.4-23.3-2.7l-12.4,9.8c-1.7,1.4-3.1,3-4.1,4.8,33.3,32.8,64.5,38.6,80,39.2Z"/>
          <path class="cls-2" d="m245,188h46.8c12.8,0,23.1-10.4,23.1-23.1v-5.9c-15.6,11.2-42.7,21.1-70,29.1Z"/>
        </g>
        <rect class="cls-2" x="183" y="37.1" width="16" height="46.8" rx="6.8" ry="6.8" transform="translate(175.9 -139.2) rotate(68.1)"/>
        <rect class="cls-2" x="204.1" y="60.8" width="16" height="46.8" rx="6.8" ry="6.8" transform="translate(211.1 -144) rotate(68.1)"/>
      </g>
      <g>
        <path class="cls-6" d="m255.2,99.7l-19.5-7.4-.4-.5v-.2c.1,0-.4-.3-.4-.3l-43-54.5c-5.7-7.2-16.1-8.4-23.3-2.7l-12.4,9.8c-1.9,1.5-3.3,3.3-4.4,5.3-20.7,1.5-41.9-10.9-63.4-32.3-9.4-4.3-20.5-1-26,7.8l-16.2,33.7-21.9,28.1c-5.7,12.7,0,27.6,12.7,33.3l152,68h0c0,0,102.9,0,102.9,0,12.8,0,23.1-10.4,23.1-23.1v-7.6c0-33-23.9-47.4-59.8-57.5Z"/>
        <path class="cls-4" d="m298.8,208.1h-114.4l-1.2-.5L18.7,134c-3.2-1.4-4.6-5.1-3.2-8.3,1.4-3.2,5.1-4.6,8.3-3.2l163.3,73h111.7c3.5,0,6.2,2.8,6.2,6.2s-2.8,6.2-6.2,6.2Z"/>
        <line class="cls-3" x1="137.9" y1="142.5" x2="39.8" y2="97"/>
        <line class="cls-3" x1="110.8" y1="96.2" x2="57.3" y2="72.3"/>
        <path class="cls-5" d="m291.9,188c12.8,0,23.1-10.4,23.1-23.1v-7.6c0-26.9-15.9-41.4-41.1-51.3-44.3,4.8-81.9,33.9-92.1,76.1-.2.8-.4,1.6-.6,2.5l7.7,3.5h0c0,0,102.9,0,102.9,0Z"/>
        <g>
          <path class="cls-7" d="m57.1,35.8l-10.9,22.6-21.9,28.1c-5.7,12.7,0,27.6,12.7,33.3l35.9,16.1c4.3-29.4-7.4-73.6-15.8-100.2Z"/>
          <path class="cls-7" d="m232.1,87.9l-40.3-51c-5.7-7.2-16.1-8.4-23.3-2.7l-12.4,9.8c-1.7,1.4-3.1,3-4.1,4.8,33.3,32.8,64.5,38.6,80,39.2Z"/>
          <path class="cls-7" d="m245,188h46.8c12.8,0,23.1-10.4,23.1-23.1v-5.9c-15.6,11.2-42.7,21.1-70,29.1Z"/>
        </g>
        <rect class="cls-8" x="183" y="37.1" width="16" height="46.8" rx="6.8" ry="6.8" transform="translate(175.9 -139.2) rotate(68.1)"/>
        <rect class="cls-8" x="204.1" y="60.8" width="16" height="46.8" rx="6.8" ry="6.8" transform="translate(211.1 -144) rotate(68.1)"/>
      </g>
    </g>
  </g>
</svg>