<?xml version="1.0" encoding="UTF-8"?>
<svg id="Layer_2" data-name="Layer 2" xmlns="http://www.w3.org/2000/svg" width="330" height="310.6" viewBox="0 0 330 310.6">
  <defs>
    <style>
      .cls-1 {
        fill: #bcbfd3;
        stroke: #bcbfd3;
      }

      .cls-1, .cls-2 {
        stroke-linecap: round;
        stroke-linejoin: round;
        stroke-width: 30px;
      }

      .cls-3 {
        fill: #747f93;
      }

      .cls-2 {
        fill: #fff;
        stroke: #fff;
      }

      .cls-4 {
        fill: #50555f;
      }
    </style>
  </defs>
  <g id="Grouped">
    <g>
      <g>
        <path class="cls-1" d="m312.2,62.9c-2.2-2.5-5.3-3.9-8.6-3.9H80.3l-6.3-19.2c-1.3-3.9-4.6-6.8-8.7-7.6l-36.8-7c-6.2-1.2-12.1,2.9-13.3,9-1.2,6.2,2.9,12.1,9,13.3l30.2,5.7,5.4,16.6,47.2,143.9,5.4,16.4c1.5,4.7,5.9,7.8,10.8,7.8h151.4c6.3,0,11.4-5.1,11.4-11.4s-5.1-11.4-11.4-11.4h-143.2l-1.1-3.5,158-14.4c5.3-.4,9.6-4.5,10.3-9.8l16.2-115.8c.5-3.3-.5-6.5-2.7-9Z"/>
        <circle class="cls-1" cx="138.2" cy="270.4" r="25.2" transform="translate(-164.6 294.6) rotate(-67.5)"/>
        <circle class="cls-1" cx="259.6" cy="270.4" r="25.2"/>
      </g>
      <g>
        <path class="cls-2" d="m312.2,52.9c-2.2-2.5-5.3-3.9-8.6-3.9H80.3l-6.3-19.2c-1.3-3.9-4.6-6.8-8.7-7.6l-36.8-7c-6.2-1.2-12.1,2.9-13.3,9-1.2,6.2,2.9,12.1,9,13.3l30.2,5.7,5.4,16.6,47.2,143.9,5.4,16.4c1.5,4.7,5.9,7.8,10.8,7.8h151.4c6.3,0,11.4-5.1,11.4-11.4s-5.1-11.4-11.4-11.4h-143.2l-1.1-3.5,158-14.4c5.3-.4,9.6-4.5,10.3-9.8l16.2-115.8c.5-3.3-.5-6.5-2.7-9Z"/>
        <circle class="cls-2" cx="138.2" cy="260.4" r="25.2" transform="translate(-155.3 288.4) rotate(-67.5)"/>
        <circle class="cls-2" cx="259.6" cy="260.4" r="25.2"/>
      </g>
      <g>
        <path class="cls-3" d="m312.2,52.9c-2.2-2.5-5.3-3.9-8.6-3.9H80.3l-6.3-19.2c-1.3-3.9-4.6-6.8-8.7-7.6l-36.8-7c-6.2-1.2-12.1,2.9-13.3,9-1.2,6.2,2.9,12.1,9,13.3l30.2,5.7,5.4,16.6,47.2,143.9,5.4,16.4c1.5,4.7,5.9,7.8,10.8,7.8h151.4c6.3,0,11.4-5.1,11.4-11.4s-5.1-11.4-11.4-11.4h-143.2l-1.1-3.5,158-14.4c5.3-.4,9.6-4.5,10.3-9.8l16.2-115.8c.5-3.3-.5-6.5-2.7-9Z"/>
        <circle class="cls-4" cx="138.2" cy="260.4" r="25.2" transform="translate(-155.3 288.4) rotate(-67.5)"/>
        <circle class="cls-4" cx="259.6" cy="260.4" r="25.2"/>
      </g>
    </g>
  </g>
</svg>