<?xml version="1.0" encoding="UTF-8"?>
<svg id="Layer_2" data-name="Layer 2" xmlns="http://www.w3.org/2000/svg" width="330" height="313.8" viewBox="0 0 330 313.8">
  <defs>
    <style>
      .cls-1 {
        fill: #bcbfd3;
        stroke: #bcbfd3;
      }

      .cls-1, .cls-2 {
        stroke-linecap: round;
        stroke-linejoin: round;
        stroke-width: 30px;
      }

      .cls-3 {
        fill: #fcb84b;
      }

      .cls-4 {
        fill: #f04b36;
      }

      .cls-2 {
        fill: #fff;
        stroke: #fff;
      }
    </style>
  </defs>
  <g id="Grouped">
    <g>
      <g>
        <path class="cls-1" d="m287.1,96.6c2.1-2.3,1.9-5.2,1.1-7-.8-1.9-2.8-3.9-6-3.9h-16l1.2-2.8,17.8-40.6c1.5-4,.9-8.3-1.5-11.7-2.4-3.5-6.3-5.5-10.5-5.5h-48.5c-5.8,0-10.9,3.9-12.4,9.5l-17.9,62.4c-1,3.9-.2,7.9,2.2,11.1,2.4,3.2,6.2,5,10.2,5h11l-.3,2.3-7.1,48.9c-.4,2.5.6,4.2,1.4,5.2,1.3,1.5,3.2,2.3,5.1,2.3s3.1-.4,4.8-2.2l65.3-73Z"/>
        <path class="cls-1" d="m292.2,69.7h0c-1.8-1.8-3.7-3.6-5.7-5.2l-4.9,11.1h.7c6.6,0,12.4,3.7,15.1,9.8,2.7,6,1.6,12.8-2.8,17.8l-65.3,73c-3.2,3.6-7.5,5.5-12.2,5.5s-9.5-2.1-12.7-5.8c-3.1-3.6-4.5-8.3-3.8-13.1l5.8-39.8c-7-.2-13.4-3.4-17.6-8.9-4.4-5.7-5.8-12.9-3.9-19.8h0c0,0,0-.1,0-.1l10-34.8c-4.6,3-8.9,6.4-12.9,10.4l-16.9,16.9-16.9-16.9c-30.4-30.4-79.8-30.4-110.2,0h0c-30.4,30.4-30.4,79.8,0,110.2l16.9,16.9,96.1,96.1c7.8,7.8,20.5,7.8,28.3,0l96.1-96.1,16.9-16.9c30.4-30.4,30.4-79.8,0-110.2Z"/>
      </g>
      <g>
        <path class="cls-2" d="m287.1,86.5c2.1-2.3,1.9-5.2,1.1-7-.8-1.9-2.8-3.9-6-3.9h-16l1.2-2.8,17.8-40.6c1.5-4,.9-8.3-1.5-11.7-2.4-3.5-6.3-5.5-10.5-5.5h-48.5c-5.8,0-10.9,3.9-12.4,9.5l-17.9,62.4c-1,3.9-.2,7.9,2.2,11.1,2.4,3.2,6.2,5,10.2,5h11l-.3,2.3-7.1,48.9c-.4,2.5.6,4.2,1.4,5.2,1.3,1.5,3.2,2.3,5.1,2.3s3.1-.4,4.8-2.2l65.3-73Z"/>
        <path class="cls-2" d="m292.2,59.7h0c-1.8-1.8-3.7-3.6-5.7-5.2l-4.9,11.1h.7c6.6,0,12.4,3.7,15.1,9.8,2.7,6,1.6,12.8-2.8,17.8l-65.3,73c-3.2,3.6-7.5,5.5-12.2,5.5s-9.5-2.1-12.7-5.8c-3.1-3.6-4.5-8.3-3.8-13.1l5.8-39.8c-7-.2-13.4-3.4-17.6-8.9-4.4-5.7-5.8-12.9-3.9-19.8h0c0,0,0-.1,0-.1l10-34.8c-4.6,3-8.9,6.4-12.9,10.4l-16.9,16.9-16.9-16.9c-30.4-30.4-79.8-30.4-110.2,0h0c-30.4,30.4-30.4,79.8,0,110.2l16.9,16.9,96.1,96.1c7.8,7.8,20.5,7.8,28.3,0l96.1-96.1,16.9-16.9c30.4-30.4,30.4-79.8,0-110.2Z"/>
      </g>
      <g>
        <path class="cls-3" d="m287.1,86.5c2.1-2.3,1.9-5.2,1.1-7-.8-1.9-2.8-3.9-6-3.9h-16l1.2-2.8,17.8-40.6c1.5-4,.9-8.3-1.5-11.7-2.4-3.5-6.3-5.5-10.5-5.5h-48.5c-5.8,0-10.9,3.9-12.4,9.5l-17.9,62.4c-1,3.9-.2,7.9,2.2,11.1,2.4,3.2,6.2,5,10.2,5h11l-.3,2.3-7.1,48.9c-.4,2.5.6,4.2,1.4,5.2,1.3,1.5,3.2,2.3,5.1,2.3s3.1-.4,4.8-2.2l65.3-73Z"/>
        <path class="cls-4" d="m292.2,59.7h0c-1.8-1.8-3.7-3.6-5.7-5.2l-4.9,11.1h.7c6.6,0,12.4,3.7,15.1,9.8,2.7,6,1.6,12.8-2.8,17.8l-65.3,73c-3.2,3.6-7.5,5.5-12.2,5.5s-9.5-2.1-12.7-5.8c-3.1-3.6-4.5-8.3-3.8-13.1l5.8-39.8c-7-.2-13.4-3.4-17.6-8.9-4.4-5.7-5.8-12.9-3.9-19.8h0c0,0,0-.1,0-.1l10-34.8c-4.6,3-8.9,6.4-12.9,10.4l-16.9,16.9-16.9-16.9c-30.4-30.4-79.8-30.4-110.2,0h0c-30.4,30.4-30.4,79.8,0,110.2l16.9,16.9,96.1,96.1c7.8,7.8,20.5,7.8,28.3,0l96.1-96.1,16.9-16.9c30.4-30.4,30.4-79.8,0-110.2Z"/>
      </g>
    </g>
  </g>
</svg>