<?xml version="1.0" encoding="UTF-8"?>
<svg id="Layer_2" data-name="Layer 2" xmlns="http://www.w3.org/2000/svg" width="164.2" height="340" viewBox="0 0 164.2 340">
  <defs>
    <style>
      .cls-1 {
        stroke: #bcbfd3;
      }

      .cls-1, .cls-2 {
        fill: #bcbfd3;
      }

      .cls-1, .cls-3 {
        stroke-linecap: round;
        stroke-linejoin: round;
        stroke-width: 30px;
      }

      .cls-4, .cls-3 {
        fill: #fff;
      }

      .cls-5 {
        opacity: .2;
      }

      .cls-5, .cls-6 {
        fill: #b1c5e6;
      }

      .cls-7 {
        fill: #5876ba;
      }

      .cls-3 {
        stroke: #fff;
      }
    </style>
  </defs>
  <g id="Grouped">
    <g>
      <g>
        <path class="cls-1" d="m18.3,297.2c-.3-1.1-.6-2.3-.9-3.4.3,1.2.6,2.3.9,3.4Z"/>
        <path class="cls-1" d="m16.4,257.9c.2-1.3.5-2.6.8-3.8-.3,1.3-.5,2.5-.8,3.8Z"/>
        <path class="cls-1" d="m18.5,248.9c.7-2.3,1.5-4.6,2.3-6.8-.9,2.2-1.6,4.5-2.3,6.8Z"/>
        <path class="cls-1" d="m17.4,252.9c.3-1.4.7-2.7,1.1-4.1-.4,1.3-.8,2.7-1.1,4.1Z"/>
        <path class="cls-1" d="m17.2,292.6c-.3-1.3-.5-2.5-.8-3.8.2,1.3.5,2.6.8,3.8Z"/>
        <path class="cls-1" d="m15,273.3h0c0-.9,0-1.7,0-2.6,0,.8,0,1.7,0,2.6Z"/>
        <path class="cls-1" d="m15,270.8c0-1.7.1-3.4.3-5.1-.1,1.7-.2,3.4-.3,5.1Z"/>
        <path class="cls-1" d="m15,146.9h0c0-3.4.2-6.8.6-10.1-.4,3.3-.6,6.7-.6,10.1Z"/>
        <path class="cls-1" d="m15.6,136.8c.2-1.7.4-3.3.7-4.9-.3,1.6-.5,3.3-.7,4.9Z"/>
        <path class="cls-1" d="m18.3,170.7c-.3-1.1-.6-2.3-.9-3.4.3,1.2.6,2.3.9,3.4Z"/>
        <path class="cls-1" d="m17.2,166.1c-.3-1.3-.5-2.5-.8-3.8.2,1.3.5,2.6.8,3.8Z"/>
        <path class="cls-1" d="m20.9,178.1c-.8-2-1.5-4-2.1-6,.6,2.1,1.3,4.1,2.1,6Z"/>
        <path class="cls-1" d="m144.9,246.6c.5,1.5,1,3.1,1.4,4.6-.4-1.6-.9-3.1-1.4-4.6Z"/>
        <path class="cls-1" d="m20.9,304.6c-.8-2-1.5-4-2.1-6,.6,2.1,1.3,4.1,2.1,6Z"/>
        <path class="cls-1" d="m139.5,312.7c-.9,1.5-2,2.9-3.2,4.2,1.2-1.3,2.2-2.7,3.2-4.2Z"/>
        <path class="cls-1" d="m147.4,255.9c.3,1.6.6,3.2.9,4.9-.2-1.6-.5-3.3-.9-4.9Z"/>
        <path class="cls-1" d="m136.4,316.9c-.4.4-.8.8-1.2,1.2.4-.4.8-.8,1.2-1.2Z"/>
        <path class="cls-1" d="m148.3,260.8c.2,1.6.4,3.3.6,5-.1-1.7-.3-3.3-.6-5Z"/>
        <path class="cls-1" d="m149.2,273.3c0-1.7,0-3.4-.1-5.1,0,1.7.1,3.4.1,5.1h0Z"/>
        <path class="cls-1" d="m46.5,325h0c-3,0-5.9-.5-8.6-1.5,2.7,1,5.7,1.5,8.6,1.5Z"/>
        <path class="cls-1" d="m135,318.3c-1.5,1.3-3.1,2.5-4.8,3.5,1.7-1,3.3-2.1,4.8-3.5Z"/>
        <path class="cls-1" d="m37.9,323.5c-1.6-.6-3.2-1.3-4.7-2.2,1.5.9,3.1,1.6,4.7,2.2Z"/>
        <path class="cls-1" d="m125.2,323.9c-1.3.4-2.6.7-4,.9,1.4-.2,2.7-.5,4-.9Z"/>
        <path class="cls-1" d="m128.7,322.5c-.5.2-.9.4-1.4.6.5-.2.9-.4,1.4-.6Z"/>
        <path class="cls-1" d="m16.3,131.9c.3-1.6.6-3.2,1-4.8-.4,1.6-.7,3.2-1,4.8Z"/>
        <path class="cls-1" d="m28.2,101.4c1.7-2.6,3.6-5.1,5.5-7.4-2,2.3-3.8,4.8-5.5,7.4-1.6,2.5-3.1,5.1-4.5,7.8-1,2.1-2,4.2-2.9,6.4.9-2.2,1.8-4.3,2.9-6.4,1.4-2.7,2.9-5.3,4.5-7.8Z"/>
        <path class="cls-1" d="m140.5,109.2c1.4,2.8,2.6,5.7,3.7,8.6-1.1-3-2.3-5.9-3.7-8.6-1.4-2.7-2.9-5.3-4.5-7.8-1.7-2.6-3.6-5.1-5.5-7.4,2,2.3,3.8,4.8,5.5,7.4,1.6,2.5,3.1,5.1,4.5,7.8Z"/>
        <path class="cls-1" d="m17.3,127.1c.4-1.6.8-3.1,1.2-4.7-.5,1.5-.9,3.1-1.2,4.7Z"/>
        <path class="cls-1" d="m149.2,146.9c0-3.4-.2-6.8-.6-10.1.4,3.3.6,6.7.6,10.1h0Z"/>
        <path class="cls-1" d="m23.7,184.5c-1-2.1-2-4.2-2.9-6.4.9,2.2,1.8,4.3,2.9,6.4v51.1c-1,2.1-2,4.2-2.9,6.4.9-2.2,1.8-4.3,2.9-6.4v-51.1Z"/>
        <path class="cls-1" d="m20.9,304.6c.9,2.2,1.8,4.3,2.9,6.4,0,0,0,0,0,0,0,0,0,0,0,0-1-2.1-2-4.2-2.9-6.4Z"/>
        <path class="cls-1" d="m144.2,175.9c-1.1,3-2.3,5.9-3.7,8.6v51.1c1.7,3.5,3.2,7.1,4.5,10.9-1.2-3.8-2.7-7.4-4.5-10.9v-51.1c1.4-2.8,2.6-5.7,3.7-8.6Z"/>
        <path class="cls-1" d="m140.4,311.2c0,0,0-.1,0-.2,1.4-2.8,2.6-5.7,3.7-8.6-1.1,3-2.3,5.9-3.7,8.6,0,0,0,.1,0,.2Z"/>
        <path class="cls-1" d="m147.9,131.9c.3,1.6.5,3.3.7,4.9-.2-1.7-.4-3.3-.7-4.9Z"/>
        <path class="cls-1" d="m33.7,93.9c1-1.2,2-2.3,3.1-3.4-1.1,1.1-2.1,2.2-3.1,3.4Z"/>
        <path class="cls-1" d="m18.5,122.4c.7-2.3,1.5-4.6,2.3-6.8-.9,2.2-1.6,4.5-2.3,6.8Z"/>
        <path class="cls-1" d="m49.1,69.2c-.2-.3-.4-.6-.6-.9.2.3.4.6.6.9Z"/>
        <path class="cls-1" d="m130.2,321.8c-.5.3-1,.5-1.5.8.5-.2,1-.5,1.5-.8Z"/>
        <path class="cls-1" d="m17.4,167.3c0-.4-.2-.7-.3-1.1,0,.4.2.7.3,1.1Z"/>
        <path class="cls-1" d="m49.1,69.2c.3.4.7.8,1.2,1.1-.4-.3-.9-.7-1.2-1.1Z"/>
        <path class="cls-1" d="m135.1,318.2c0,0-.1,0-.2.1,0,0,.1,0,.2-.1Z"/>
        <path class="cls-1" d="m54.7,77.1h0c-6.6,3.4-12.6,7.9-17.9,13.4,5.3-5.5,11.3-10,17.9-13.4Z"/>
        <path class="cls-1" d="m127.3,323.1c-.7.3-1.4.5-2.1.7.7-.2,1.4-.5,2.1-.7Z"/>
        <path class="cls-1" d="m144.2,117.8c.5,1.5,1,3,1.5,4.5-.5-1.5-1-3.1-1.5-4.5Z"/>
        <path class="cls-1" d="m15,146.9c0,5.3.5,10.5,1.4,15.5-.9-5-1.4-10.2-1.4-15.5h0Z"/>
        <path class="cls-1" d="m52.3,71.2c-.4,0-.7-.2-1.1-.3.3.1.7.3,1.1.3Z"/>
        <path class="cls-1" d="m23.8,311.1h0c.8,1.7,1.8,3.2,2.9,4.5-1.1-1.4-2.1-2.8-2.9-4.5,0,0,0,0,0,0Z"/>
        <path class="cls-1" d="m149.2,273.3h0c0,10.3-1.8,20.1-5,29,3.2-8.9,5-18.7,5-29Z"/>
        <path class="cls-1" d="m51.2,58.6c.3-.1.7-.3,1.1-.3-.4,0-.7.2-1.1.3Z"/>
        <path class="cls-1" d="m48.5,61.1c.2-.3.4-.6.6-.9-.2.3-.4.6-.6.9Z"/>
        <path class="cls-1" d="m149.2,146.9h0c0,5.1-.4,10.2-1.3,15,.9-4.9,1.3-9.9,1.3-15Z"/>
        <path class="cls-1" d="m15.3,265.7c.1-1.7.3-3.3.6-5-.2,1.6-.4,3.3-.6,5Z"/>
        <path class="cls-1" d="m15,273.3c0,5.3.5,10.5,1.4,15.5-.9-5-1.4-10.2-1.4-15.5h0Z"/>
        <path class="cls-1" d="m17.2,254.1c0-.4.2-.7.3-1.1,0,.4-.2.7-.3,1.1Z"/>
        <path class="cls-1" d="m50.3,59.1c-.4.3-.9.7-1.2,1.1.3-.4.7-.8,1.2-1.1Z"/>
        <path class="cls-1" d="m15.9,260.8c.1-1,.3-1.9.5-2.9-.2,1-.3,1.9-.5,2.9Z"/>
        <path class="cls-1" d="m109.5,77.1c7.9,4,15,9.8,21,16.8-5.9-7-13-12.8-21-16.8v-5.9h0v5.9Z"/>
        <path class="cls-1" d="m18.7,298.5c-.1-.5-.3-.9-.4-1.4.1.5.3.9.4,1.4Z"/>
        <path class="cls-1" d="m29,318.2c-.8-.8-1.6-1.6-2.4-2.5.7.9,1.5,1.8,2.4,2.5Z"/>
        <path class="cls-1" d="m17.4,293.7c0-.4-.2-.7-.3-1.1,0,.4.2.7.3,1.1Z"/>
        <path class="cls-1" d="m18.7,172.1c-.1-.5-.3-.9-.4-1.4.1.5.3.9.4,1.4Z"/>
        <path class="cls-1" d="m147.9,161.9c-.3,1.6-.6,3.2-1,4.8.4-1.6.7-3.2,1-4.8Z"/>
        <rect class="cls-1" x="51.6" y="25" width="60.9" height="28.5" rx="7" ry="7"/>
        <g>
          <path class="cls-2" d="m46.5,310c-3.9,0-7.6-2.2-9.3-5.6,0,0,0,0,0-.1-4.7-9.4-7.1-20.1-7.1-31s2.5-21.6,7.1-31c1-2.1,1.6-4.4,1.6-6.7v-51.1c0-2.3-.5-4.6-1.6-6.7-4.7-9.4-7.1-20.1-7.1-31s2.5-21.6,7.1-31c1.1-2.2,2.3-4.3,3.6-6.3,5.4-8.3,12.6-14.9,20.8-19.1,5-2.6,8.2-7.7,8.2-13.4v-4h24.8v4c0,5.6,3.2,10.8,8.2,13.4,8.1,4.1,15.3,10.7,20.8,19.1,1.3,2,2.5,4.1,3.6,6.3,4.7,9.4,7.1,20.1,7.1,31s-2.5,21.6-7.1,31c-1,2.1-1.6,4.4-1.6,6.7v51.1c0,2.3.5,4.6,1.6,6.7,4.7,9.4,7.1,20.1,7.1,31s-2.5,21.6-7.1,31v.2c-1.8,3.4-5.4,5.6-9.4,5.6H46.5Z"/>
          <path class="cls-2" d="m82.1,89.4c2.8,6.1,7.5,11.3,13.8,14.5,5.8,3,11,7.8,15,13.9,1,1.5,1.9,3.2,2.8,4.8,3.6,7.3,5.6,15.7,5.6,24.3s-1.9,17-5.6,24.3c-2.1,4.2-3.2,8.8-3.2,13.4v51.1c0,4.7,1.1,9.2,3.2,13.4,3.6,7.3,5.6,15.7,5.6,24.3s-1.5,15-4.4,21.7H49.4c-2.9-6.7-4.4-14.1-4.4-21.7s1.9-17,5.6-24.3c2.1-4.2,3.2-8.8,3.2-13.4v-51.1c0-4.7-1.1-9.2-3.2-13.4-3.6-7.3-5.6-15.7-5.6-24.3s1.9-17,5.6-24.3c.8-1.7,1.8-3.3,2.8-4.8,4-6.1,9.2-10.9,15-13.9,6.2-3.2,11-8.3,13.8-14.5m28.7-31.2h-57.4c-3.1,0-5.6,2.5-5.6,5.6v1.8c0,3.1,2.5,5.6,5.6,5.6h1.3v5.9c-10.6,5.4-19.7,13.8-26.5,24.2-1.6,2.5-3.1,5.1-4.5,7.8-5.6,11.1-8.7,24-8.7,37.7s3.2,26.6,8.7,37.7v51.1c-5.6,11.1-8.7,24-8.7,37.7s3.2,26.6,8.7,37.7c0,0,0,.1,0,.2,4.3,8.5,13.1,13.9,22.7,13.9h71.2c9.6,0,18.4-5.3,22.7-13.9,0,0,0-.1,0-.2,5.6-11.1,8.7-24,8.7-37.7s-3.2-26.6-8.7-37.7v-51.1c5.6-11.1,8.7-24,8.7-37.7s-3.2-26.6-8.7-37.7c-1.4-2.7-2.9-5.3-4.5-7.8-6.8-10.4-15.9-18.8-26.5-24.2v-5.9h1.3c3.1,0,5.6-2.5,5.6-5.6v-1.8c0-3.1-2.5-5.6-5.6-5.6h0Z"/>
        </g>
        <path class="cls-1" d="m116.5,184.5v-5.7l2.5-5.1c4.1-8.1,6.2-17.4,6.2-26.9s0-.4,0-.6H39c0,.2,0,.4,0,.6,0,9.5,2.1,18.8,6.2,26.9l2.5,5.1v62.5l-2.5,5.1c-4.1,8.1-6.2,17.4-6.2,26.9s2.1,18.8,6.2,26.9h0c0,0,0,.1,0,.1.2.3.7.6,1.2.6h71.2c.5,0,1.1-.3,1.3-.6h0s0,0,0,0c4.1-8.1,6.2-17.5,6.2-27s-2.1-18.8-6.2-26.9l-2.5-5.1v-56.8Z"/>
        <g>
          <ellipse class="cls-1" cx="58.3" cy="126.6" rx="25.8" ry="13.3" transform="translate(-80.9 133.2) rotate(-68)"/>
          <ellipse class="cls-1" cx="50.2" cy="161.6" rx="5.1" ry="6.1"/>
        </g>
        <line class="cls-1" x1="46.5" y1="325" x2="121.2" y2="324.8"/>
      </g>
      <g>
        <path class="cls-3" d="m18.3,287.2c-.3-1.1-.6-2.3-.9-3.4.3,1.2.6,2.3.9,3.4Z"/>
        <path class="cls-3" d="m16.4,247.9c.2-1.3.5-2.6.8-3.8-.3,1.3-.5,2.5-.8,3.8Z"/>
        <path class="cls-3" d="m18.5,238.9c.7-2.3,1.5-4.6,2.3-6.8-.9,2.2-1.6,4.5-2.3,6.8Z"/>
        <path class="cls-3" d="m17.4,242.9c.3-1.4.7-2.7,1.1-4.1-.4,1.3-.8,2.7-1.1,4.1Z"/>
        <path class="cls-3" d="m17.2,282.6c-.3-1.3-.5-2.5-.8-3.8.2,1.3.5,2.6.8,3.8Z"/>
        <path class="cls-3" d="m15,263.3h0c0-.9,0-1.7,0-2.6,0,.8,0,1.7,0,2.6Z"/>
        <path class="cls-3" d="m15,260.8c0-1.7.1-3.4.3-5.1-.1,1.7-.2,3.4-.3,5.1Z"/>
        <path class="cls-3" d="m15,136.9h0c0-3.4.2-6.8.6-10.1-.4,3.3-.6,6.7-.6,10.1Z"/>
        <path class="cls-3" d="m15.6,126.7c.2-1.7.4-3.3.7-4.9-.3,1.6-.5,3.3-.7,4.9Z"/>
        <path class="cls-3" d="m18.3,160.7c-.3-1.1-.6-2.3-.9-3.4.3,1.2.6,2.3.9,3.4Z"/>
        <path class="cls-3" d="m17.2,156.1c-.3-1.3-.5-2.5-.8-3.8.2,1.3.5,2.6.8,3.8Z"/>
        <path class="cls-3" d="m20.9,168.1c-.8-2-1.5-4-2.1-6,.6,2.1,1.3,4.1,2.1,6Z"/>
        <path class="cls-3" d="m144.9,236.6c.5,1.5,1,3.1,1.4,4.6-.4-1.6-.9-3.1-1.4-4.6Z"/>
        <path class="cls-3" d="m20.9,294.6c-.8-2-1.5-4-2.1-6,.6,2.1,1.3,4.1,2.1,6Z"/>
        <path class="cls-3" d="m139.5,302.7c-.9,1.5-2,2.9-3.2,4.2,1.2-1.3,2.2-2.7,3.2-4.2Z"/>
        <path class="cls-3" d="m147.4,245.9c.3,1.6.6,3.2.9,4.9-.2-1.6-.5-3.3-.9-4.9Z"/>
        <path class="cls-3" d="m136.4,306.9c-.4.4-.8.8-1.2,1.2.4-.4.8-.8,1.2-1.2Z"/>
        <path class="cls-3" d="m148.3,250.8c.2,1.6.4,3.3.6,5-.1-1.7-.3-3.3-.6-5Z"/>
        <path class="cls-3" d="m149.2,263.3c0-1.7,0-3.4-.1-5.1,0,1.7.1,3.4.1,5.1h0Z"/>
        <path class="cls-3" d="m46.5,315h0c-3,0-5.9-.5-8.6-1.5,2.7,1,5.7,1.5,8.6,1.5Z"/>
        <path class="cls-3" d="m135,308.3c-1.5,1.3-3.1,2.5-4.8,3.5,1.7-1,3.3-2.1,4.8-3.5Z"/>
        <path class="cls-3" d="m37.9,313.5c-1.6-.6-3.2-1.3-4.7-2.2,1.5.9,3.1,1.6,4.7,2.2Z"/>
        <path class="cls-3" d="m125.2,313.9c-1.3.4-2.6.7-4,.9,1.4-.2,2.7-.5,4-.9Z"/>
        <path class="cls-3" d="m128.7,312.5c-.5.2-.9.4-1.4.6.5-.2.9-.4,1.4-.6Z"/>
        <path class="cls-3" d="m16.3,121.8c.3-1.6.6-3.2,1-4.8-.4,1.6-.7,3.2-1,4.8Z"/>
        <path class="cls-3" d="m28.2,91.3c1.7-2.6,3.6-5.1,5.5-7.4-2,2.3-3.8,4.8-5.5,7.4-1.6,2.5-3.1,5.1-4.5,7.8-1,2.1-2,4.2-2.9,6.4.9-2.2,1.8-4.3,2.9-6.4,1.4-2.7,2.9-5.3,4.5-7.8Z"/>
        <path class="cls-3" d="m140.5,99.2c1.4,2.8,2.6,5.7,3.7,8.6-1.1-3-2.3-5.9-3.7-8.6-1.4-2.7-2.9-5.3-4.5-7.8-1.7-2.6-3.6-5.1-5.5-7.4,2,2.3,3.8,4.8,5.5,7.4,1.6,2.5,3.1,5.1,4.5,7.8Z"/>
        <path class="cls-3" d="m17.3,117c.4-1.6.8-3.1,1.2-4.7-.5,1.5-.9,3.1-1.2,4.7Z"/>
        <path class="cls-3" d="m149.2,136.9c0-3.4-.2-6.8-.6-10.1.4,3.3.6,6.7.6,10.1h0Z"/>
        <path class="cls-3" d="m23.7,174.5c-1-2.1-2-4.2-2.9-6.4.9,2.2,1.8,4.3,2.9,6.4v51.1c-1,2.1-2,4.2-2.9,6.4.9-2.2,1.8-4.3,2.9-6.4v-51.1Z"/>
        <path class="cls-3" d="m20.9,294.6c.9,2.2,1.8,4.3,2.9,6.4,0,0,0,0,0,0,0,0,0,0,0,0-1-2.1-2-4.2-2.9-6.4Z"/>
        <path class="cls-3" d="m144.2,165.9c-1.1,3-2.3,5.9-3.7,8.6v51.1c1.7,3.5,3.2,7.1,4.5,10.9-1.2-3.8-2.7-7.4-4.5-10.9v-51.1c1.4-2.8,2.6-5.7,3.7-8.6Z"/>
        <path class="cls-3" d="m140.4,301.1c0,0,0-.1,0-.2,1.4-2.8,2.6-5.7,3.7-8.6-1.1,3-2.3,5.9-3.7,8.6,0,0,0,.1,0,.2Z"/>
        <path class="cls-3" d="m147.9,121.8c.3,1.6.5,3.3.7,4.9-.2-1.7-.4-3.3-.7-4.9Z"/>
        <path class="cls-3" d="m33.7,83.9c1-1.2,2-2.3,3.1-3.4-1.1,1.1-2.1,2.2-3.1,3.4Z"/>
        <path class="cls-3" d="m18.5,112.4c.7-2.3,1.5-4.6,2.3-6.8-.9,2.2-1.6,4.5-2.3,6.8Z"/>
        <path class="cls-3" d="m49.1,59.2c-.2-.3-.4-.6-.6-.9.2.3.4.6.6.9Z"/>
        <path class="cls-3" d="m130.2,311.8c-.5.3-1,.5-1.5.8.5-.2,1-.5,1.5-.8Z"/>
        <path class="cls-3" d="m17.4,157.2c0-.4-.2-.7-.3-1.1,0,.4.2.7.3,1.1Z"/>
        <path class="cls-3" d="m49.1,59.2c.3.4.7.8,1.2,1.1-.4-.3-.9-.7-1.2-1.1Z"/>
        <path class="cls-3" d="m135.1,308.1c0,0-.1,0-.2.1,0,0,.1,0,.2-.1Z"/>
        <path class="cls-3" d="m54.7,67.1h0c-6.6,3.4-12.6,7.9-17.9,13.4,5.3-5.5,11.3-10,17.9-13.4Z"/>
        <path class="cls-3" d="m127.3,313.1c-.7.3-1.4.5-2.1.7.7-.2,1.4-.5,2.1-.7Z"/>
        <path class="cls-3" d="m144.2,107.8c.5,1.5,1,3,1.5,4.5-.5-1.5-1-3.1-1.5-4.5Z"/>
        <path class="cls-3" d="m15,136.9c0,5.3.5,10.5,1.4,15.5-.9-5-1.4-10.2-1.4-15.5h0Z"/>
        <path class="cls-3" d="m52.3,61.2c-.4,0-.7-.2-1.1-.3.3.1.7.3,1.1.3Z"/>
        <path class="cls-3" d="m23.8,301.1h0c.8,1.7,1.8,3.2,2.9,4.5-1.1-1.4-2.1-2.8-2.9-4.5,0,0,0,0,0,0Z"/>
        <path class="cls-3" d="m149.2,263.3h0c0,10.3-1.8,20.1-5,29,3.2-8.9,5-18.7,5-29Z"/>
        <path class="cls-3" d="m51.2,48.6c.3-.1.7-.3,1.1-.3-.4,0-.7.2-1.1.3Z"/>
        <path class="cls-3" d="m48.5,51.1c.2-.3.4-.6.6-.9-.2.3-.4.6-.6.9Z"/>
        <path class="cls-3" d="m149.2,136.9h0c0,5.1-.4,10.2-1.3,15,.9-4.9,1.3-9.9,1.3-15Z"/>
        <path class="cls-3" d="m15.3,255.7c.1-1.7.3-3.3.6-5-.2,1.6-.4,3.3-.6,5Z"/>
        <path class="cls-3" d="m15,263.3c0,5.3.5,10.5,1.4,15.5-.9-5-1.4-10.2-1.4-15.5h0Z"/>
        <path class="cls-3" d="m17.2,244.1c0-.4.2-.7.3-1.1,0,.4-.2.7-.3,1.1Z"/>
        <path class="cls-3" d="m50.3,49.1c-.4.3-.9.7-1.2,1.1.3-.4.7-.8,1.2-1.1Z"/>
        <path class="cls-3" d="m15.9,250.8c.1-1,.3-1.9.5-2.9-.2,1-.3,1.9-.5,2.9Z"/>
        <path class="cls-3" d="m109.5,67.1c7.9,4,15,9.8,21,16.8-5.9-7-13-12.8-21-16.8v-5.9h0v5.9Z"/>
        <path class="cls-3" d="m18.7,288.5c-.1-.5-.3-.9-.4-1.4.1.5.3.9.4,1.4Z"/>
        <path class="cls-3" d="m29,308.1c-.8-.8-1.6-1.6-2.4-2.5.7.9,1.5,1.8,2.4,2.5Z"/>
        <path class="cls-3" d="m17.4,283.7c0-.4-.2-.7-.3-1.1,0,.4.2.7.3,1.1Z"/>
        <path class="cls-3" d="m18.7,162c-.1-.5-.3-.9-.4-1.4.1.5.3.9.4,1.4Z"/>
        <path class="cls-3" d="m147.9,151.9c-.3,1.6-.6,3.2-1,4.8.4-1.6.7-3.2,1-4.8Z"/>
        <rect class="cls-3" x="51.6" y="15" width="60.9" height="28.5" rx="7" ry="7"/>
        <g>
          <path class="cls-4" d="m46.5,300c-3.9,0-7.6-2.2-9.3-5.6,0,0,0,0,0-.1-4.7-9.4-7.1-20.1-7.1-31s2.5-21.6,7.1-31c1-2.1,1.6-4.4,1.6-6.7v-51.1c0-2.3-.5-4.6-1.6-6.7-4.7-9.4-7.1-20.1-7.1-31s2.5-21.6,7.1-31c1.1-2.2,2.3-4.3,3.6-6.3,5.4-8.3,12.6-14.9,20.8-19.1,5-2.6,8.2-7.7,8.2-13.4v-4h24.8v4c0,5.6,3.2,10.8,8.2,13.4,8.1,4.1,15.3,10.7,20.8,19.1,1.3,2,2.5,4.1,3.6,6.3,4.7,9.4,7.1,20.1,7.1,31s-2.5,21.6-7.1,31c-1,2.1-1.6,4.4-1.6,6.7v51.1c0,2.3.5,4.6,1.6,6.7,4.7,9.4,7.1,20.1,7.1,31s-2.5,21.6-7.1,31v.2c-1.8,3.4-5.4,5.6-9.4,5.6H46.5Z"/>
          <path class="cls-4" d="m82.1,79.4c2.8,6.1,7.5,11.3,13.8,14.5,5.8,3,11,7.8,15,13.9,1,1.5,1.9,3.2,2.8,4.8,3.6,7.3,5.6,15.7,5.6,24.3s-1.9,17-5.6,24.3c-2.1,4.2-3.2,8.8-3.2,13.4v51.1c0,4.7,1.1,9.2,3.2,13.4,3.6,7.3,5.6,15.7,5.6,24.3s-1.5,15-4.4,21.7H49.4c-2.9-6.7-4.4-14.1-4.4-21.7s1.9-17,5.6-24.3c2.1-4.2,3.2-8.8,3.2-13.4v-51.1c0-4.7-1.1-9.2-3.2-13.4-3.6-7.3-5.6-15.7-5.6-24.3s1.9-17,5.6-24.3c.8-1.7,1.8-3.3,2.8-4.8,4-6.1,9.2-10.9,15-13.9,6.2-3.2,11-8.3,13.8-14.5m28.7-31.2h-57.4c-3.1,0-5.6,2.5-5.6,5.6v1.8c0,3.1,2.5,5.6,5.6,5.6h1.3v5.9c-10.6,5.4-19.7,13.8-26.5,24.2-1.6,2.5-3.1,5.1-4.5,7.8-5.6,11.1-8.7,24-8.7,37.7s3.2,26.6,8.7,37.7v51.1c-5.6,11.1-8.7,24-8.7,37.7s3.2,26.6,8.7,37.7c0,0,0,.1,0,.2,4.3,8.5,13.1,13.9,22.7,13.9h71.2c9.6,0,18.4-5.3,22.7-13.9,0,0,0-.1,0-.2,5.6-11.1,8.7-24,8.7-37.7s-3.2-26.6-8.7-37.7v-51.1c5.6-11.1,8.7-24,8.7-37.7s-3.2-26.6-8.7-37.7c-1.4-2.7-2.9-5.3-4.5-7.8-6.8-10.4-15.9-18.8-26.5-24.2v-5.9h1.3c3.1,0,5.6-2.5,5.6-5.6v-1.8c0-3.1-2.5-5.6-5.6-5.6h0Z"/>
        </g>
        <path class="cls-3" d="m116.5,174.5v-5.7l2.5-5.1c4.1-8.1,6.2-17.4,6.2-26.9s0-.4,0-.6H39c0,.2,0,.4,0,.6,0,9.5,2.1,18.8,6.2,26.9l2.5,5.1v62.5l-2.5,5.1c-4.1,8.1-6.2,17.4-6.2,26.9s2.1,18.8,6.2,26.9h0c0,0,0,.1,0,.1.2.3.7.6,1.2.6h71.2c.5,0,1.1-.3,1.3-.6h0s0,0,0,0c4.1-8.1,6.2-17.5,6.2-27s-2.1-18.8-6.2-26.9l-2.5-5.1v-56.8Z"/>
        <g>
          <ellipse class="cls-3" cx="58.3" cy="116.6" rx="25.8" ry="13.3" transform="translate(-71.6 127) rotate(-68)"/>
          <ellipse class="cls-3" cx="50.2" cy="151.6" rx="5.1" ry="6.1"/>
        </g>
        <line class="cls-3" x1="46.5" y1="315" x2="121.2" y2="314.8"/>
      </g>
      <g>
        <path class="cls-7" d="m18.3,285.6c-.3-1.1-.6-2.3-.9-3.4.3,1.2.6,2.3.9,3.4Z"/>
        <path class="cls-7" d="m16.4,246.4c.2-1.3.5-2.6.8-3.8-.3,1.3-.5,2.5-.8,3.8Z"/>
        <path class="cls-7" d="m18.5,237.3c.7-2.3,1.5-4.6,2.3-6.8-.9,2.2-1.6,4.5-2.3,6.8Z"/>
        <path class="cls-7" d="m17.4,241.4c.3-1.4.7-2.7,1.1-4.1-.4,1.3-.8,2.7-1.1,4.1Z"/>
        <path class="cls-7" d="m17.2,281.1c-.3-1.3-.5-2.5-.8-3.8.2,1.3.5,2.6.8,3.8Z"/>
        <path class="cls-7" d="m15,261.8h0c0-.9,0-1.7,0-2.6,0,.8,0,1.7,0,2.6Z"/>
        <path class="cls-7" d="m15,259.3c0-1.7.1-3.4.3-5.1-.1,1.7-.2,3.4-.3,5.1Z"/>
        <path class="cls-7" d="m15,135.3h0c0-3.4.2-6.8.6-10.1-.4,3.3-.6,6.7-.6,10.1Z"/>
        <path class="cls-7" d="m15.6,125.2c.2-1.7.4-3.3.7-4.9-.3,1.6-.5,3.3-.7,4.9Z"/>
        <path class="cls-7" d="m18.3,159.2c-.3-1.1-.6-2.3-.9-3.4.3,1.2.6,2.3.9,3.4Z"/>
        <path class="cls-7" d="m17.2,154.6c-.3-1.3-.5-2.5-.8-3.8.2,1.3.5,2.6.8,3.8Z"/>
        <path class="cls-7" d="m20.9,166.6c-.8-2-1.5-4-2.1-6,.6,2.1,1.3,4.1,2.1,6Z"/>
        <path class="cls-7" d="m144.9,235.1c.5,1.5,1,3.1,1.4,4.6-.4-1.6-.9-3.1-1.4-4.6Z"/>
        <path class="cls-7" d="m20.9,293.1c-.8-2-1.5-4-2.1-6,.6,2.1,1.3,4.1,2.1,6Z"/>
        <path class="cls-7" d="m139.5,301.2c-.9,1.5-2,2.9-3.2,4.2,1.2-1.3,2.2-2.7,3.2-4.2Z"/>
        <path class="cls-7" d="m147.4,244.4c.3,1.6.6,3.2.9,4.9-.2-1.6-.5-3.3-.9-4.9Z"/>
        <path class="cls-7" d="m136.4,305.4c-.4.4-.8.8-1.2,1.2.4-.4.8-.8,1.2-1.2Z"/>
        <path class="cls-7" d="m148.3,249.3c.2,1.6.4,3.3.6,5-.1-1.7-.3-3.3-.6-5Z"/>
        <path class="cls-7" d="m149.2,261.8c0-1.7,0-3.4-.1-5.1,0,1.7.1,3.4.1,5.1h0Z"/>
        <path class="cls-7" d="m46.5,313.5h0c-3,0-5.9-.5-8.6-1.5,2.7,1,5.7,1.5,8.6,1.5Z"/>
        <path class="cls-7" d="m135,306.8c-1.5,1.3-3.1,2.5-4.8,3.5,1.7-1,3.3-2.1,4.8-3.5Z"/>
        <path class="cls-7" d="m37.9,312c-1.6-.6-3.2-1.3-4.7-2.2,1.5.9,3.1,1.6,4.7,2.2Z"/>
        <path class="cls-7" d="m125.2,312.4c-1.3.4-2.6.7-4,.9,1.4-.2,2.7-.5,4-.9Z"/>
        <path class="cls-7" d="m128.7,311c-.5.2-.9.4-1.4.6.5-.2.9-.4,1.4-.6Z"/>
        <path class="cls-7" d="m16.3,120.3c.3-1.6.6-3.2,1-4.8-.4,1.6-.7,3.2-1,4.8Z"/>
        <path class="cls-7" d="m28.2,89.8c1.7-2.6,3.6-5.1,5.5-7.4-2,2.3-3.8,4.8-5.5,7.4-1.6,2.5-3.1,5.1-4.5,7.8-1,2.1-2,4.2-2.9,6.4.9-2.2,1.8-4.3,2.9-6.4,1.4-2.7,2.9-5.3,4.5-7.8Z"/>
        <path class="cls-7" d="m140.5,97.7c1.4,2.8,2.6,5.7,3.7,8.6-1.1-3-2.3-5.9-3.7-8.6-1.4-2.7-2.9-5.3-4.5-7.8-1.7-2.6-3.6-5.1-5.5-7.4,2,2.3,3.8,4.8,5.5,7.4,1.6,2.5,3.1,5.1,4.5,7.8Z"/>
        <path class="cls-7" d="m17.3,115.5c.4-1.6.8-3.1,1.2-4.7-.5,1.5-.9,3.1-1.2,4.7Z"/>
        <path class="cls-7" d="m149.2,135.3c0-3.4-.2-6.8-.6-10.1.4,3.3.6,6.7.6,10.1h0Z"/>
        <path class="cls-7" d="m23.7,173c-1-2.1-2-4.2-2.9-6.4.9,2.2,1.8,4.3,2.9,6.4v51.1c-1,2.1-2,4.2-2.9,6.4.9-2.2,1.8-4.3,2.9-6.4v-51.1Z"/>
        <path class="cls-7" d="m20.9,293.1c.9,2.2,1.8,4.3,2.9,6.4,0,0,0,0,0,0,0,0,0,0,0,0-1-2.1-2-4.2-2.9-6.4Z"/>
        <path class="cls-7" d="m144.2,164.4c-1.1,3-2.3,5.9-3.7,8.6v51.1c1.7,3.5,3.2,7.1,4.5,10.9-1.2-3.8-2.7-7.4-4.5-10.9v-51.1c1.4-2.8,2.6-5.7,3.7-8.6Z"/>
        <path class="cls-7" d="m140.4,299.6c0,0,0-.1,0-.2,1.4-2.8,2.6-5.7,3.7-8.6-1.1,3-2.3,5.9-3.7,8.6,0,0,0,.1,0,.2Z"/>
        <path class="cls-7" d="m147.9,120.3c.3,1.6.5,3.3.7,4.9-.2-1.7-.4-3.3-.7-4.9Z"/>
        <path class="cls-7" d="m33.7,82.4c1-1.2,2-2.3,3.1-3.4-1.1,1.1-2.1,2.2-3.1,3.4Z"/>
        <path class="cls-7" d="m18.5,110.9c.7-2.3,1.5-4.6,2.3-6.8-.9,2.2-1.6,4.5-2.3,6.8Z"/>
        <path class="cls-6" d="m49.1,57.7c-.2-.3-.4-.6-.6-.9.2.3.4.6.6.9Z"/>
        <path class="cls-6" d="m130.2,310.2c-.5.3-1,.5-1.5.8.5-.2,1-.5,1.5-.8Z"/>
        <path class="cls-6" d="m17.4,155.7c0-.4-.2-.7-.3-1.1,0,.4.2.7.3,1.1Z"/>
        <path class="cls-6" d="m49.1,57.7c.3.4.7.8,1.2,1.1-.4-.3-.9-.7-1.2-1.1Z"/>
        <path class="cls-6" d="m135.1,306.6c0,0-.1,0-.2.1,0,0,.1,0,.2-.1Z"/>
        <path class="cls-6" d="m54.7,65.6h0c-6.6,3.4-12.6,7.9-17.9,13.4,5.3-5.5,11.3-10,17.9-13.4Z"/>
        <path class="cls-6" d="m127.3,311.6c-.7.3-1.4.5-2.1.7.7-.2,1.4-.5,2.1-.7Z"/>
        <path class="cls-6" d="m144.2,106.3c.5,1.5,1,3,1.5,4.5-.5-1.5-1-3.1-1.5-4.5Z"/>
        <path class="cls-6" d="m15,135.3c0,5.3.5,10.5,1.4,15.5-.9-5-1.4-10.2-1.4-15.5h0Z"/>
        <path class="cls-6" d="m52.3,59.6c-.4,0-.7-.2-1.1-.3.3.1.7.3,1.1.3Z"/>
        <path class="cls-6" d="m23.8,299.6h0c.8,1.7,1.8,3.2,2.9,4.5-1.1-1.4-2.1-2.8-2.9-4.5,0,0,0,0,0,0Z"/>
        <path class="cls-6" d="m149.2,261.8h0c0,10.3-1.8,20.1-5,29,3.2-8.9,5-18.7,5-29Z"/>
        <path class="cls-6" d="m51.2,47.1c.3-.1.7-.3,1.1-.3-.4,0-.7.2-1.1.3Z"/>
        <path class="cls-6" d="m48.5,49.6c.2-.3.4-.6.6-.9-.2.3-.4.6-.6.9Z"/>
        <path class="cls-6" d="m149.2,135.3h0c0,5.1-.4,10.2-1.3,15,.9-4.9,1.3-9.9,1.3-15Z"/>
        <path class="cls-6" d="m15.3,254.2c.1-1.7.3-3.3.6-5-.2,1.6-.4,3.3-.6,5Z"/>
        <path class="cls-6" d="m15,261.8c0,5.3.5,10.5,1.4,15.5-.9-5-1.4-10.2-1.4-15.5h0Z"/>
        <path class="cls-6" d="m17.2,242.5c0-.4.2-.7.3-1.1,0,.4-.2.7-.3,1.1Z"/>
        <path class="cls-6" d="m50.3,47.6c-.4.3-.9.7-1.2,1.1.3-.4.7-.8,1.2-1.1Z"/>
        <path class="cls-6" d="m15.9,249.3c.1-1,.3-1.9.5-2.9-.2,1-.3,1.9-.5,2.9Z"/>
        <path class="cls-6" d="m109.5,65.6c7.9,4,15,9.8,21,16.8-5.9-7-13-12.8-21-16.8v-5.9h0v5.9Z"/>
        <path class="cls-6" d="m18.7,287c-.1-.5-.3-.9-.4-1.4.1.5.3.9.4,1.4Z"/>
        <path class="cls-6" d="m29,306.6c-.8-.8-1.6-1.6-2.4-2.5.7.9,1.5,1.8,2.4,2.5Z"/>
        <path class="cls-6" d="m17.4,282.2c0-.4-.2-.7-.3-1.1,0,.4.2.7.3,1.1Z"/>
        <path class="cls-6" d="m18.7,160.5c-.1-.5-.3-.9-.4-1.4.1.5.3.9.4,1.4Z"/>
        <path class="cls-6" d="m147.9,150.4c-.3,1.6-.6,3.2-1,4.8.4-1.6.7-3.2,1-4.8Z"/>
        <rect class="cls-7" x="51.6" y="13.5" width="60.9" height="28.5" rx="7" ry="7"/>
        <path class="cls-6" d="m91.5,64.7v12l9.8,5c7.7,3.9,14.5,10.1,19.6,18,1.3,1.9,2.4,3.9,3.5,6,4.5,8.9,6.8,19.2,6.8,29.6s-2.4,20.7-6.8,29.6l-1.9,3.8v59.6l1.9,3.8c4.5,8.9,6.8,19.2,6.8,29.6s-2.4,20.7-6.8,29.6v.2c-1.3,2.4-3.9,3.9-6.7,3.9H46.5c-2.8,0-5.4-1.5-6.6-3.9h0c0,0,0,0,0,0h0c-4.5-9-6.8-19.2-6.8-29.7s2.4-20.7,6.8-29.6l1.9-3.8v-59.6l-1.9-3.8c-4.5-8.9-6.8-19.2-6.8-29.6s2.4-20.7,6.8-29.6c1-2.1,2.2-4.1,3.5-6,5.1-7.9,11.9-14.1,19.6-18l9.8-5v-12h18.8m19.3-18h-57.4c-3.1,0-5.6,2.5-5.6,5.6v1.8c0,3.1,2.5,5.6,5.6,5.6h1.3v5.9c-10.6,5.4-19.7,13.8-26.5,24.2-1.6,2.5-3.1,5.1-4.5,7.8-5.6,11.1-8.7,24-8.7,37.7s3.2,26.6,8.7,37.7v51.1c-5.6,11.1-8.7,24-8.7,37.7s3.2,26.6,8.7,37.7c0,0,0,.1,0,.2,4.3,8.5,13.1,13.9,22.7,13.9h71.2c9.6,0,18.4-5.3,22.7-13.9,0,0,0-.1,0-.2,5.6-11.1,8.7-24,8.7-37.7s-3.2-26.6-8.7-37.7v-51.1c5.6-11.1,8.7-24,8.7-37.7s-3.2-26.6-8.7-37.7c-1.4-2.7-2.9-5.3-4.5-7.8-6.8-10.4-15.9-18.8-26.5-24.2v-5.9h1.3c3.1,0,5.6-2.5,5.6-5.6v-1.8c0-3.1-2.5-5.6-5.6-5.6h0Z"/>
        <path class="cls-7" d="m116.5,173v-5.7l2.5-5.1c4.1-8.1,6.2-17.4,6.2-26.9s0-.4,0-.6H39c0,.2,0,.4,0,.6,0,9.5,2.1,18.8,6.2,26.9l2.5,5.1v62.5l-2.5,5.1c-4.1,8.1-6.2,17.4-6.2,26.9s2.1,18.8,6.2,26.9h0c0,0,0,.1,0,.1.2.3.7.6,1.2.6h71.2c.5,0,1.1-.3,1.3-.6h0s0,0,0,0c4.1-8.1,6.2-17.5,6.2-27s-2.1-18.8-6.2-26.9l-2.5-5.1v-56.8Z"/>
        <path class="cls-5" d="m81.1,63.3h0c29.2,0,52.9,23.7,52.9,52.9v167.7c0,14.4-11.7,26.1-26.1,26.1h-53.5c-14.4,0-26.1-11.7-26.1-26.1V116.1c0-29.2,23.7-52.9,52.9-52.9Z"/>
        <g>
          <ellipse class="cls-4" cx="58.3" cy="115.1" rx="25.8" ry="13.3" transform="translate(-70.2 126) rotate(-68)"/>
          <ellipse class="cls-4" cx="50.2" cy="150.1" rx="5.1" ry="6.1"/>
        </g>
      </g>
    </g>
  </g>
</svg>