<?xml version="1.0" encoding="UTF-8"?>
<svg id="Layer_2" data-name="Layer 2" xmlns="http://www.w3.org/2000/svg" width="330" height="340" viewBox="0 0 330 340">
  <defs>
    <style>
      .cls-1 {
        fill: #bcbfd3;
        stroke: #bcbfd3;
      }

      .cls-1, .cls-2 {
        stroke-linecap: round;
        stroke-linejoin: round;
        stroke-width: 30px;
      }

      .cls-3 {
        fill: #b1c5e6;
      }

      .cls-4 {
        fill: #9eb1ce;
      }

      .cls-2 {
        fill: #fff;
        stroke: #fff;
      }
    </style>
  </defs>
  <g id="Grouped">
    <g>
      <g>
        <polygon class="cls-1" points="27.7 25.9 247.6 92.4 314.1 312.4 294.9 325 167.6 170.8 15 45.1 27.7 25.9"/>
        <g>
          <path class="cls-1" d="m85,122.8l-27.3-27.3,48.2-54.2c12.6-12.6,30.4-15.4,39.6-6.2h0c9.2,9.2,6.5,26.9-6.2,39.6l-54.2,48.2Z"/>
          <path class="cls-1" d="m244.5,282.3l-27.3-27.3,48.2-54.2c12.6-12.6,30.4-15.4,39.6-6.2h0c9.2,9.2,6.5,26.9-6.2,39.6l-54.2,48.2Z"/>
        </g>
        <path class="cls-1" d="m131,263.4l88.9-73c29-16,68.4-65.9,80.3-96.3l.5-1.4c34.5-55.9,2.5-87.9-53.4-53.4l-1.4.5c-30.4,12-80.3,51.3-96.3,80.3l-73,88.9-48.4,1.7-10.1,12.4,58.6,39.6,40.1,59.2,12.4-10.1,1.7-48.4Z"/>
      </g>
      <g>
        <polygon class="cls-2" points="27.7 15.9 247.6 82.4 314.1 302.3 294.9 315 167.6 160.8 15 35.1 27.7 15.9"/>
        <g>
          <path class="cls-2" d="m85,112.8l-27.3-27.3,48.2-54.2c12.6-12.6,30.4-15.4,39.6-6.2h0c9.2,9.2,6.5,26.9-6.2,39.6l-54.2,48.2Z"/>
          <path class="cls-2" d="m244.5,272.3l-27.3-27.3,48.2-54.2c12.6-12.6,30.4-15.4,39.6-6.2h0c9.2,9.2,6.5,26.9-6.2,39.6l-54.2,48.2Z"/>
        </g>
        <path class="cls-2" d="m131,253.4l88.9-73c29-16,68.4-65.9,80.3-96.3l.5-1.4c34.5-55.9,2.5-87.9-53.4-53.4l-1.4.5c-30.4,12-80.3,51.3-96.3,80.3l-73,88.9-48.4,1.7-10.1,12.4,58.6,39.6,40.1,59.2,12.4-10.1,1.7-48.4Z"/>
      </g>
      <g>
        <polygon class="cls-4" points="27.7 15.9 247.6 82.4 314.1 302.3 294.9 315 167.6 160.8 15 35.1 27.7 15.9"/>
        <g>
          <path class="cls-3" d="m85,112.8l-27.3-27.3,48.2-54.2c12.6-12.6,30.4-15.4,39.6-6.2h0c9.2,9.2,6.5,26.9-6.2,39.6l-54.2,48.2Z"/>
          <path class="cls-3" d="m244.5,272.3l-27.3-27.3,48.2-54.2c12.6-12.6,30.4-15.4,39.6-6.2h0c9.2,9.2,6.5,26.9-6.2,39.6l-54.2,48.2Z"/>
        </g>
        <path class="cls-3" d="m131,253.4l88.9-73c29-16,68.4-65.9,80.3-96.3l.5-1.4c34.5-55.9,2.5-87.9-53.4-53.4l-1.4.5c-30.4,12-80.3,51.3-96.3,80.3l-73,88.9-48.4,1.7-10.1,12.4,58.6,39.6,40.1,59.2,12.4-10.1,1.7-48.4Z"/>
      </g>
    </g>
  </g>
</svg>