<?xml version="1.0" encoding="UTF-8"?>
<svg id="Layer_2" data-name="Layer 2" xmlns="http://www.w3.org/2000/svg" width="313.1" height="340" viewBox="0 0 313.1 340">
  <defs>
    <style>
      .cls-1 {
        fill: #bcbfd3;
        stroke: #bcbfd3;
      }

      .cls-1, .cls-2 {
        stroke-linecap: round;
        stroke-linejoin: round;
        stroke-width: 30px;
      }

      .cls-3 {
        fill: #747f93;
      }

      .cls-2 {
        fill: #fff;
        stroke: #fff;
      }
    </style>
  </defs>
  <g id="Grouped">
    <g>
      <g>
        <path class="cls-1" d="m238,292.9l-102.7-152.2c0-.1-.2-.2-.2-.3,0-.1-.1-.2-.2-.3L61,30.6c-2.4-3.5-7.1-4.4-10.6-2.1l-11.5,7.7c-24.8,16.7-31.3,50.4-14.6,75.2l47.8,70.8c4.7,6.9,14.1,8.8,21.1,4.1l18.4-12.4,94.7,140.3c5.9,8.8,17.8,11.1,26.6,5.2h0c8.8-5.9,11.1-17.8,5.2-26.6Z"/>
        <g>
          <path class="cls-1" d="m293.5,73l-3.3-2.3c-3.7-2.5-9.1-1.2-11.9,3l-43.9,64.6c-2.9,4.3-8.4,5.7-12.3,3.1-3.8-2.6-4.6-8.2-1.7-12.5l43.9-64.6c2.8-4.2,2.1-9.6-1.6-12.2l-6.4-4.3c-3.7-2.5-9.1-1.2-11.9,3l-43.9,64.6c-2.9,4.3-8.4,5.7-12.3,3.1h0c-3.8-2.6-4.6-8.2-1.7-12.5l43.9-64.6c2.8-4.2,2.1-9.6-1.6-12.2l-3.3-2.3c-5.1-3.5-12.5-1.7-16.4,4.1l-45.5,66.9c-12.7,18.6-11.5,42.2,1.7,56.5l-5.7,8.4,23.1,34.2,14.3-21c18.2,7,40.5-.6,53.1-19.2l45.5-66.9c3.9-5.7,2.9-13.2-2.2-16.7Z"/>
          <path class="cls-1" d="m69.7,295.1c-5.9,8.8-3.7,20.7,5.1,26.6h0c8.8,5.9,20.7,3.7,26.6-5.1l48.5-71.4-23.1-34.2-57.1,84.1Z"/>
        </g>
      </g>
      <g>
        <path class="cls-2" d="m238,282.9l-102.7-152.2c0-.1-.2-.2-.2-.3,0-.1-.1-.2-.2-.3L61,20.6c-2.4-3.5-7.1-4.4-10.6-2.1l-11.5,7.7c-24.8,16.7-31.3,50.4-14.6,75.2l47.8,70.8c4.7,6.9,14.1,8.8,21.1,4.1l18.4-12.4,94.7,140.3c5.9,8.8,17.8,11.1,26.6,5.2h0c8.8-5.9,11.1-17.8,5.2-26.6Z"/>
        <g>
          <path class="cls-2" d="m293.5,63l-3.3-2.3c-3.7-2.5-9.1-1.2-11.9,3l-43.9,64.6c-2.9,4.3-8.4,5.7-12.3,3.1-3.8-2.6-4.6-8.2-1.7-12.5l43.9-64.6c2.8-4.2,2.1-9.6-1.6-12.2l-6.4-4.3c-3.7-2.5-9.1-1.2-11.9,3l-43.9,64.6c-2.9,4.3-8.4,5.7-12.3,3.1h0c-3.8-2.6-4.6-8.2-1.7-12.5l43.9-64.6c2.8-4.2,2.1-9.6-1.6-12.2l-3.3-2.3c-5.1-3.5-12.5-1.7-16.4,4.1l-45.5,66.9c-12.7,18.6-11.5,42.2,1.7,56.5l-5.7,8.4,23.1,34.2,14.3-21c18.2,7,40.5-.6,53.1-19.2l45.5-66.9c3.9-5.7,2.9-13.2-2.2-16.7Z"/>
          <path class="cls-2" d="m69.7,285.1c-5.9,8.8-3.7,20.7,5.1,26.6h0c8.8,5.9,20.7,3.7,26.6-5.1l48.5-71.4-23.1-34.2-57.1,84.1Z"/>
        </g>
      </g>
      <g>
        <path class="cls-3" d="m238,282.9l-102.7-152.2c0-.1-.2-.2-.2-.3,0-.1-.1-.2-.2-.3L61,20.6c-2.4-3.5-7.1-4.4-10.6-2.1l-11.5,7.7c-24.8,16.7-31.3,50.4-14.6,75.2l47.8,70.8c4.7,6.9,14.1,8.8,21.1,4.1l18.4-12.4,94.7,140.3c5.9,8.8,17.8,11.1,26.6,5.2h0c8.8-5.9,11.1-17.8,5.2-26.6Z"/>
        <g>
          <path class="cls-3" d="m293.5,63l-3.3-2.3c-3.7-2.5-9.1-1.2-11.9,3l-43.9,64.6c-2.9,4.3-8.4,5.7-12.3,3.1-3.8-2.6-4.6-8.2-1.7-12.5l43.9-64.6c2.8-4.2,2.1-9.6-1.6-12.2l-6.4-4.3c-3.7-2.5-9.1-1.2-11.9,3l-43.9,64.6c-2.9,4.3-8.4,5.7-12.3,3.1h0c-3.8-2.6-4.6-8.2-1.7-12.5l43.9-64.6c2.8-4.2,2.1-9.6-1.6-12.2l-3.3-2.3c-5.1-3.5-12.5-1.7-16.4,4.1l-45.5,66.9c-12.7,18.6-11.5,42.2,1.7,56.5l-5.7,8.4,23.1,34.2,14.3-21c18.2,7,40.5-.6,53.1-19.2l45.5-66.9c3.9-5.7,2.9-13.2-2.2-16.7Z"/>
          <path class="cls-3" d="m69.7,285.1c-5.9,8.8-3.7,20.7,5.1,26.6h0c8.8,5.9,20.7,3.7,26.6-5.1l48.5-71.4-23.1-34.2-57.1,84.1Z"/>
        </g>
      </g>
    </g>
  </g>
</svg>