<?xml version="1.0" encoding="UTF-8"?>
<svg id="Layer_2" data-name="Layer 2" xmlns="http://www.w3.org/2000/svg" width="330" height="243.7" viewBox="0 0 330 243.7">
  <defs>
    <style>
      .cls-1 {
        fill: #bcbfd3;
        stroke: #bcbfd3;
      }

      .cls-1, .cls-2 {
        stroke-linecap: round;
        stroke-linejoin: round;
        stroke-width: 30px;
      }

      .cls-3 {
        fill: #fcb84b;
      }

      .cls-4 {
        fill: #5876ba;
      }

      .cls-5 {
        fill: #b1c5e6;
      }

      .cls-2 {
        fill: #fff;
        stroke: #fff;
      }

      .cls-6 {
        fill: #50555f;
      }
    </style>
  </defs>
  <g id="Grouped">
    <g>
      <g>
        <path class="cls-1" d="m315,179.6c0,20.7-16.8,49.1-37.6,49.1h-3.2c-52.8-11-56.8-47.9-68.2-47.9h-82.1c-11.4,0-25.1,37.9-67.5,47.9h-3.2c-20.7,0-38.3-28.4-38.3-49.1v-17.1c0-35.9,22.8-100.6,54.7-127,10.9-9,25.4-12.4,39.2-9.4l3.5.8c4.5,1,8.8,2.7,12.7,5.1,9.9,6,13.8,12.8,13.8,12.8h52.1s3.9-6.8,13.8-12.8c3.9-2.4,8.2-4.1,12.7-5.1l3.5-.8c13.8-3,28.3.4,39.2,9.4,31.9,26.4,54.7,91.1,54.7,127v17.1Z"/>
        <line class="cls-1" x1="279.1" y1="228.7" x2="276" y2="228.7"/>
        <g>
          <g>
            <g>
              <circle class="cls-1" cx="229.8" cy="84.8" r="14.2"/>
              <circle class="cls-1" cx="229.8" cy="139.6" r="14.2"/>
            </g>
            <g>
              <circle class="cls-1" cx="256.3" cy="112.2" r="14.2"/>
              <circle class="cls-1" cx="203.2" cy="112.2" r="14.2"/>
            </g>
          </g>
          <path class="cls-1" d="m129.6,96.6h-11.9v-11.9c0-4.2-3.4-7.6-7.6-7.6h-15.9c-4.2,0-7.6,3.4-7.6,7.6v11.9h-11.9c-4.2,0-7.6,3.4-7.6,7.6v15.9c0,4.2,3.4,7.6,7.6,7.6h11.9v11.9c0,4.2,3.4,7.6,7.6,7.6h15.9c4.2,0,7.6-3.4,7.6-7.6v-11.9h11.9c4.2,0,7.6-3.4,7.6-7.6v-15.9c0-4.2-3.4-7.6-7.6-7.6Z"/>
        </g>
      </g>
      <g>
        <path class="cls-2" d="m315,169.6c0,20.7-16.8,49.1-37.6,49.1h-3.2c-52.8-11-56.8-47.9-68.2-47.9h-82.1c-11.4,0-25.1,37.9-67.5,47.9h-3.2c-20.7,0-38.3-28.4-38.3-49.1v-17.1c0-35.9,22.8-100.6,54.7-127,10.9-9,25.4-12.4,39.2-9.4l3.5.8c4.5,1,8.8,2.7,12.7,5.1,9.9,6,13.8,12.8,13.8,12.8h52.1s3.9-6.8,13.8-12.8c3.9-2.4,8.2-4.1,12.7-5.1l3.5-.8c13.8-3,28.3.4,39.2,9.4,31.9,26.4,54.7,91.1,54.7,127v17.1Z"/>
        <line class="cls-2" x1="279.1" y1="218.7" x2="276" y2="218.7"/>
        <g>
          <g>
            <g>
              <circle class="cls-2" cx="229.8" cy="74.8" r="14.2"/>
              <circle class="cls-2" cx="229.8" cy="129.6" r="14.2"/>
            </g>
            <g>
              <circle class="cls-2" cx="256.3" cy="102.2" r="14.2"/>
              <circle class="cls-2" cx="203.2" cy="102.2" r="14.2"/>
            </g>
          </g>
          <path class="cls-2" d="m129.6,86.6h-11.9v-11.9c0-4.2-3.4-7.6-7.6-7.6h-15.9c-4.2,0-7.6,3.4-7.6,7.6v11.9h-11.9c-4.2,0-7.6,3.4-7.6,7.6v15.9c0,4.2,3.4,7.6,7.6,7.6h11.9v11.9c0,4.2,3.4,7.6,7.6,7.6h15.9c4.2,0,7.6-3.4,7.6-7.6v-11.9h11.9c4.2,0,7.6-3.4,7.6-7.6v-15.9c0-4.2-3.4-7.6-7.6-7.6Z"/>
        </g>
      </g>
      <g>
        <path class="cls-6" d="m315,169.6c0,20.7-16.8,49.1-37.6,49.1h-3.2c-52.8-11-56.8-47.9-68.2-47.9h-82.1c-11.4,0-25.1,37.9-67.5,47.9h-3.2c-20.7,0-38.3-28.4-38.3-49.1v-17.1c0-35.9,22.8-100.6,54.7-127,10.9-9,25.4-12.4,39.2-9.4l3.5.8c4.5,1,8.8,2.7,12.7,5.1,9.9,6,13.8,12.8,13.8,12.8h52.1s3.9-6.8,13.8-12.8c3.9-2.4,8.2-4.1,12.7-5.1l3.5-.8c13.8-3,28.3.4,39.2,9.4,31.9,26.4,54.7,91.1,54.7,127v17.1Z"/>
        <line class="cls-4" x1="279.1" y1="218.7" x2="276" y2="218.7"/>
        <g>
          <g>
            <g>
              <circle class="cls-3" cx="229.8" cy="74.8" r="14.2"/>
              <circle class="cls-3" cx="229.8" cy="129.6" r="14.2"/>
            </g>
            <g>
              <circle class="cls-3" cx="256.3" cy="102.2" r="14.2"/>
              <circle class="cls-3" cx="203.2" cy="102.2" r="14.2"/>
            </g>
          </g>
          <path class="cls-5" d="m129.6,86.6h-11.9v-11.9c0-4.2-3.4-7.6-7.6-7.6h-15.9c-4.2,0-7.6,3.4-7.6,7.6v11.9h-11.9c-4.2,0-7.6,3.4-7.6,7.6v15.9c0,4.2,3.4,7.6,7.6,7.6h11.9v11.9c0,4.2,3.4,7.6,7.6,7.6h15.9c4.2,0,7.6-3.4,7.6-7.6v-11.9h11.9c4.2,0,7.6-3.4,7.6-7.6v-15.9c0-4.2-3.4-7.6-7.6-7.6Z"/>
        </g>
      </g>
    </g>
  </g>
</svg>