<?xml version="1.0" encoding="UTF-8"?>
<svg id="Layer_2" data-name="Layer 2" xmlns="http://www.w3.org/2000/svg" width="222.7" height="340" viewBox="0 0 222.7 340">
  <defs>
    <style>
      .cls-1 {
        fill: #bcbfd3;
        stroke: #bcbfd3;
      }

      .cls-1, .cls-2 {
        stroke-linecap: round;
        stroke-linejoin: round;
        stroke-width: 30px;
      }

      .cls-2 {
        fill: #fff;
        stroke: #fff;
      }

      .cls-3 {
        fill: #50555f;
      }
    </style>
  </defs>
  <g id="Grouped">
    <g>
      <g>
        <path class="cls-1" d="m109.6,268.1h-.4c-13.4,0-24.2-10.8-24.2-24.2v-47.3c0-13.1,10.6-23.7,23.7-23.7h0c26.6,0,49-20.6,50.2-47.2,1.3-28.4-21.4-51.9-49.5-51.9s-40.1,13.9-46.8,33.3c-3.4,9.8-12.9,16.3-23.3,16.3h0c-16.5,0-28.4-16.3-23-31.9C29.9,52,67.9,23.8,112.2,25c52.1,1.5,94.2,43.8,95.5,95.9,1.1,43.5-26.2,80.8-64.7,94.9-5.5,2-9.3,7.3-9.3,13.2v14.9c0,13.4-10.8,24.2-24.2,24.2Z"/>
        <circle class="cls-1" cx="111.4" cy="303.8" r="21.2"/>
      </g>
      <g>
        <path class="cls-2" d="m109.6,258.1h-.4c-13.4,0-24.2-10.8-24.2-24.2v-47.3c0-13.1,10.6-23.7,23.7-23.7h0c26.6,0,49-20.6,50.2-47.2,1.3-28.4-21.4-51.9-49.5-51.9s-40.1,13.9-46.8,33.3c-3.4,9.8-12.9,16.3-23.3,16.3h0c-16.5,0-28.4-16.3-23-31.9C29.9,42,67.9,13.8,112.2,15c52.1,1.5,94.2,43.8,95.5,95.9,1.1,43.5-26.2,80.8-64.7,94.9-5.5,2-9.3,7.3-9.3,13.2v14.9c0,13.4-10.8,24.2-24.2,24.2Z"/>
        <circle class="cls-2" cx="111.4" cy="293.8" r="21.2"/>
      </g>
      <g>
        <path class="cls-3" d="m109.6,258.1h-.4c-13.4,0-24.2-10.8-24.2-24.2v-47.3c0-13.1,10.6-23.7,23.7-23.7h0c26.6,0,49-20.6,50.2-47.2,1.3-28.4-21.4-51.9-49.5-51.9s-40.1,13.9-46.8,33.3c-3.4,9.8-12.9,16.3-23.3,16.3h0c-16.5,0-28.4-16.3-23-31.9C29.9,42,67.9,13.8,112.2,15c52.1,1.5,94.2,43.8,95.5,95.9,1.1,43.5-26.2,80.8-64.7,94.9-5.5,2-9.3,7.3-9.3,13.2v14.9c0,13.4-10.8,24.2-24.2,24.2Z"/>
        <circle class="cls-3" cx="111.4" cy="293.8" r="21.2"/>
      </g>
    </g>
  </g>
</svg>