<?xml version="1.0" encoding="UTF-8"?>
<svg id="Layer_2" data-name="Layer 2" xmlns="http://www.w3.org/2000/svg" width="330" height="314.2" viewBox="0 0 330 314.2">
  <defs>
    <style>
      .cls-1 {
        fill: #bcbfd3;
        stroke: #bcbfd3;
      }

      .cls-1, .cls-2 {
        stroke-linecap: round;
        stroke-linejoin: round;
        stroke-width: 30px;
      }

      .cls-3 {
        fill: #d769a8;
      }

      .cls-4 {
        fill: #fcb84b;
      }

      .cls-2 {
        fill: #fff;
        stroke: #fff;
      }

      .cls-5 {
        fill: #50555f;
      }
    </style>
  </defs>
  <g id="Grouped">
    <g>
      <g>
        <path class="cls-1" d="m222.8,81.8h-79.5l-29.7-28.5c-6.5-6.3-17.4-2.3-18.4,6.6l-3.4,30.4c-25.7,11.9-45,35.3-51.3,63.6h-13.4c-6.7,0-12.2,5.4-12.2,12.2v38.2c0,6.7,5.4,12.2,12.2,12.2h18.2c12.1,29.2,38.8,50.9,71,55.8v14.8c0,6.7,5.4,12.2,12.2,12.2h16.2c6.7,0,12.2-5.4,12.2-12.2v-13.7h47.6v13.7c0,6.7,5.4,12.2,12.2,12.2h16.2c6.7,0,12.2-5.4,12.2-12.2v-16.4c40.2-10,69.9-46.3,69.9-89.5v-7.1c0-50.9-41.3-92.2-92.2-92.2Z"/>
        <circle class="cls-1" cx="92.5" cy="164.9" r="15.3"/>
        <path class="cls-1" d="m222.8,73.8c5.1,0,10.1.4,15,1.1.5-2.6.8-5.3.8-8.1,0-23.1-18.7-41.9-41.9-41.9s-41.9,18.7-41.9,41.9.2,4.7.6,6.9h67.4Z"/>
      </g>
      <g>
        <path class="cls-2" d="m222.8,71.8h-79.5l-29.7-28.5c-6.5-6.3-17.4-2.3-18.4,6.6l-3.4,30.4c-25.7,11.9-45,35.3-51.3,63.6h-13.4c-6.7,0-12.2,5.4-12.2,12.2v38.2c0,6.7,5.4,12.2,12.2,12.2h18.2c12.1,29.2,38.8,50.9,71,55.8v14.8c0,6.7,5.4,12.2,12.2,12.2h16.2c6.7,0,12.2-5.4,12.2-12.2v-13.7h47.6v13.7c0,6.7,5.4,12.2,12.2,12.2h16.2c6.7,0,12.2-5.4,12.2-12.2v-16.4c40.2-10,69.9-46.3,69.9-89.5v-7.1c0-50.9-41.3-92.2-92.2-92.2Z"/>
        <circle class="cls-2" cx="92.5" cy="154.9" r="15.3"/>
        <path class="cls-2" d="m222.8,63.8c5.1,0,10.1.4,15,1.1.5-2.6.8-5.3.8-8.1,0-23.1-18.7-41.9-41.9-41.9s-41.9,18.7-41.9,41.9.2,4.7.6,6.9h67.4Z"/>
      </g>
      <g>
        <path class="cls-3" d="m222.8,71.8h-79.5l-29.7-28.5c-6.5-6.3-17.4-2.3-18.4,6.6l-3.4,30.4c-25.7,11.9-45,35.3-51.3,63.6h-13.4c-6.7,0-12.2,5.4-12.2,12.2v38.2c0,6.7,5.4,12.2,12.2,12.2h18.2c12.1,29.2,38.8,50.9,71,55.8v14.8c0,6.7,5.4,12.2,12.2,12.2h16.2c6.7,0,12.2-5.4,12.2-12.2v-13.7h47.6v13.7c0,6.7,5.4,12.2,12.2,12.2h16.2c6.7,0,12.2-5.4,12.2-12.2v-16.4c40.2-10,69.9-46.3,69.9-89.5v-7.1c0-50.9-41.3-92.2-92.2-92.2Z"/>
        <circle class="cls-5" cx="92.5" cy="154.9" r="15.3"/>
        <path class="cls-4" d="m222.8,63.8c5.1,0,10.1.4,15,1.1.5-2.6.8-5.3.8-8.1,0-23.1-18.7-41.9-41.9-41.9s-41.9,18.7-41.9,41.9.2,4.7.6,6.9h67.4Z"/>
      </g>
    </g>
  </g>
</svg>