<?xml version="1.0" encoding="UTF-8"?>
<svg id="Layer_2" data-name="Layer 2" xmlns="http://www.w3.org/2000/svg" width="330" height="336.7" viewBox="0 0 330 336.7">
  <defs>
    <style>
      .cls-1 {
        fill: #bcbfd3;
        stroke: #bcbfd3;
      }

      .cls-1, .cls-2 {
        stroke-linecap: round;
        stroke-linejoin: round;
        stroke-width: 30px;
      }

      .cls-3 {
        fill: #fcb84b;
      }

      .cls-4 {
        fill: #747f93;
      }

      .cls-2 {
        fill: #fff;
        stroke: #fff;
      }

      .cls-5 {
        fill: #50555f;
      }
    </style>
  </defs>
  <g id="Grouped">
    <g>
      <g>
        <path class="cls-1" d="m315,97.2c0-39.9-32.3-72.2-72.2-72.2s-.8,0-1.2,0c-44.1-.4-82.3,10.1-163.4,26-6.9,1.3-11.8,7.4-11.8,14.4v63.8c0,7.1,5.1,13.1,12,14.4,59.6,10.9,89.7,19.1,150,24.4,4.7.9,18.7,1.3,18.7,1.3,37.9-2.2,68-33.6,68-72.1Z"/>
        <path class="cls-1" d="m47,145.4l-17.2,2.7c-7.7,1.2-14.9-3.8-14.9-10.5V61.1c0-6.6,7.1-11.7,14.9-10.5l17.2,2.7c6,.9,10.3,5.3,10.3,10.5v71.2c0,5.1-4.3,9.5-10.3,10.5Z"/>
        <path class="cls-1" d="m247.1,179.1h-.2c-1.5,0-14.1-.4-19.4-1.4-10.9-1-20.8-2-30.1-3.2v12.3h-2.5c-6.4,0-11.6,5.2-11.6,11.6v22.1c0,6.4,5.2,11.6,11.6,11.6h2.5v51.8c0,20.8,16.8,37.6,37.6,37.6h0c20.8,0,37.6-16.8,37.6-37.6v-110.8c-7.8,3.3-16.4,5.3-25.3,5.8h-.2Z"/>
        <circle class="cls-1" cx="243.8" cy="97.7" r="36.2"/>
      </g>
      <g>
        <path class="cls-2" d="m315,87.2c0-39.9-32.3-72.2-72.2-72.2s-.8,0-1.2,0c-44.1-.4-82.3,10.1-163.4,26-6.9,1.3-11.8,7.4-11.8,14.4v63.8c0,7.1,5.1,13.1,12,14.4,59.6,10.9,89.7,19.1,150,24.4,4.7.9,18.7,1.3,18.7,1.3,37.9-2.2,68-33.6,68-72.1Z"/>
        <path class="cls-2" d="m47,135.4l-17.2,2.7c-7.7,1.2-14.9-3.8-14.9-10.5V51.1c0-6.6,7.1-11.7,14.9-10.5l17.2,2.7c6,.9,10.3,5.3,10.3,10.5v71.2c0,5.1-4.3,9.5-10.3,10.5Z"/>
        <path class="cls-2" d="m247.1,169.1h-.2c-1.5,0-14.1-.4-19.4-1.4-10.9-1-20.8-2-30.1-3.2v12.3h-2.5c-6.4,0-11.6,5.2-11.6,11.6v22.1c0,6.4,5.2,11.6,11.6,11.6h2.5v51.8c0,20.8,16.8,37.6,37.6,37.6h0c20.8,0,37.6-16.8,37.6-37.6v-110.8c-7.8,3.3-16.4,5.3-25.3,5.8h-.2Z"/>
        <circle class="cls-2" cx="243.8" cy="87.7" r="36.2"/>
      </g>
      <g>
        <path class="cls-3" d="m315,87.2c0-39.9-32.3-72.2-72.2-72.2s-.8,0-1.2,0c-44.1-.4-82.3,10.1-163.4,26-6.9,1.3-11.8,7.4-11.8,14.4v63.8c0,7.1,5.1,13.1,12,14.4,59.6,10.9,89.7,19.1,150,24.4,4.7.9,18.7,1.3,18.7,1.3,37.9-2.2,68-33.6,68-72.1Z"/>
        <path class="cls-5" d="m47,135.4l-17.2,2.7c-7.7,1.2-14.9-3.8-14.9-10.5V51.1c0-6.6,7.1-11.7,14.9-10.5l17.2,2.7c6,.9,10.3,5.3,10.3,10.5v71.2c0,5.1-4.3,9.5-10.3,10.5Z"/>
        <path class="cls-5" d="m247.1,169.1h-.2c-1.5,0-14.1-.4-19.4-1.4-10.9-1-20.8-2-30.1-3.2v12.3h-2.5c-6.4,0-11.6,5.2-11.6,11.6v22.1c0,6.4,5.2,11.6,11.6,11.6h2.5v51.8c0,20.8,16.8,37.6,37.6,37.6h0c20.8,0,37.6-16.8,37.6-37.6v-110.8c-7.8,3.3-16.4,5.3-25.3,5.8h-.2Z"/>
        <circle class="cls-4" cx="243.8" cy="87.7" r="36.2"/>
      </g>
    </g>
  </g>
</svg>