<?xml version="1.0" encoding="UTF-8"?>
<svg id="Layer_2" data-name="Layer 2" xmlns="http://www.w3.org/2000/svg" width="330" height="314.2" viewBox="0 0 330 314.2">
  <defs>
    <style>
      .cls-1 {
        fill: #bcbfd3;
        stroke: #bcbfd3;
      }

      .cls-1, .cls-2 {
        stroke-linecap: round;
        stroke-linejoin: round;
        stroke-width: 30px;
      }

      .cls-3 {
        fill: #fcb84b;
      }

      .cls-4 {
        fill: #5876ba;
      }

      .cls-5 {
        fill: #f04b36;
      }

      .cls-6 {
        fill: #73913c;
      }

      .cls-2 {
        fill: #fff;
        stroke: #fff;
      }

      .cls-7 {
        fill: #bb653f;
      }
    </style>
  </defs>
  <g id="Grouped">
    <g>
      <g>
        <g>
          <path class="cls-1" d="m289.5,107.6l.3.2,25.2-38.7C226.4,11.3,108.2,8.6,15,71.5l25.6,38c37.3-25.1,80.8-38.4,125.6-38.4s86.5,12.6,123.2,36.5Z"/>
          <path class="cls-1" d="m166.3,82c-.6,0-1.3,0-1.9,0,.6,0,1.3,0,1.9,0,0,0,0,0,0,0Z"/>
          <path class="cls-1" d="m166.6,299.2l117.2-182.7c-2.9-1.9-5.9-3.7-8.9-5.4-1.1-.7-2.3-1.3-3.4-1.9-.2,0-.3-.2-.5-.3-1-.5-2-1.1-3-1.6,0,0,0,0,0,0-3.5-1.8-7-3.6-10.6-5.2,0,0,0,0,0,0-4.2-1.9-8.4-3.7-12.6-5.3-4.3-1.6-8.6-3.1-12.9-4.5,0,0,0,0-.1,0-1.2-.4-2.4-.8-3.6-1.1,0,0,0,0,0,0-1.2-.4-2.5-.7-3.7-1.1,0,0-.1,0-.2,0-1.2-.3-2.4-.6-3.6-1-.2,0-.3,0-.5-.1-1.1-.3-2.2-.6-3.3-.8-.1,0-.3,0-.4,0-1.1-.3-2.3-.5-3.4-.8-.2,0-.4,0-.6-.1-1.1-.2-2.2-.5-3.3-.7-.2,0-.5,0-.8-.1-1-.2-2.1-.4-3.1-.6-.3,0-.6,0-.9-.2-1-.2-2-.4-3-.5-.3,0-.7-.1-1-.2-.9-.1-1.9-.3-2.8-.4-.4,0-.9-.1-1.3-.2-.9-.1-1.7-.2-2.6-.4-.5,0-.9-.1-1.4-.2-.8,0-1.6-.2-2.5-.3-.5,0-1,0-1.5-.1-.8,0-1.6-.2-2.4-.2-.5,0-1.1,0-1.6-.1-.8,0-1.5-.1-2.3-.2-.6,0-1.1,0-1.7-.1-.7,0-1.5-.1-2.2-.1-.6,0-1.2,0-1.8,0-.7,0-1.4,0-2.1,0-.6,0-1.2,0-1.8,0-.7,0-1.4,0-2.1,0-.6,0-1.2,0-1.8,0-.7,0-1.4,0-2.1,0-.6,0-1.3,0-1.9,0-.7,0-1.3,0-2,0-.6,0-1.3,0-1.9,0-.7,0-1.3,0-2,0-.7,0-1.3,0-2,0-.6,0-1.3,0-1.9,0-.7,0-1.4,0-2.1.1-.6,0-1.2,0-1.8.1-.7,0-1.5.1-2.2.2-.6,0-1.2,0-1.7.1-.8,0-1.5.2-2.3.2-.5,0-1.1.1-1.6.2-.8,0-1.7.2-2.5.3-.5,0-1,.1-1.4.2-.8.1-1.7.2-2.5.3-.5,0-.9.1-1.4.2-.8.1-1.7.3-2.5.4-.5,0-.9.1-1.4.2-.9.1-1.8.3-2.7.5-.4,0-.8.1-1.2.2-1,.2-2,.4-2.9.6-.3,0-.6.1-.9.2-1,.2-2.1.4-3.1.7-.3,0-.5.1-.8.2-1,.2-2,.5-3.1.7-.3,0-.5.1-.8.2-1.1.3-2.1.5-3.2.8-.2,0-.5.1-.7.2-1.2.3-2.3.6-3.5.9-.1,0-.3,0-.4.1-1.2.3-2.3.7-3.5,1-.1,0-.2,0-.3,0-1.1.3-2.3.7-3.4,1.1-.1,0-.3,0-.4.1-1.2.4-2.4.8-3.5,1.2,0,0-.2,0-.3,0-1.2.4-2.4.8-3.6,1.3,0,0-.1,0-.2,0-1.2.4-2.3.9-3.5,1.3,0,0-.2,0-.3.1-1.2.5-2.4.9-3.6,1.4,0,0-.1,0-.2,0-1.2.5-2.3,1-3.5,1.5,0,0-.2,0-.3.1-1.2.5-2.4,1-3.6,1.6,0,0,0,0-.1,0-1.2.5-2.3,1.1-3.5,1.6,0,0-.1,0-.2,0-1.2.6-2.4,1.1-3.6,1.7,0,0,0,0-.1,0-1.1.5-2.1,1.1-3.2,1.6-.2,0-.3.2-.5.3-1.1.6-2.2,1.1-3.2,1.7-.1,0-.3.1-.4.2-1.1.6-2.2,1.2-3.4,1.9,0,0-.2,0-.3.1-.8.5-1.7,1-2.5,1.5-.4.2-.7.4-1.1.6-.6.3-1.2.7-1.7,1.1-.6.4-1.2.7-1.8,1.1-.5.3-1,.6-1.5,1-.7.4-1.4.8-2,1.3-.6.4-1.2.8-1.8,1.2l120,181Z"/>
        </g>
        <circle class="cls-1" cx="204.4" cy="140.1" r="37.7"/>
        <path class="cls-1" d="m121,135.3l-3.5,3.4c-1.9,1.8-4.9,1.9-6.9.2l-11.9-10.3c-2.3-2-2.4-5.5-.2-7.6l5.7-5.4c2.2-2.1,5.7-1.8,7.6.5l9.8,12.4c1.6,2.1,1.4,5-.5,6.9Z"/>
        <path class="cls-1" d="m122.9,166.9c-13.9,0-25,7.5-31.5,18.6l37.1,56.5c18.2-2.7,32.2-18.4,32.2-37.3s-16.9-37.7-37.7-37.7Z"/>
        <path class="cls-1" d="m171.6,250.1l-3.9-2.8c-2.1-1.5-2.8-4.5-1.4-6.7l7.9-13.6c1.5-2.6,5-3.3,7.4-1.6l6.4,4.6c2.5,1.8,2.9,5.3.9,7.5l-10.4,11.9c-1.7,2-4.7,2.3-6.8.8Z"/>
        <path class="cls-1" d="m151.8,164.2l-2.3-4.3c-1.3-2.3-.5-5.2,1.7-6.7l13.1-8.8c2.5-1.7,5.9-.8,7.4,1.8l3.7,6.9c1.4,2.7.3,6-2.5,7.1l-14.5,6.1c-2.4,1-5.2,0-6.5-2.3Z"/>
      </g>
      <g>
        <g>
          <path class="cls-2" d="m289.5,97.5l.3.2,25.2-38.7C226.4,1.3,108.2-1.4,15,61.5l25.6,38c37.3-25.1,80.8-38.4,125.6-38.4s86.5,12.6,123.2,36.5Z"/>
          <path class="cls-2" d="m166.3,72c-.6,0-1.3,0-1.9,0,.6,0,1.3,0,1.9,0,0,0,0,0,0,0Z"/>
          <path class="cls-2" d="m166.6,289.1l117.2-182.7c-2.9-1.9-5.9-3.7-8.9-5.4-1.1-.7-2.3-1.3-3.4-1.9-.2,0-.3-.2-.5-.3-1-.5-2-1.1-3-1.6,0,0,0,0,0,0-3.5-1.8-7-3.6-10.6-5.2,0,0,0,0,0,0-4.2-1.9-8.4-3.7-12.6-5.3-4.3-1.6-8.6-3.1-12.9-4.5,0,0,0,0-.1,0-1.2-.4-2.4-.8-3.6-1.1,0,0,0,0,0,0-1.2-.4-2.5-.7-3.7-1.1,0,0-.1,0-.2,0-1.2-.3-2.4-.6-3.6-1-.2,0-.3,0-.5-.1-1.1-.3-2.2-.6-3.3-.8-.1,0-.3,0-.4,0-1.1-.3-2.3-.5-3.4-.8-.2,0-.4,0-.6-.1-1.1-.2-2.2-.5-3.3-.7-.2,0-.5,0-.8-.1-1-.2-2.1-.4-3.1-.6-.3,0-.6,0-.9-.2-1-.2-2-.4-3-.5-.3,0-.7-.1-1-.2-.9-.1-1.9-.3-2.8-.4-.4,0-.9-.1-1.3-.2-.9-.1-1.7-.2-2.6-.4-.5,0-.9-.1-1.4-.2-.8,0-1.6-.2-2.5-.3-.5,0-1,0-1.5-.1-.8,0-1.6-.2-2.4-.2-.5,0-1.1,0-1.6-.1-.8,0-1.5-.1-2.3-.2-.6,0-1.1,0-1.7-.1-.7,0-1.5-.1-2.2-.1-.6,0-1.2,0-1.8,0-.7,0-1.4,0-2.1,0-.6,0-1.2,0-1.8,0-.7,0-1.4,0-2.1,0-.6,0-1.2,0-1.8,0-.7,0-1.4,0-2.1,0-.6,0-1.3,0-1.9,0-.7,0-1.3,0-2,0-.6,0-1.3,0-1.9,0-.7,0-1.3,0-2,0-.7,0-1.3,0-2,0-.6,0-1.3,0-1.9,0-.7,0-1.4,0-2.1.1-.6,0-1.2,0-1.8.1-.7,0-1.5.1-2.2.2-.6,0-1.2,0-1.7.1-.8,0-1.5.2-2.3.2-.5,0-1.1.1-1.6.2-.8,0-1.7.2-2.5.3-.5,0-1,.1-1.4.2-.8.1-1.7.2-2.5.3-.5,0-.9.1-1.4.2-.8.1-1.7.3-2.5.4-.5,0-.9.1-1.4.2-.9.1-1.8.3-2.7.5-.4,0-.8.1-1.2.2-1,.2-2,.4-2.9.6-.3,0-.6.1-.9.2-1,.2-2.1.4-3.1.7-.3,0-.5.1-.8.2-1,.2-2,.5-3.1.7-.3,0-.5.1-.8.2-1.1.3-2.1.5-3.2.8-.2,0-.5.1-.7.2-1.2.3-2.3.6-3.5.9-.1,0-.3,0-.4.1-1.2.3-2.3.7-3.5,1-.1,0-.2,0-.3,0-1.1.3-2.3.7-3.4,1.1-.1,0-.3,0-.4.1-1.2.4-2.4.8-3.5,1.2,0,0-.2,0-.3,0-1.2.4-2.4.8-3.6,1.3,0,0-.1,0-.2,0-1.2.4-2.3.9-3.5,1.3,0,0-.2,0-.3.1-1.2.5-2.4.9-3.6,1.4,0,0-.1,0-.2,0-1.2.5-2.3,1-3.5,1.5,0,0-.2,0-.3.1-1.2.5-2.4,1-3.6,1.6,0,0,0,0-.1,0-1.2.5-2.3,1.1-3.5,1.6,0,0-.1,0-.2,0-1.2.6-2.4,1.1-3.6,1.7,0,0,0,0-.1,0-1.1.5-2.1,1.1-3.2,1.6-.2,0-.3.2-.5.3-1.1.6-2.2,1.1-3.2,1.7-.1,0-.3.1-.4.2-1.1.6-2.2,1.2-3.4,1.9,0,0-.2,0-.3.1-.8.5-1.7,1-2.5,1.5-.4.2-.7.4-1.1.6-.6.3-1.2.7-1.7,1.1-.6.4-1.2.7-1.8,1.1-.5.3-1,.6-1.5,1-.7.4-1.4.8-2,1.3-.6.4-1.2.8-1.8,1.2l120,181Z"/>
        </g>
        <circle class="cls-2" cx="204.4" cy="130.1" r="37.7"/>
        <path class="cls-2" d="m121,125.3l-3.5,3.4c-1.9,1.8-4.9,1.9-6.9.2l-11.9-10.3c-2.3-2-2.4-5.5-.2-7.6l5.7-5.4c2.2-2.1,5.7-1.8,7.6.5l9.8,12.4c1.6,2.1,1.4,5-.5,6.9Z"/>
        <path class="cls-2" d="m122.9,156.9c-13.9,0-25,7.5-31.5,18.6l37.1,56.5c18.2-2.7,32.2-18.4,32.2-37.3s-16.9-37.7-37.7-37.7Z"/>
        <path class="cls-2" d="m171.6,240l-3.9-2.8c-2.1-1.5-2.8-4.5-1.4-6.7l7.9-13.6c1.5-2.6,5-3.3,7.4-1.6l6.4,4.6c2.5,1.8,2.9,5.3.9,7.5l-10.4,11.9c-1.7,2-4.7,2.3-6.8.8Z"/>
        <path class="cls-2" d="m151.8,154.2l-2.3-4.3c-1.3-2.3-.5-5.2,1.7-6.7l13.1-8.8c2.5-1.7,5.9-.8,7.4,1.8l3.7,6.9c1.4,2.7.3,6-2.5,7.1l-14.5,6.1c-2.4,1-5.2,0-6.5-2.3Z"/>
      </g>
      <g>
        <g>
          <path class="cls-7" d="m289.5,97.5l.3.2,25.2-38.7C226.4,1.3,108.2-1.4,15,61.5l25.6,38c37.3-25.1,80.8-38.4,125.6-38.4s86.5,12.6,123.2,36.5Z"/>
          <path class="cls-4" d="m166.3,72c-.6,0-1.3,0-1.9,0,.6,0,1.3,0,1.9,0,0,0,0,0,0,0Z"/>
          <path class="cls-3" d="m166.6,289.1l117.2-182.7c-2.9-1.9-5.9-3.7-8.9-5.4-1.1-.7-2.3-1.3-3.4-1.9-.2,0-.3-.2-.5-.3-1-.5-2-1.1-3-1.6,0,0,0,0,0,0-3.5-1.8-7-3.6-10.6-5.2,0,0,0,0,0,0-4.2-1.9-8.4-3.7-12.6-5.3-4.3-1.6-8.6-3.1-12.9-4.5,0,0,0,0-.1,0-1.2-.4-2.4-.8-3.6-1.1,0,0,0,0,0,0-1.2-.4-2.5-.7-3.7-1.1,0,0-.1,0-.2,0-1.2-.3-2.4-.6-3.6-1-.2,0-.3,0-.5-.1-1.1-.3-2.2-.6-3.3-.8-.1,0-.3,0-.4,0-1.1-.3-2.3-.5-3.4-.8-.2,0-.4,0-.6-.1-1.1-.2-2.2-.5-3.3-.7-.2,0-.5,0-.8-.1-1-.2-2.1-.4-3.1-.6-.3,0-.6,0-.9-.2-1-.2-2-.4-3-.5-.3,0-.7-.1-1-.2-.9-.1-1.9-.3-2.8-.4-.4,0-.9-.1-1.3-.2-.9-.1-1.7-.2-2.6-.4-.5,0-.9-.1-1.4-.2-.8,0-1.6-.2-2.5-.3-.5,0-1,0-1.5-.1-.8,0-1.6-.2-2.4-.2-.5,0-1.1,0-1.6-.1-.8,0-1.5-.1-2.3-.2-.6,0-1.1,0-1.7-.1-.7,0-1.5-.1-2.2-.1-.6,0-1.2,0-1.8,0-.7,0-1.4,0-2.1,0-.6,0-1.2,0-1.8,0-.7,0-1.4,0-2.1,0-.6,0-1.2,0-1.8,0-.7,0-1.4,0-2.1,0-.6,0-1.3,0-1.9,0-.7,0-1.3,0-2,0-.6,0-1.3,0-1.9,0-.7,0-1.3,0-2,0-.7,0-1.3,0-2,0-.6,0-1.3,0-1.9,0-.7,0-1.4,0-2.1.1-.6,0-1.2,0-1.8.1-.7,0-1.5.1-2.2.2-.6,0-1.2,0-1.7.1-.8,0-1.5.2-2.3.2-.5,0-1.1.1-1.6.2-.8,0-1.7.2-2.5.3-.5,0-1,.1-1.4.2-.8.1-1.7.2-2.5.3-.5,0-.9.1-1.4.2-.8.1-1.7.3-2.5.4-.5,0-.9.1-1.4.2-.9.1-1.8.3-2.7.5-.4,0-.8.1-1.2.2-1,.2-2,.4-2.9.6-.3,0-.6.1-.9.2-1,.2-2.1.4-3.1.7-.3,0-.5.1-.8.2-1,.2-2,.5-3.1.7-.3,0-.5.1-.8.2-1.1.3-2.1.5-3.2.8-.2,0-.5.1-.7.2-1.2.3-2.3.6-3.5.9-.1,0-.3,0-.4.1-1.2.3-2.3.7-3.5,1-.1,0-.2,0-.3,0-1.1.3-2.3.7-3.4,1.1-.1,0-.3,0-.4.1-1.2.4-2.4.8-3.5,1.2,0,0-.2,0-.3,0-1.2.4-2.4.8-3.6,1.3,0,0-.1,0-.2,0-1.2.4-2.3.9-3.5,1.3,0,0-.2,0-.3.1-1.2.5-2.4.9-3.6,1.4,0,0-.1,0-.2,0-1.2.5-2.3,1-3.5,1.5,0,0-.2,0-.3.1-1.2.5-2.4,1-3.6,1.6,0,0,0,0-.1,0-1.2.5-2.3,1.1-3.5,1.6,0,0-.1,0-.2,0-1.2.6-2.4,1.1-3.6,1.7,0,0,0,0-.1,0-1.1.5-2.1,1.1-3.2,1.6-.2,0-.3.2-.5.3-1.1.6-2.2,1.1-3.2,1.7-.1,0-.3.1-.4.2-1.1.6-2.2,1.2-3.4,1.9,0,0-.2,0-.3.1-.8.5-1.7,1-2.5,1.5-.4.2-.7.4-1.1.6-.6.3-1.2.7-1.7,1.1-.6.4-1.2.7-1.8,1.1-.5.3-1,.6-1.5,1-.7.4-1.4.8-2,1.3-.6.4-1.2.8-1.8,1.2l120,181Z"/>
        </g>
        <circle class="cls-5" cx="204.4" cy="130.1" r="37.7"/>
        <path class="cls-6" d="m121,125.3l-3.5,3.4c-1.9,1.8-4.9,1.9-6.9.2l-11.9-10.3c-2.3-2-2.4-5.5-.2-7.6l5.7-5.4c2.2-2.1,5.7-1.8,7.6.5l9.8,12.4c1.6,2.1,1.4,5-.5,6.9Z"/>
        <path class="cls-5" d="m122.9,156.9c-13.9,0-25,7.5-31.5,18.6l37.1,56.5c18.2-2.7,32.2-18.4,32.2-37.3s-16.9-37.7-37.7-37.7Z"/>
        <path class="cls-6" d="m171.6,240l-3.9-2.8c-2.1-1.5-2.8-4.5-1.4-6.7l7.9-13.6c1.5-2.6,5-3.3,7.4-1.6l6.4,4.6c2.5,1.8,2.9,5.3.9,7.5l-10.4,11.9c-1.7,2-4.7,2.3-6.8.8Z"/>
        <path class="cls-6" d="m151.8,154.2l-2.3-4.3c-1.3-2.3-.5-5.2,1.7-6.7l13.1-8.8c2.5-1.7,5.9-.8,7.4,1.8l3.7,6.9c1.4,2.7.3,6-2.5,7.1l-14.5,6.1c-2.4,1-5.2,0-6.5-2.3Z"/>
      </g>
    </g>
  </g>
</svg>