<?xml version="1.0" encoding="UTF-8"?>
<svg id="Layer_2" data-name="Layer 2" xmlns="http://www.w3.org/2000/svg" width="261.8" height="340" viewBox="0 0 261.8 340">
  <defs>
    <style>
      .cls-1 {
        fill: #bcbfd3;
        stroke: #bcbfd3;
      }

      .cls-1, .cls-2 {
        stroke-linecap: round;
        stroke-linejoin: round;
        stroke-width: 30px;
      }

      .cls-3 {
        fill: #f04b36;
      }

      .cls-4 {
        fill: #747f93;
      }

      .cls-2 {
        fill: #fff;
        stroke: #fff;
      }

      .cls-5 {
        fill: #50555f;
      }
    </style>
  </defs>
  <g id="Grouped">
    <g>
      <g>
        <path class="cls-1" d="m225.6,268.7c-9.5,0-19.1-7.7-19.1-24.8s-2.4-14.2-7.4-18.6c-11.8-10.6-34-8.4-34.2-8.3-3.3.4-6.3-2-6.6-5.3-.4-3.3,2-6.2,5.3-6.6,1.1-.1,27.7-2.9,43.5,11.3,7.6,6.8,11.4,16.1,11.4,27.6s2.7,12.8,7.1,12.8,9.2-4.7,9.2-12.2c0-35.1-10.5-103.1-10.7-103.8-.5-3.3,1.7-6.3,5-6.9,3.3-.5,6.3,1.7,6.9,5,.4,2.8,10.8,69.6,10.8,105.6s-2.3,12.9-6.4,17.4c-4,4.3-9.4,6.8-14.8,6.8Z"/>
        <rect class="cls-1" x="15" y="287.4" width="174.7" height="37.6" rx="8.4" ry="8.4"/>
        <path class="cls-1" d="m161.4,25H43.3c-15.6,0-28.3,12.7-28.3,28.3v217.4c0,4.6,3.7,8.4,8.4,8.4h158c4.6,0,8.4-3.7,8.4-8.4V53.3c0-15.6-12.7-28.3-28.3-28.3Zm5,86.7c0,6.6-5.4,12-12,12H50.3c-6.6,0-12-5.4-12-12v-44.9c0-6.6,5.4-12,12-12h104c6.6,0,12,5.4,12,12v44.9Z"/>
        <path class="cls-1" d="m229.2,84.8c-3.2-8.4-8.1-18.2-16-28.2-1.9-2.4-5.3-3.2-8-1.6-3.1,1.9-3.8,6.1-1.6,8.9,7.3,9.3,11.8,18.3,14.6,26l-9.7,4.5c-2.3,1.1-3.6,3.5-3.3,6l4,27.9c.4,3.1,3.4,5.3,6.5,4.9l15-2.1c3.1-.4,5.3-3.4,4.9-6.5l-1.9-13.5h0c0,0-3.2-22.4-3.2-22.4-.4-1.2-.9-2.5-1.4-3.9Z"/>
      </g>
      <g>
        <path class="cls-2" d="m225.6,258.7c-9.5,0-19.1-7.7-19.1-24.8s-2.4-14.2-7.4-18.6c-11.8-10.6-34-8.4-34.2-8.3-3.3.4-6.3-2-6.6-5.3-.4-3.3,2-6.2,5.3-6.6,1.1-.1,27.7-2.9,43.5,11.3,7.6,6.8,11.4,16.1,11.4,27.6s2.7,12.8,7.1,12.8,9.2-4.7,9.2-12.2c0-35.1-10.5-103.1-10.7-103.8-.5-3.3,1.7-6.3,5-6.9,3.3-.5,6.3,1.7,6.9,5,.4,2.8,10.8,69.6,10.8,105.6s-2.3,12.9-6.4,17.4c-4,4.3-9.4,6.8-14.8,6.8Z"/>
        <rect class="cls-2" x="15" y="277.4" width="174.7" height="37.6" rx="8.4" ry="8.4"/>
        <path class="cls-2" d="m161.4,15H43.3c-15.6,0-28.3,12.7-28.3,28.3v217.4c0,4.6,3.7,8.4,8.4,8.4h158c4.6,0,8.4-3.7,8.4-8.4V43.3c0-15.6-12.7-28.3-28.3-28.3Zm5,86.7c0,6.6-5.4,12-12,12H50.3c-6.6,0-12-5.4-12-12v-44.9c0-6.6,5.4-12,12-12h104c6.6,0,12,5.4,12,12v44.9Z"/>
        <path class="cls-2" d="m229.2,74.8c-3.2-8.4-8.1-18.2-16-28.2-1.9-2.4-5.3-3.2-8-1.6-3.1,1.9-3.8,6.1-1.6,8.9,7.3,9.3,11.8,18.3,14.6,26l-9.7,4.5c-2.3,1.1-3.6,3.5-3.3,6l4,27.9c.4,3.1,3.4,5.3,6.5,4.9l15-2.1c3.1-.4,5.3-3.4,4.9-6.5l-1.9-13.5h0c0,0-3.2-22.4-3.2-22.4-.4-1.2-.9-2.5-1.4-3.9Z"/>
      </g>
      <g>
        <path class="cls-5" d="m225.6,258.7c-9.5,0-19.1-7.7-19.1-24.8s-2.4-14.2-7.4-18.6c-11.8-10.6-34-8.4-34.2-8.3-3.3.4-6.3-2-6.6-5.3-.4-3.3,2-6.2,5.3-6.6,1.1-.1,27.7-2.9,43.5,11.3,7.6,6.8,11.4,16.1,11.4,27.6s2.7,12.8,7.1,12.8,9.2-4.7,9.2-12.2c0-35.1-10.5-103.1-10.7-103.8-.5-3.3,1.7-6.3,5-6.9,3.3-.5,6.3,1.7,6.9,5,.4,2.8,10.8,69.6,10.8,105.6s-2.3,12.9-6.4,17.4c-4,4.3-9.4,6.8-14.8,6.8Z"/>
        <rect class="cls-4" x="15" y="277.4" width="174.7" height="37.6" rx="8.4" ry="8.4"/>
        <path class="cls-3" d="m161.4,15H43.3c-15.6,0-28.3,12.7-28.3,28.3v217.4c0,4.6,3.7,8.4,8.4,8.4h158c4.6,0,8.4-3.7,8.4-8.4V43.3c0-15.6-12.7-28.3-28.3-28.3Zm5,86.7c0,6.6-5.4,12-12,12H50.3c-6.6,0-12-5.4-12-12v-44.9c0-6.6,5.4-12,12-12h104c6.6,0,12,5.4,12,12v44.9Z"/>
        <path class="cls-5" d="m229.2,74.8c-3.2-8.4-8.1-18.2-16-28.2-1.9-2.4-5.3-3.2-8-1.6-3.1,1.9-3.8,6.1-1.6,8.9,7.3,9.3,11.8,18.3,14.6,26l-9.7,4.5c-2.3,1.1-3.6,3.5-3.3,6l4,27.9c.4,3.1,3.4,5.3,6.5,4.9l15-2.1c3.1-.4,5.3-3.4,4.9-6.5l-1.9-13.5h0c0,0-3.2-22.4-3.2-22.4-.4-1.2-.9-2.5-1.4-3.9Z"/>
      </g>
    </g>
  </g>
</svg>