<?xml version="1.0" encoding="UTF-8"?>
<svg id="Layer_2" data-name="Layer 2" xmlns="http://www.w3.org/2000/svg" width="330" height="277.1" viewBox="0 0 330 277.1">
  <defs>
    <style>
      .cls-1 {
        fill: #bcbfd3;
        stroke: #bcbfd3;
      }

      .cls-1, .cls-2 {
        stroke-linecap: round;
        stroke-linejoin: round;
        stroke-width: 30px;
      }

      .cls-3 {
        fill: #f04b36;
      }

      .cls-4 {
        fill: #b1c5e6;
      }

      .cls-2 {
        fill: #fff;
        stroke: #fff;
      }
    </style>
  </defs>
  <g id="Grouped">
    <g>
      <g>
        <path class="cls-1" d="m50.9,197.5c.4.1.9.3,1.3.4.7.2,1.5.5,2.2.7.4.1.8.3,1.2.4.7.3,1.5.5,2.3.8.6.2,1.1.4,1.7.6.6.2,1.2.4,1.8.6.6.2,1.3.5,1.9.7.5.2,1.1.4,1.6.6.7.3,1.5.6,2.2.8.4.2.9.3,1.3.5.8.3,1.7.7,2.5,1,.3.1.7.3,1,.4.9.3,1.7.7,2.6,1,.3.1.7.3,1,.4.9.4,1.8.7,2.7,1.1.3.1.6.2.9.4,1,.4,1.9.8,2.9,1.2.2,0,.5.2.7.3,1,.4,2,.9,3.1,1.3.2,0,.4.2.5.2,1,.5,2,.9,3.1,1.4.2,0,.4.2.5.2,1,.5,2,.9,3,1.4.2,0,.4.2.6.3,1.1.5,2.1,1,3.2,1.5.2,0,.3.1.5.2,1.2.6,2.3,1.1,3.5,1.7,0,0,.1,0,.2,0,1.2.6,2.3,1.2,3.5,1.8,0,0,0,0,.1,0,1.1.6,2.3,1.2,3.4,1.8,0,0,.2,0,.3.1,1.1.6,2.3,1.2,3.4,1.8,0,0,.2,0,.3.1,1.2.6,2.4,1.3,3.6,1.9,0,0,0,0,.1,0,1.2.6,2.3,1.3,3.5,1.9,0,0,.1,0,.2.1,1.2.7,2.4,1.3,3.7,2,0,0,0,0,0,0,1.2.7,2.5,1.4,3.7,2.1,0,0,0,0,0,0,1.3.7,2.5,1.4,3.8,2.2,0,0,0,0,0,0,3.8,2.2,7.6,4.5,11.4,6.8,0,0,0,0,0,0,1.3.8,2.5,1.6,3.8,2.4,0,0,0,0,0,0,1.2.8,2.4,1.5,3.7,2.3,0,0,.1,0,.2.1,1.3.8,2.5,1.6,3.8,2.4,0,0,0,0,0,0,1.3.8,2.5,1.7,3.8,2.5,0,0,0,0,0,0,1.4.9,2.7,1.8,4.1,2.7h0s0-172.2,0-172.2c-35.8-29-72.1-46.8-108.7-55.9-4.5-1.1-8.8,2.3-8.8,6.9v163.3c1.1.3,2.3.7,3.4,1,.1,0,.2,0,.4.1,1,.3,2.1.6,3.1,1Z"/>
        <path class="cls-1" d="m138.1,254.9c-37-14.4-72.4-23.3-105.2-26.4l-6.4-.6V61.8l-6.3-1c-2.7-.4-5.1,1.6-5.1,4.4v164.8c0,5.6,4.4,10.4,10.4,11.4l126.9,20.7c1.1.2,1.5-1.3.5-1.7l-14.7-5.4Z"/>
        <path class="cls-1" d="m134.2,244.3c-4.3-2.6-8.6-5.1-12.9-7.5-8.5-4.8-16.9-9.3-25.2-13.3-2.1-1-4.1-2-6.2-3-4.1-1.9-8.2-3.8-12.3-5.5-4.1-1.7-8.1-3.4-12.1-4.9-8-3.1-15.8-5.7-23.5-8l-5.1-1.5V49.4c-1.1,0-2.3,0-3.4,0v172.2c4.2.4,8.5.9,12.7,1.4,4.3.6,8.6,1.2,12.9,2,4.3.8,8.7,1.6,13.1,2.5,4.4.9,8.8,2,13.3,3.1,4.5,1.1,9,2.3,13.5,3.6,6.8,1.9,13.6,4.1,20.6,6.5,6.9,2.4,13.9,4.9,21,7.7-2.2-1.4-4.3-2.7-6.5-4Z"/>
        <path class="cls-1" d="m172.6,250.6c1.3-.8,2.6-1.7,3.8-2.5,0,0,0,0,0,0,1.3-.8,2.5-1.6,3.8-2.4,0,0,.1,0,.2-.1,1.2-.8,2.4-1.6,3.7-2.3,0,0,0,0,0,0,1.3-.8,2.5-1.6,3.8-2.4,0,0,0,0,0,0,3.8-2.4,7.6-4.6,11.4-6.8,0,0,0,0,0,0,1.3-.7,2.5-1.5,3.8-2.2,0,0,0,0,0,0,1.2-.7,2.5-1.4,3.7-2.1,0,0,0,0,0,0,1.2-.7,2.4-1.4,3.7-2,0,0,.1,0,.2-.1,1.2-.6,2.3-1.3,3.5-1.9,0,0,0,0,.1,0,1.2-.7,2.4-1.3,3.6-1.9,0,0,.2,0,.3-.1,1.1-.6,2.3-1.2,3.4-1.8,0,0,.2,0,.3-.1,1.1-.6,2.3-1.2,3.4-1.8,0,0,0,0,.1,0,1.2-.6,2.4-1.2,3.5-1.8,0,0,.1,0,.2,0,1.2-.6,2.3-1.1,3.5-1.7.2,0,.3-.1.5-.2,1.1-.5,2.1-1,3.2-1.5.2,0,.4-.2.6-.3,1-.5,2-.9,3-1.4.2,0,.4-.2.5-.2,1-.5,2-.9,3.1-1.4.2,0,.4-.2.5-.2,1-.5,2-.9,3.1-1.3.2,0,.5-.2.7-.3,1-.4,1.9-.8,2.9-1.2.3-.1.6-.2.9-.4.9-.4,1.8-.8,2.7-1.1.3-.1.7-.3,1-.4.9-.3,1.7-.7,2.6-1,.3-.1.7-.3,1-.4.8-.3,1.7-.7,2.5-1,.4-.2.9-.3,1.3-.5.7-.3,1.5-.6,2.2-.8.5-.2,1.1-.4,1.6-.6.6-.2,1.3-.5,1.9-.7.6-.2,1.2-.4,1.8-.6.6-.2,1.1-.4,1.7-.6.8-.3,1.5-.5,2.3-.8.4-.1.8-.3,1.2-.4.7-.2,1.5-.5,2.2-.7.4-.1.9-.3,1.3-.4,1-.3,2.1-.7,3.1-1,.1,0,.2,0,.4-.1,1.1-.4,2.3-.7,3.4-1V32.1c0-4.6-4.3-8-8.8-6.9-36.6,9.1-72.9,26.9-108.7,55.9v172.2s0,0,0,0c1.4-.9,2.7-1.8,4.1-2.7,0,0,0,0,0,0Z"/>
        <path class="cls-1" d="m191.9,254.9c37-14.5,72.4-23.3,105.2-26.4l6.4-.6v-6.5s0-159.7,0-159.7l6.3-1c2.7-.4,5.1,1.6,5.1,4.4v164.8c0,5.6-4.4,10.4-10.4,11.4l-126.9,20.7c-1.1.2-1.5-1.3-.5-1.7l14.7-5.4Z"/>
        <path class="cls-1" d="m293,49.4v151.3l-5.1,1.5c-7.7,2.3-15.5,4.9-23.5,8-4,1.5-8,3.2-12.1,4.9-4.1,1.7-8.1,3.6-12.3,5.5-2.1,1-4.1,2-6.2,3-8.3,4-16.7,8.5-25.2,13.3-4.3,2.4-8.6,4.9-12.9,7.5-2.2,1.3-4.3,2.6-6.5,4,7.1-2.8,14.1-5.3,21-7.7,6.9-2.4,13.8-4.5,20.6-6.5,4.5-1.3,9-2.5,13.5-3.6,4.5-1.1,8.9-2.1,13.3-3.1,4.4-.9,8.8-1.8,13.1-2.5s8.6-1.4,12.9-2,8.5-1.1,12.7-1.4V49.3c-1.1,0-2.3,0-3.4,0Z"/>
      </g>
      <g>
        <path class="cls-2" d="m50.9,187.5c.4.1.9.3,1.3.4.7.2,1.5.5,2.2.7.4.1.8.3,1.2.4.7.3,1.5.5,2.3.8.6.2,1.1.4,1.7.6.6.2,1.2.4,1.8.6.6.2,1.3.5,1.9.7.5.2,1.1.4,1.6.6.7.3,1.5.6,2.2.8.4.2.9.3,1.3.5.8.3,1.7.7,2.5,1,.3.1.7.3,1,.4.9.3,1.7.7,2.6,1,.3.1.7.3,1,.4.9.4,1.8.7,2.7,1.1.3.1.6.2.9.4,1,.4,1.9.8,2.9,1.2.2,0,.5.2.7.3,1,.4,2,.9,3.1,1.3.2,0,.4.2.5.2,1,.5,2,.9,3.1,1.4.2,0,.4.2.5.2,1,.5,2,.9,3,1.4.2,0,.4.2.6.3,1.1.5,2.1,1,3.2,1.5.2,0,.3.1.5.2,1.2.6,2.3,1.1,3.5,1.7,0,0,.1,0,.2,0,1.2.6,2.3,1.2,3.5,1.8,0,0,0,0,.1,0,1.1.6,2.3,1.2,3.4,1.8,0,0,.2,0,.3.1,1.1.6,2.3,1.2,3.4,1.8,0,0,.2,0,.3.1,1.2.6,2.4,1.3,3.6,1.9,0,0,0,0,.1,0,1.2.6,2.3,1.3,3.5,1.9,0,0,.1,0,.2.1,1.2.7,2.4,1.3,3.7,2,0,0,0,0,0,0,1.2.7,2.5,1.4,3.7,2.1,0,0,0,0,0,0,1.3.7,2.5,1.4,3.8,2.2,0,0,0,0,0,0,3.8,2.2,7.6,4.5,11.4,6.8,0,0,0,0,0,0,1.3.8,2.5,1.6,3.8,2.4,0,0,0,0,0,0,1.2.8,2.4,1.5,3.7,2.3,0,0,.1,0,.2.1,1.3.8,2.5,1.6,3.8,2.4,0,0,0,0,0,0,1.3.8,2.5,1.7,3.8,2.5,0,0,0,0,0,0,1.4.9,2.7,1.8,4.1,2.7h0s0-172.2,0-172.2C125.8,42.1,89.5,24.3,52.9,15.2c-4.5-1.1-8.8,2.3-8.8,6.9v163.3c1.1.3,2.3.7,3.4,1,.1,0,.2,0,.4.1,1,.3,2.1.6,3.1,1Z"/>
        <path class="cls-2" d="m138.1,244.9c-37-14.4-72.4-23.3-105.2-26.4l-6.4-.6V51.8l-6.3-1c-2.7-.4-5.1,1.6-5.1,4.4v164.8c0,5.6,4.4,10.4,10.4,11.4l126.9,20.7c1.1.2,1.5-1.3.5-1.7l-14.7-5.4Z"/>
        <path class="cls-2" d="m134.2,234.3c-4.3-2.6-8.6-5.1-12.9-7.5-8.5-4.8-16.9-9.3-25.2-13.3-2.1-1-4.1-2-6.2-3-4.1-1.9-8.2-3.8-12.3-5.5-4.1-1.7-8.1-3.4-12.1-4.9-8-3.1-15.8-5.7-23.5-8l-5.1-1.5V39.4c-1.1,0-2.3,0-3.4,0v172.2c4.2.4,8.5.9,12.7,1.4,4.3.6,8.6,1.2,12.9,2,4.3.8,8.7,1.6,13.1,2.5,4.4.9,8.8,2,13.3,3.1,4.5,1.1,9,2.3,13.5,3.6,6.8,1.9,13.6,4.1,20.6,6.5,6.9,2.4,13.9,4.9,21,7.7-2.2-1.4-4.3-2.7-6.5-4Z"/>
        <path class="cls-2" d="m172.6,240.6c1.3-.8,2.6-1.7,3.8-2.5,0,0,0,0,0,0,1.3-.8,2.5-1.6,3.8-2.4,0,0,.1,0,.2-.1,1.2-.8,2.4-1.6,3.7-2.3,0,0,0,0,0,0,1.3-.8,2.5-1.6,3.8-2.4,0,0,0,0,0,0,3.8-2.4,7.6-4.6,11.4-6.8,0,0,0,0,0,0,1.3-.7,2.5-1.5,3.8-2.2,0,0,0,0,0,0,1.2-.7,2.5-1.4,3.7-2.1,0,0,0,0,0,0,1.2-.7,2.4-1.4,3.7-2,0,0,.1,0,.2-.1,1.2-.6,2.3-1.3,3.5-1.9,0,0,0,0,.1,0,1.2-.7,2.4-1.3,3.6-1.9,0,0,.2,0,.3-.1,1.1-.6,2.3-1.2,3.4-1.8,0,0,.2,0,.3-.1,1.1-.6,2.3-1.2,3.4-1.8,0,0,0,0,.1,0,1.2-.6,2.4-1.2,3.5-1.8,0,0,.1,0,.2,0,1.2-.6,2.3-1.1,3.5-1.7.2,0,.3-.1.5-.2,1.1-.5,2.1-1,3.2-1.5.2,0,.4-.2.6-.3,1-.5,2-.9,3-1.4.2,0,.4-.2.5-.2,1-.5,2-.9,3.1-1.4.2,0,.4-.2.5-.2,1-.5,2-.9,3.1-1.3.2,0,.5-.2.7-.3,1-.4,1.9-.8,2.9-1.2.3-.1.6-.2.9-.4.9-.4,1.8-.8,2.7-1.1.3-.1.7-.3,1-.4.9-.3,1.7-.7,2.6-1,.3-.1.7-.3,1-.4.8-.3,1.7-.7,2.5-1,.4-.2.9-.3,1.3-.5.7-.3,1.5-.6,2.2-.8.5-.2,1.1-.4,1.6-.6.6-.2,1.3-.5,1.9-.7.6-.2,1.2-.4,1.8-.6.6-.2,1.1-.4,1.7-.6.8-.3,1.5-.5,2.3-.8.4-.1.8-.3,1.2-.4.7-.2,1.5-.5,2.2-.7.4-.1.9-.3,1.3-.4,1-.3,2.1-.7,3.1-1,.1,0,.2,0,.4-.1,1.1-.4,2.3-.7,3.4-1V22.1c0-4.6-4.3-8-8.8-6.9-36.6,9.1-72.9,26.9-108.7,55.9v172.2s0,0,0,0c1.4-.9,2.7-1.8,4.1-2.7,0,0,0,0,0,0Z"/>
        <path class="cls-2" d="m191.9,244.9c37-14.5,72.4-23.3,105.2-26.4l6.4-.6v-6.5s0-159.7,0-159.7l6.3-1c2.7-.4,5.1,1.6,5.1,4.4v164.8c0,5.6-4.4,10.4-10.4,11.4l-126.9,20.7c-1.1.2-1.5-1.3-.5-1.7l14.7-5.4Z"/>
        <path class="cls-2" d="m293,39.4v151.3l-5.1,1.5c-7.7,2.3-15.5,4.9-23.5,8-4,1.5-8,3.2-12.1,4.9-4.1,1.7-8.1,3.6-12.3,5.5-2.1,1-4.1,2-6.2,3-8.3,4-16.7,8.5-25.2,13.3-4.3,2.4-8.6,4.9-12.9,7.5-2.2,1.3-4.3,2.6-6.5,4,7.1-2.8,14.1-5.3,21-7.7,6.9-2.4,13.8-4.5,20.6-6.5,4.5-1.3,9-2.5,13.5-3.6,4.5-1.1,8.9-2.1,13.3-3.1,4.4-.9,8.8-1.8,13.1-2.5s8.6-1.4,12.9-2,8.5-1.1,12.7-1.4V39.3c-1.1,0-2.3,0-3.4,0Z"/>
      </g>
      <g>
        <path class="cls-4" d="m50.9,187.5c.4.1.9.3,1.3.4.7.2,1.5.5,2.2.7.4.1.8.3,1.2.4.7.3,1.5.5,2.3.8.6.2,1.1.4,1.7.6.6.2,1.2.4,1.8.6.6.2,1.3.5,1.9.7.5.2,1.1.4,1.6.6.7.3,1.5.6,2.2.8.4.2.9.3,1.3.5.8.3,1.7.7,2.5,1,.3.1.7.3,1,.4.9.3,1.7.7,2.6,1,.3.1.7.3,1,.4.9.4,1.8.7,2.7,1.1.3.1.6.2.9.4,1,.4,1.9.8,2.9,1.2.2,0,.5.2.7.3,1,.4,2,.9,3.1,1.3.2,0,.4.2.5.2,1,.5,2,.9,3.1,1.4.2,0,.4.2.5.2,1,.5,2,.9,3,1.4.2,0,.4.2.6.3,1.1.5,2.1,1,3.2,1.5.2,0,.3.1.5.2,1.2.6,2.3,1.1,3.5,1.7,0,0,.1,0,.2,0,1.2.6,2.3,1.2,3.5,1.8,0,0,0,0,.1,0,1.1.6,2.3,1.2,3.4,1.8,0,0,.2,0,.3.1,1.1.6,2.3,1.2,3.4,1.8,0,0,.2,0,.3.1,1.2.6,2.4,1.3,3.6,1.9,0,0,0,0,.1,0,1.2.6,2.3,1.3,3.5,1.9,0,0,.1,0,.2.1,1.2.7,2.4,1.3,3.7,2,0,0,0,0,0,0,1.2.7,2.5,1.4,3.7,2.1,0,0,0,0,0,0,1.3.7,2.5,1.4,3.8,2.2,0,0,0,0,0,0,3.8,2.2,7.6,4.5,11.4,6.8,0,0,0,0,0,0,1.3.8,2.5,1.6,3.8,2.4,0,0,0,0,0,0,1.2.8,2.4,1.5,3.7,2.3,0,0,.1,0,.2.1,1.3.8,2.5,1.6,3.8,2.4,0,0,0,0,0,0,1.3.8,2.5,1.7,3.8,2.5,0,0,0,0,0,0,1.4.9,2.7,1.8,4.1,2.7h0s0-172.2,0-172.2C125.8,42.1,89.5,24.3,52.9,15.2c-4.5-1.1-8.8,2.3-8.8,6.9v163.3c1.1.3,2.3.7,3.4,1,.1,0,.2,0,.4.1,1,.3,2.1.6,3.1,1Z"/>
        <path class="cls-3" d="m138.1,244.9c-37-14.4-72.4-23.3-105.2-26.4l-6.4-.6V51.8l-6.3-1c-2.7-.4-5.1,1.6-5.1,4.4v164.8c0,5.6,4.4,10.4,10.4,11.4l126.9,20.7c1.1.2,1.5-1.3.5-1.7l-14.7-5.4Z"/>
        <path class="cls-4" d="m134.2,234.3c-4.3-2.6-8.6-5.1-12.9-7.5-8.5-4.8-16.9-9.3-25.2-13.3-2.1-1-4.1-2-6.2-3-4.1-1.9-8.2-3.8-12.3-5.5-4.1-1.7-8.1-3.4-12.1-4.9-8-3.1-15.8-5.7-23.5-8l-5.1-1.5V39.4c-1.1,0-2.3,0-3.4,0v172.2c4.2.4,8.5.9,12.7,1.4,4.3.6,8.6,1.2,12.9,2,4.3.8,8.7,1.6,13.1,2.5,4.4.9,8.8,2,13.3,3.1,4.5,1.1,9,2.3,13.5,3.6,6.8,1.9,13.6,4.1,20.6,6.5,6.9,2.4,13.9,4.9,21,7.7-2.2-1.4-4.3-2.7-6.5-4Z"/>
        <path class="cls-4" d="m172.6,240.6c1.3-.8,2.6-1.7,3.8-2.5,0,0,0,0,0,0,1.3-.8,2.5-1.6,3.8-2.4,0,0,.1,0,.2-.1,1.2-.8,2.4-1.6,3.7-2.3,0,0,0,0,0,0,1.3-.8,2.5-1.6,3.8-2.4,0,0,0,0,0,0,3.8-2.4,7.6-4.6,11.4-6.8,0,0,0,0,0,0,1.3-.7,2.5-1.5,3.8-2.2,0,0,0,0,0,0,1.2-.7,2.5-1.4,3.7-2.1,0,0,0,0,0,0,1.2-.7,2.4-1.4,3.7-2,0,0,.1,0,.2-.1,1.2-.6,2.3-1.3,3.5-1.9,0,0,0,0,.1,0,1.2-.7,2.4-1.3,3.6-1.9,0,0,.2,0,.3-.1,1.1-.6,2.3-1.2,3.4-1.8,0,0,.2,0,.3-.1,1.1-.6,2.3-1.2,3.4-1.8,0,0,0,0,.1,0,1.2-.6,2.4-1.2,3.5-1.8,0,0,.1,0,.2,0,1.2-.6,2.3-1.1,3.5-1.7.2,0,.3-.1.5-.2,1.1-.5,2.1-1,3.2-1.5.2,0,.4-.2.6-.3,1-.5,2-.9,3-1.4.2,0,.4-.2.5-.2,1-.5,2-.9,3.1-1.4.2,0,.4-.2.5-.2,1-.5,2-.9,3.1-1.3.2,0,.5-.2.7-.3,1-.4,1.9-.8,2.9-1.2.3-.1.6-.2.9-.4.9-.4,1.8-.8,2.7-1.1.3-.1.7-.3,1-.4.9-.3,1.7-.7,2.6-1,.3-.1.7-.3,1-.4.8-.3,1.7-.7,2.5-1,.4-.2.9-.3,1.3-.5.7-.3,1.5-.6,2.2-.8.5-.2,1.1-.4,1.6-.6.6-.2,1.3-.5,1.9-.7.6-.2,1.2-.4,1.8-.6.6-.2,1.1-.4,1.7-.6.8-.3,1.5-.5,2.3-.8.4-.1.8-.3,1.2-.4.7-.2,1.5-.5,2.2-.7.4-.1.9-.3,1.3-.4,1-.3,2.1-.7,3.1-1,.1,0,.2,0,.4-.1,1.1-.4,2.3-.7,3.4-1V22.1c0-4.6-4.3-8-8.8-6.9-36.6,9.1-72.9,26.9-108.7,55.9v172.2s0,0,0,0c1.4-.9,2.7-1.8,4.1-2.7,0,0,0,0,0,0Z"/>
        <path class="cls-3" d="m191.9,244.9c37-14.5,72.4-23.3,105.2-26.4l6.4-.6v-6.5s0-159.7,0-159.7l6.3-1c2.7-.4,5.1,1.6,5.1,4.4v164.8c0,5.6-4.4,10.4-10.4,11.4l-126.9,20.7c-1.1.2-1.5-1.3-.5-1.7l14.7-5.4Z"/>
        <path class="cls-4" d="m293,39.4v151.3l-5.1,1.5c-7.7,2.3-15.5,4.9-23.5,8-4,1.5-8,3.2-12.1,4.9-4.1,1.7-8.1,3.6-12.3,5.5-2.1,1-4.1,2-6.2,3-8.3,4-16.7,8.5-25.2,13.3-4.3,2.4-8.6,4.9-12.9,7.5-2.2,1.3-4.3,2.6-6.5,4,7.1-2.8,14.1-5.3,21-7.7,6.9-2.4,13.8-4.5,20.6-6.5,4.5-1.3,9-2.5,13.5-3.6,4.5-1.1,8.9-2.1,13.3-3.1,4.4-.9,8.8-1.8,13.1-2.5s8.6-1.4,12.9-2,8.5-1.1,12.7-1.4V39.3c-1.1,0-2.3,0-3.4,0Z"/>
      </g>
    </g>
  </g>
</svg>