<?xml version="1.0" encoding="UTF-8"?>
<svg id="Layer_2" data-name="Layer 2" xmlns="http://www.w3.org/2000/svg" width="330" height="242.4" viewBox="0 0 330 242.4">
  <defs>
    <style>
      .cls-1 {
        fill: #bcbfd3;
        stroke: #bcbfd3;
      }

      .cls-1, .cls-2 {
        stroke-linecap: round;
        stroke-linejoin: round;
        stroke-width: 30px;
      }

      .cls-3 {
        fill: #73913c;
      }

      .cls-2 {
        fill: #fff;
        stroke: #fff;
      }

      .cls-4 {
        fill: #50555f;
      }
    </style>
  </defs>
  <g id="Grouped">
    <g>
      <g>
        <path class="cls-1" d="m73,227.4c-32,0-58-26-58-58s26-58,58-58,58,26,58,58-26,58-58,58Zm0-99.2c-22.7,0-41.2,18.5-41.2,41.2s18.5,41.2,41.2,41.2,41.2-18.5,41.2-41.2-18.5-41.2-41.2-41.2Z"/>
        <path class="cls-1" d="m257,227.4c-32,0-58-26-58-58s26-58,58-58,58,26,58,58-26,58-58,58Zm0-99.2c-22.7,0-41.2,18.5-41.2,41.2s18.5,41.2,41.2,41.2,41.2-18.5,41.2-41.2-18.5-41.2-41.2-41.2Z"/>
        <path class="cls-1" d="m265.7,172.1l-34.7-88.2c0-.2-.2-.4-.2-.5,0,0,0-.1,0-.2s0,0,0,0c0,0,0,0,0,0l-16.8-32.4,16.8-10.1c4-2.4,5.3-7.6,2.9-11.5-2.4-4-7.6-5.3-11.5-2.9l-23.6,14.2c-3.8,2.3-5.2,7.1-3.1,11.1l14.1,27.1h-92.1l-6.5-17.8h30.5c4.6,0,8.4-3.8,8.4-8.4s-3.8-8.4-8.4-8.4h-42.5c-2.7,0-5.3,1.3-6.9,3.6-1.6,2.2-2,5.1-1,7.7l11.4,31.4-36.9,79.3c-1.2,2.6-1,5.6.5,8.1,1.5,2.4,4.2,3.9,7.1,3.9h88.8c.4,0,.7,0,1.1,0,.1,0,.2,0,.3,0,.2,0,.5,0,.7-.1.1,0,.3,0,.4-.1.2,0,.4-.1.6-.2.1,0,.3-.1.4-.2.2,0,.4-.2.6-.3.1,0,.2-.1.4-.2.2-.1.4-.2.5-.4.1,0,.2-.2.3-.2.2-.1.3-.3.5-.4,0,0,.2-.2.3-.3.2-.2.4-.4.5-.6,0,0,.1-.1.2-.2,0,0,0,0,0,0l52.4-70.3,29.1,74.1c1.3,3.3,4.5,5.3,7.8,5.3s2.1-.2,3.1-.6c4.3-1.7,6.5-6.6,4.8-10.9Zm-179.5-11.1l26.2-56.2,34.4,56.2h-60.6Zm76.3-6.6l-36.1-59h80.1l-44,59Z"/>
      </g>
      <g>
        <path class="cls-2" d="m73,217.4c-32,0-58-26-58-58s26-58,58-58,58,26,58,58-26,58-58,58Zm0-99.2c-22.7,0-41.2,18.5-41.2,41.2s18.5,41.2,41.2,41.2,41.2-18.5,41.2-41.2-18.5-41.2-41.2-41.2Z"/>
        <path class="cls-2" d="m257,217.4c-32,0-58-26-58-58s26-58,58-58,58,26,58,58-26,58-58,58Zm0-99.2c-22.7,0-41.2,18.5-41.2,41.2s18.5,41.2,41.2,41.2,41.2-18.5,41.2-41.2-18.5-41.2-41.2-41.2Z"/>
        <path class="cls-2" d="m265.7,162.1l-34.7-88.2c0-.2-.2-.4-.2-.5,0,0,0-.1,0-.2s0,0,0,0c0,0,0,0,0,0l-16.8-32.4,16.8-10.1c4-2.4,5.3-7.6,2.9-11.5-2.4-4-7.6-5.3-11.5-2.9l-23.6,14.2c-3.8,2.3-5.2,7.1-3.1,11.1l14.1,27.1h-92.1l-6.5-17.8h30.5c4.6,0,8.4-3.8,8.4-8.4s-3.8-8.4-8.4-8.4h-42.5c-2.7,0-5.3,1.3-6.9,3.6-1.6,2.2-2,5.1-1,7.7l11.4,31.4-36.9,79.3c-1.2,2.6-1,5.6.5,8.1,1.5,2.4,4.2,3.9,7.1,3.9h88.8c.4,0,.7,0,1.1,0,.1,0,.2,0,.3,0,.2,0,.5,0,.7-.1.1,0,.3,0,.4-.1.2,0,.4-.1.6-.2.1,0,.3-.1.4-.2.2,0,.4-.2.6-.3.1,0,.2-.1.4-.2.2-.1.4-.2.5-.4.1,0,.2-.2.3-.2.2-.1.3-.3.5-.4,0,0,.2-.2.3-.3.2-.2.4-.4.5-.6,0,0,.1-.1.2-.2,0,0,0,0,0,0l52.4-70.3,29.1,74.1c1.3,3.3,4.5,5.3,7.8,5.3s2.1-.2,3.1-.6c4.3-1.7,6.5-6.6,4.8-10.9Zm-179.5-11.1l26.2-56.2,34.4,56.2h-60.6Zm76.3-6.6l-36.1-59h80.1l-44,59Z"/>
      </g>
      <g>
        <path class="cls-4" d="m73,217.4c-32,0-58-26-58-58s26-58,58-58,58,26,58,58-26,58-58,58Zm0-99.2c-22.7,0-41.2,18.5-41.2,41.2s18.5,41.2,41.2,41.2,41.2-18.5,41.2-41.2-18.5-41.2-41.2-41.2Z"/>
        <path class="cls-4" d="m257,217.4c-32,0-58-26-58-58s26-58,58-58,58,26,58,58-26,58-58,58Zm0-99.2c-22.7,0-41.2,18.5-41.2,41.2s18.5,41.2,41.2,41.2,41.2-18.5,41.2-41.2-18.5-41.2-41.2-41.2Z"/>
        <path class="cls-3" d="m265.7,162.1l-34.7-88.2c0-.2-.2-.4-.2-.5,0,0,0-.1,0-.2s0,0,0,0c0,0,0,0,0,0l-16.8-32.4,16.8-10.1c4-2.4,5.3-7.6,2.9-11.5-2.4-4-7.6-5.3-11.5-2.9l-23.6,14.2c-3.8,2.3-5.2,7.1-3.1,11.1l14.1,27.1h-92.1l-6.5-17.8h30.5c4.6,0,8.4-3.8,8.4-8.4s-3.8-8.4-8.4-8.4h-42.5c-2.7,0-5.3,1.3-6.9,3.6-1.6,2.2-2,5.1-1,7.7l11.4,31.4-36.9,79.3c-1.2,2.6-1,5.6.5,8.1,1.5,2.4,4.2,3.9,7.1,3.9h88.8c.4,0,.7,0,1.1,0,.1,0,.2,0,.3,0,.2,0,.5,0,.7-.1.1,0,.3,0,.4-.1.2,0,.4-.1.6-.2.1,0,.3-.1.4-.2.2,0,.4-.2.6-.3.1,0,.2-.1.4-.2.2-.1.4-.2.5-.4.1,0,.2-.2.3-.2.2-.1.3-.3.5-.4,0,0,.2-.2.3-.3.2-.2.4-.4.5-.6,0,0,.1-.1.2-.2,0,0,0,0,0,0l52.4-70.3,29.1,74.1c1.3,3.3,4.5,5.3,7.8,5.3s2.1-.2,3.1-.6c4.3-1.7,6.5-6.6,4.8-10.9Zm-179.5-11.1l26.2-56.2,34.4,56.2h-60.6Zm76.3-6.6l-36.1-59h80.1l-44,59Z"/>
      </g>
    </g>
  </g>
</svg>