<?xml version="1.0" encoding="UTF-8"?>
<svg id="Layer_2" data-name="Layer 2" xmlns="http://www.w3.org/2000/svg" width="330" height="328.1" viewBox="0 0 330 328.1">
  <defs>
    <style>
      .cls-1 {
        fill: #bcbfd3;
        stroke: #bcbfd3;
      }

      .cls-1, .cls-2 {
        stroke-linecap: round;
        stroke-linejoin: round;
        stroke-width: 30px;
      }

      .cls-3 {
        fill: #fcb84b;
      }

      .cls-2 {
        fill: #fff;
        stroke: #fff;
      }
    </style>
  </defs>
  <g id="Grouped">
    <g>
      <path class="cls-1" d="m190.3,40.7l31.1,62.9,69.5,10.1c23.1,3.4,32.4,31.8,15.6,48.1l-50.3,49,11.9,69.2c4,23-20.2,40.6-40.9,29.7l-62.1-32.7-62.1,32.7c-20.7,10.9-44.9-6.7-40.9-29.7l11.9-69.2-50.3-49c-16.7-16.3-7.5-44.8,15.6-48.1l69.5-10.1,31.1-62.9c10.3-21,40.3-21,50.6,0Z"/>
      <path class="cls-2" d="m190.3,30.7l31.1,62.9,69.5,10.1c23.1,3.4,32.4,31.8,15.6,48.1l-50.3,49,11.9,69.2c4,23-20.2,40.6-40.9,29.7l-62.1-32.7-62.1,32.7c-20.7,10.9-44.9-6.7-40.9-29.7l11.9-69.2-50.3-49c-16.7-16.3-7.5-44.8,15.6-48.1l69.5-10.1,31.1-62.9c10.3-21,40.3-21,50.6,0Z"/>
      <path class="cls-3" d="m190.3,30.7l31.1,62.9,69.5,10.1c23.1,3.4,32.4,31.8,15.6,48.1l-50.3,49,11.9,69.2c4,23-20.2,40.6-40.9,29.7l-62.1-32.7-62.1,32.7c-20.7,10.9-44.9-6.7-40.9-29.7l11.9-69.2-50.3-49c-16.7-16.3-7.5-44.8,15.6-48.1l69.5-10.1,31.1-62.9c10.3-21,40.3-21,50.6,0Z"/>
    </g>
  </g>
</svg>