<?xml version="1.0" encoding="UTF-8"?>
<svg id="Layer_2" data-name="Layer 2" xmlns="http://www.w3.org/2000/svg" width="274.4" height="283.4" viewBox="0 0 274.4 283.4">
  <defs>
    <style>
      .cls-1 {
        fill: #5876ba;
      }

      .cls-2 {
        fill: #747f93;
      }
    </style>
  </defs>
  <g id="Grouped">
    <g>
      <g>
        <path class="cls-2" d="m153,10.9c1,0,2.1,0,3.1.2v-1c0-5.6-4.6-10.2-10.2-10.2h-8c-5.6,0-10.2,4.6-10.2,10.2v1c1-.1,2-.2,3.1-.2h22.1Z"/>
        <path class="cls-2" d="m264,167.3h-1.4v-12.1c0-42.6-34.6-68-77.2-68h-3.6c-6.6-8.1-15.5-14.3-25.6-17.6v-10.6c-1,.1-2,.2-3.1.2h-22.1c-1,0-2.1,0-3.1-.2v9.1c-12.5,2.6-23.5,9.5-31.3,19.1h-14.3c-7.1-25.5-30.5-44.2-58.3-44.2h-13.5c-5.7,0-10.4,4.7-10.4,10.4v122.1c0,5.7,4.7,10.4,10.4,10.4h13.5c24.8,0,46.1-14.9,55.5-36.3h19.4c10,10.9,24.4,17.7,40.3,17.7s29.5-6.4,39.5-16.8c7.1,2.3,12.2,8.9,12.4,16.8h-.8c-5.7,0-10.4,4.7-10.4,10.4v24c0,5.7,4.7,10.4,10.4,10.4h73.8c5.7,0,10.4-4.7,10.4-10.4v-24c0-5.7-4.7-10.4-10.4-10.4Z"/>
      </g>
      <path class="cls-1" d="m198.1,24.4h-36.7c-1.2-2-3.1-3.6-5.3-4.3-1-.3-2-.5-3.1-.5h-22.1c-1.1,0-2.1.2-3.1.5-2.3.8-4.1,2.3-5.3,4.3h-36.7c-5.9,0-10.6,4.8-10.6,10.6h0c0,5.9,4.8,10.6,10.6,10.6h36.7c1.2,2,3.1,3.6,5.3,4.3,1,.3,2,.5,3.1.5h22.1c1.1,0,2.1-.2,3.1-.5,2.3-.8,4.1-2.3,5.3-4.3h36.7c5.9,0,10.6-4.8,10.6-10.6h0c0-5.9-4.8-10.6-10.6-10.6Z"/>
      <path class="cls-1" d="m202.4,230h26.7c14.7,0,26.7,12,26.7,26.7h0c0,14.7-12,26.7-26.7,26.7h0c-14.7,0-26.7-12-26.7-26.7v-26.7h0Z" transform="translate(248.6 -86.8) rotate(45)"/>
    </g>
  </g>
</svg>