<?xml version="1.0" encoding="UTF-8"?>
<svg id="Layer_2" data-name="Layer 2" xmlns="http://www.w3.org/2000/svg" width="313.5" height="340" viewBox="0 0 313.5 340">
  <defs>
    <style>
      .cls-1 {
        fill: #bcbfd3;
        stroke: #bcbfd3;
      }

      .cls-1, .cls-2 {
        stroke-linecap: round;
        stroke-linejoin: round;
        stroke-width: 30px;
      }

      .cls-3 {
        fill: #fcb84b;
      }

      .cls-4 {
        fill: #5876ba;
      }

      .cls-5 {
        fill: #f04b36;
      }

      .cls-6 {
        fill: #b1c5e6;
      }

      .cls-2 {
        fill: #fff;
        stroke: #fff;
      }
    </style>
  </defs>
  <g id="Grouped">
    <g>
      <g>
        <path class="cls-1" d="m25.8,275.2h0s0,0,0,0l146.4,30.8c1.3.3,2.6.4,3.9.4,2,0,3.9-.3,5.8-.9l91.9-27.7s0,0,0,0v-26.4c0-2.3-1.9-3.7-3.7-3.7s-.7,0-1,.1l-81.6,22.4c-3.7,1-7.6,1.5-11.5,1.5s-5.6-.3-8.4-.8l-146.7-28.9v32.9c.2,0,.4,0,.7,0,1.3,0,2.6.1,3.9.4Z"/>
        <path class="cls-1" d="m25.8,275.2h0s0,0,0,0l146.4,30.8c1.3.3,2.6.4,3.9.4,2,0,3.9-.3,5.8-.9l91.9-27.7s0,0,0,0v-26.4c0-2.3-1.9-3.7-3.7-3.7s-.7,0-1,.1l-81.6,22.4c-3.7,1-7.6,1.5-11.5,1.5s-5.6-.3-8.4-.8l-146.7-28.9v32.9c.2,0,.4,0,.7,0,1.3,0,2.6.1,3.9.4Z"/>
        <path class="cls-1" d="m277.3,226.2l-12.5-2.6-118.2,23.9h0s0,0,0,0c-2.7.5-5.5.8-8.3.8-4.2,0-8.4-.6-12.4-1.8l-90.2-26.7-15.3,4.2c-5,1.4-4.8,8.6.4,9.6l148.6,29.3c5.4,1.1,10.9.9,16.1-.6l81.6-22.4c7.5-2.1,14.9,3.6,14.9,11.4v26.4c0,3.6-2.4,6.8-5.8,7.8l-91.9,27.7c-4.4,1.3-9.1,1.6-13.7.7l-146.5-30.8c-4.5-.9-8.5.7-8.1,5.2.3,3,2.5,5.5,5.5,6.1l148,29.9c5.6,1.1,11.4.8,16.8-.8l96.7-28.7c5.7-1.8,9.6-7.2,9.6-13.2v-40.3c-.1-11.9-15.3-15.2-15.4-15.2Z"/>
        <path class="cls-1" d="m288.8,190.2h0s0,0,0,0l-146.4,30.8c-1.3.3-2.6.4-3.9.4-2,0-3.9-.3-5.8-.9l-91.9-27.7s0,0,0,0v-26.4c0-2.3,1.9-3.7,3.7-3.7s.7,0,1,.1l81.6,22.4c3.7,1,7.6,1.5,11.5,1.5,2.8,0,5.6-.3,8.4-.8l146.7-28.9v32.9c-.2,0-.4,0-.7,0-1.3,0-2.6.1-3.9.4Z"/>
        <path class="cls-1" d="m288.8,190.2h0s0,0,0,0l-146.4,30.8c-1.3.3-2.6.4-3.9.4-2,0-3.9-.3-5.8-.9l-91.9-27.7s0,0,0,0v-26.4c0-2.3,1.9-3.7,3.7-3.7s.7,0,1,.1l81.6,22.4c3.7,1,7.6,1.5,11.5,1.5,2.8,0,5.6-.3,8.4-.8l146.7-28.9v32.9c-.2,0-.4,0-.7,0-1.3,0-2.6.1-3.9.4Z"/>
        <path class="cls-1" d="m276.3,55.9l-142.8-30.3c-4.5-1-9.3-.8-13.7.4L19.4,53.6c-5,1.4-4.8,8.6.4,9.6l148.6,29.3c5.4,1.1,10.9.9,16.1-.6l81.6-22.4c7.5-2.1,14.9,3.6,14.9,11.4v26.4c0,3.6-2.4,6.8-5.8,7.8l-91.9,27.7c-4.4,1.3-9.1,1.6-13.7.7L23.2,112.9c-4.5-.9-8.5.7-8.1,5.2.3,3,2.5,5.5,5.5,6.1l148,29.9c5.6,1.1,11.4.8,16.8-.8l96.7-28.7c5.7-1.8,9.6-7.2,9.6-13.2v-40.3c-.1-11.9-15.3-15.2-15.4-15.2Z"/>
        <path class="cls-1" d="m290.4,198.2l-146.5,30.8c-4.5.9-9.3.7-13.7-.7l-91.9-27.7c-3.5-1-5.8-4.2-5.8-7.8v-26.4c0-7.8,7.4-13.5,14.9-11.4l81.6,22.4c5.3,1.4,10.8,1.6,16.1.6l148.6-29.3c5.1-1,5.4-8.2.4-9.6l-18.4-5.1-88.3,26.2c-3.9,1.2-8,1.8-12.1,1.8s-5.4-.3-8.1-.8h0s0,0,0,0l-114.3-23.1-15.6,3.3s-15.2,3.3-15.4,15.2v40.3c0,6,3.9,11.4,9.7,13.2l96.7,28.7c5.5,1.6,11.2,1.9,16.8.8l148-29.9c3-.6,5.2-3.1,5.5-6.1.4-4.5-3.7-6.1-8.1-5.2Z"/>
        <path class="cls-1" d="m24.7,104.9h0s0,0,0,0l146.4,30.8c1.3.3,2.6.4,3.9.4,2,0,3.9-.3,5.8-.9l91.9-27.7s0,0,0,0v-26.4c0-2.3-1.9-3.7-3.7-3.7s-.7,0-1,.1l-81.6,22.4c-3.7,1-7.6,1.5-11.5,1.5s-5.6-.3-8.4-.8L20.2,71.6v32.9c.2,0,.4,0,.7,0,1.3,0,2.6.1,3.9.4Z"/>
      </g>
      <g>
        <path class="cls-2" d="m25.8,265.1h0s0,0,0,0l146.4,30.8c1.3.3,2.6.4,3.9.4,2,0,3.9-.3,5.8-.9l91.9-27.7s0,0,0,0v-26.4c0-2.3-1.9-3.7-3.7-3.7s-.7,0-1,.1l-81.6,22.4c-3.7,1-7.6,1.5-11.5,1.5s-5.6-.3-8.4-.8l-146.7-28.9v32.9c.2,0,.4,0,.7,0,1.3,0,2.6.1,3.9.4Z"/>
        <path class="cls-2" d="m25.8,265.1h0s0,0,0,0l146.4,30.8c1.3.3,2.6.4,3.9.4,2,0,3.9-.3,5.8-.9l91.9-27.7s0,0,0,0v-26.4c0-2.3-1.9-3.7-3.7-3.7s-.7,0-1,.1l-81.6,22.4c-3.7,1-7.6,1.5-11.5,1.5s-5.6-.3-8.4-.8l-146.7-28.9v32.9c.2,0,.4,0,.7,0,1.3,0,2.6.1,3.9.4Z"/>
        <path class="cls-2" d="m277.3,216.2l-12.5-2.6-118.2,23.9h0s0,0,0,0c-2.7.5-5.5.8-8.3.8-4.2,0-8.4-.6-12.4-1.8l-90.2-26.7-15.3,4.2c-5,1.4-4.8,8.6.4,9.6l148.6,29.3c5.4,1.1,10.9.9,16.1-.6l81.6-22.4c7.5-2.1,14.9,3.6,14.9,11.4v26.4c0,3.6-2.4,6.8-5.8,7.8l-91.9,27.7c-4.4,1.3-9.1,1.6-13.7.7l-146.5-30.8c-4.5-.9-8.5.7-8.1,5.2.3,3,2.5,5.5,5.5,6.1l148,29.9c5.6,1.1,11.4.8,16.8-.8l96.7-28.7c5.7-1.8,9.6-7.2,9.6-13.2v-40.3c-.1-11.9-15.3-15.2-15.4-15.2Z"/>
        <path class="cls-2" d="m288.8,180.2h0s0,0,0,0l-146.4,30.8c-1.3.3-2.6.4-3.9.4-2,0-3.9-.3-5.8-.9l-91.9-27.7s0,0,0,0v-26.4c0-2.3,1.9-3.7,3.7-3.7.3,0,.7,0,1,.1l81.6,22.4c3.7,1,7.6,1.5,11.5,1.5,2.8,0,5.6-.3,8.4-.8l146.7-28.9v32.9c-.2,0-.4,0-.7,0-1.3,0-2.6.1-3.9.4Z"/>
        <path class="cls-2" d="m288.8,180.2h0s0,0,0,0l-146.4,30.8c-1.3.3-2.6.4-3.9.4-2,0-3.9-.3-5.8-.9l-91.9-27.7s0,0,0,0v-26.4c0-2.3,1.9-3.7,3.7-3.7.3,0,.7,0,1,.1l81.6,22.4c3.7,1,7.6,1.5,11.5,1.5,2.8,0,5.6-.3,8.4-.8l146.7-28.9v32.9c-.2,0-.4,0-.7,0-1.3,0-2.6.1-3.9.4Z"/>
        <path class="cls-2" d="m276.3,45.9L133.5,15.6c-4.5-1-9.3-.8-13.7.4L19.4,43.6c-5,1.4-4.8,8.6.4,9.6l148.6,29.3c5.4,1.1,10.9.9,16.1-.6l81.6-22.4c7.5-2.1,14.9,3.6,14.9,11.4v26.4c0,3.6-2.4,6.8-5.8,7.8l-91.9,27.7c-4.4,1.3-9.1,1.6-13.7.7L23.2,102.8c-4.5-.9-8.5.7-8.1,5.2.3,3,2.5,5.5,5.5,6.1l148,29.9c5.6,1.1,11.4.8,16.8-.8l96.7-28.7c5.7-1.8,9.6-7.2,9.6-13.2v-40.3c-.1-11.9-15.3-15.2-15.4-15.2Z"/>
        <path class="cls-2" d="m290.4,188.2l-146.5,30.8c-4.5.9-9.3.7-13.7-.7l-91.9-27.7c-3.5-1-5.8-4.2-5.8-7.8v-26.4c0-7.8,7.4-13.5,14.9-11.4l81.6,22.4c5.3,1.4,10.8,1.6,16.1.6l148.6-29.3c5.1-1,5.4-8.2.4-9.6l-18.4-5.1-88.3,26.2c-3.9,1.2-8,1.8-12.1,1.8s-5.4-.3-8.1-.8h0s0,0,0,0l-114.3-23.1-15.6,3.3s-15.2,3.3-15.4,15.2v40.3c0,6,3.9,11.4,9.7,13.2l96.7,28.7c5.5,1.6,11.2,1.9,16.8.8l148-29.9c3-.6,5.2-3.1,5.5-6.1.4-4.5-3.7-6.1-8.1-5.2Z"/>
        <path class="cls-2" d="m24.7,94.9h0s0,0,0,0l146.4,30.8c1.3.3,2.6.4,3.9.4,2,0,3.9-.3,5.8-.9l91.9-27.7s0,0,0,0v-26.4c0-2.3-1.9-3.7-3.7-3.7s-.7,0-1,.1l-81.6,22.4c-3.7,1-7.6,1.5-11.5,1.5s-5.6-.3-8.4-.8L20.2,61.6v32.9c.2,0,.4,0,.7,0,1.3,0,2.6.1,3.9.4Z"/>
      </g>
      <g>
        <path class="cls-6" d="m25.8,265.1h0s0,0,0,0l146.4,30.8c1.3.3,2.6.4,3.9.4,2,0,3.9-.3,5.8-.9l91.9-27.7s0,0,0,0v-26.4c0-2.3-1.9-3.7-3.7-3.7s-.7,0-1,.1l-81.6,22.4c-3.7,1-7.6,1.5-11.5,1.5s-5.6-.3-8.4-.8l-146.7-28.9v32.9c.2,0,.4,0,.7,0,1.3,0,2.6.1,3.9.4Z"/>
        <path class="cls-6" d="m25.8,265.1h0s0,0,0,0l146.4,30.8c1.3.3,2.6.4,3.9.4,2,0,3.9-.3,5.8-.9l91.9-27.7s0,0,0,0v-26.4c0-2.3-1.9-3.7-3.7-3.7s-.7,0-1,.1l-81.6,22.4c-3.7,1-7.6,1.5-11.5,1.5s-5.6-.3-8.4-.8l-146.7-28.9v32.9c.2,0,.4,0,.7,0,1.3,0,2.6.1,3.9.4Z"/>
        <path class="cls-3" d="m277.3,216.2l-12.5-2.6-118.2,23.9h0s0,0,0,0c-2.7.5-5.5.8-8.3.8-4.2,0-8.4-.6-12.4-1.8l-90.2-26.7-15.3,4.2c-5,1.4-4.8,8.6.4,9.6l148.6,29.3c5.4,1.1,10.9.9,16.1-.6l81.6-22.4c7.5-2.1,14.9,3.6,14.9,11.4v26.4c0,3.6-2.4,6.8-5.8,7.8l-91.9,27.7c-4.4,1.3-9.1,1.6-13.7.7l-146.5-30.8c-4.5-.9-8.5.7-8.1,5.2.3,3,2.5,5.5,5.5,6.1l148,29.9c5.6,1.1,11.4.8,16.8-.8l96.7-28.7c5.7-1.8,9.6-7.2,9.6-13.2v-40.3c-.1-11.9-15.3-15.2-15.4-15.2Z"/>
        <path class="cls-6" d="m288.8,180.2h0s0,0,0,0l-146.4,30.8c-1.3.3-2.6.4-3.9.4-2,0-3.9-.3-5.8-.9l-91.9-27.7s0,0,0,0v-26.4c0-2.3,1.9-3.7,3.7-3.7.3,0,.7,0,1,.1l81.6,22.4c3.7,1,7.6,1.5,11.5,1.5,2.8,0,5.6-.3,8.4-.8l146.7-28.9v32.9c-.2,0-.4,0-.7,0-1.3,0-2.6.1-3.9.4Z"/>
        <path class="cls-6" d="m288.8,180.2h0s0,0,0,0l-146.4,30.8c-1.3.3-2.6.4-3.9.4-2,0-3.9-.3-5.8-.9l-91.9-27.7s0,0,0,0v-26.4c0-2.3,1.9-3.7,3.7-3.7.3,0,.7,0,1,.1l81.6,22.4c3.7,1,7.6,1.5,11.5,1.5,2.8,0,5.6-.3,8.4-.8l146.7-28.9v32.9c-.2,0-.4,0-.7,0-1.3,0-2.6.1-3.9.4Z"/>
        <path class="cls-5" d="m276.3,45.9L133.5,15.6c-4.5-1-9.3-.8-13.7.4L19.4,43.6c-5,1.4-4.8,8.6.4,9.6l148.6,29.3c5.4,1.1,10.9.9,16.1-.6l81.6-22.4c7.5-2.1,14.9,3.6,14.9,11.4v26.4c0,3.6-2.4,6.8-5.8,7.8l-91.9,27.7c-4.4,1.3-9.1,1.6-13.7.7L23.2,102.8c-4.5-.9-8.5.7-8.1,5.2.3,3,2.5,5.5,5.5,6.1l148,29.9c5.6,1.1,11.4.8,16.8-.8l96.7-28.7c5.7-1.8,9.6-7.2,9.6-13.2v-40.3c-.1-11.9-15.3-15.2-15.4-15.2Z"/>
        <path class="cls-4" d="m290.4,188.2l-146.5,30.8c-4.5.9-9.3.7-13.7-.7l-91.9-27.7c-3.5-1-5.8-4.2-5.8-7.8v-26.4c0-7.8,7.4-13.5,14.9-11.4l81.6,22.4c5.3,1.4,10.8,1.6,16.1.6l148.6-29.3c5.1-1,5.4-8.2.4-9.6l-18.4-5.1-88.3,26.2c-3.9,1.2-8,1.8-12.1,1.8s-5.4-.3-8.1-.8h0s0,0,0,0l-114.3-23.1-15.6,3.3s-15.2,3.3-15.4,15.2v40.3c0,6,3.9,11.4,9.7,13.2l96.7,28.7c5.5,1.6,11.2,1.9,16.8.8l148-29.9c3-.6,5.2-3.1,5.5-6.1.4-4.5-3.7-6.1-8.1-5.2Z"/>
        <path class="cls-6" d="m24.7,94.9h0s0,0,0,0l146.4,30.8c1.3.3,2.6.4,3.9.4,2,0,3.9-.3,5.8-.9l91.9-27.7s0,0,0,0v-26.4c0-2.3-1.9-3.7-3.7-3.7s-.7,0-1,.1l-81.6,22.4c-3.7,1-7.6,1.5-11.5,1.5s-5.6-.3-8.4-.8L20.2,61.6v32.9c.2,0,.4,0,.7,0,1.3,0,2.6.1,3.9.4Z"/>
      </g>
    </g>
  </g>
</svg>