<?xml version="1.0" encoding="UTF-8"?>
<svg id="Layer_2" data-name="Layer 2" xmlns="http://www.w3.org/2000/svg" width="285.9" height="340" viewBox="0 0 285.9 340">
  <defs>
    <style>
      .cls-1 {
        fill: #bcbfd3;
        stroke: #bcbfd3;
      }

      .cls-1, .cls-2 {
        stroke-linecap: round;
        stroke-linejoin: round;
        stroke-width: 30px;
      }

      .cls-3 {
        fill: #5876ba;
      }

      .cls-2 {
        fill: #fff;
        stroke: #fff;
      }
    </style>
  </defs>
  <g id="Grouped">
    <g>
      <path class="cls-1" d="m152.6,25.1c-4.8-1.1-8.4,4.3-5.6,8.3,17.5,25.3,27.8,56.1,27.8,89.2,0,86.6-70.2,156.8-156.8,156.8h0c-2.7,0-3.9,3.3-2,5.1,26.2,24.3,61.1,39.5,99.4,40.4,85.7,2.1,156.6-68.1,155.5-153.8-1-71.4-51.2-130.9-118.3-146Z"/>
      <path class="cls-2" d="m152.6,15.1c-4.8-1.1-8.4,4.3-5.6,8.3,17.5,25.3,27.8,56.1,27.8,89.2,0,86.6-70.2,156.8-156.8,156.8h0c-2.7,0-3.9,3.3-2,5.1,26.2,24.3,61.1,39.5,99.4,40.4,85.7,2.1,156.6-68.1,155.5-153.8-1-71.4-51.2-130.9-118.3-146Z"/>
      <path class="cls-3" d="m152.6,15.1c-4.8-1.1-8.4,4.3-5.6,8.3,17.5,25.3,27.8,56.1,27.8,89.2,0,86.6-70.2,156.8-156.8,156.8h0c-2.7,0-3.9,3.3-2,5.1,26.2,24.3,61.1,39.5,99.4,40.4,85.7,2.1,156.6-68.1,155.5-153.8-1-71.4-51.2-130.9-118.3-146Z"/>
    </g>
  </g>
</svg>