<?xml version="1.0" encoding="UTF-8"?>
<svg id="Layer_2" data-name="Layer 2" xmlns="http://www.w3.org/2000/svg" width="330" height="325" viewBox="0 0 330 325">
  <defs>
    <style>
      .cls-1 {
        fill: #bcbfd3;
        stroke: #bcbfd3;
      }

      .cls-1, .cls-2 {
        stroke-linecap: round;
        stroke-linejoin: round;
        stroke-width: 30px;
      }

      .cls-3 {
        fill: #b1c5e6;
      }

      .cls-2 {
        fill: #fff;
        stroke: #fff;
      }

      .cls-4 {
        fill: #50555f;
      }
    </style>
  </defs>
  <g id="Grouped">
    <g>
      <g>
        <path class="cls-1" d="m257.5,31.3l-9,56.6-9.2,34-14.9,36.1-4.5,6.6c7.6,18.2,10.2,38.2,7.3,58.3-1.6,11.4-5,22.3-10,32.5l16.9-13.3,31.9-36.3,21.4-41.4,16.1-45.7,5.3-29.6.7-30.6-52.2-27.1Z"/>
        <path class="cls-1" d="m132.5,105.3c-56.2-8.1-108.4,30.9-116.5,87.2-8.1,56.2,30.9,108.4,87.2,116.5,56.2,8.1,108.4-30.9,116.5-87.2,8.1-56.2-30.9-108.4-87.2-116.5Zm-62.2,142.6c-10.2,4.1-21.9-.8-26-11.1-4.1-10.2.8-21.9,11.1-26,10.2-4.1,21.9.8,26,11.1,4.1,10.2-.8,21.9-11.1,26Zm16.7-65.2c-6.9,8.7-19.4,10.1-28.1,3.3-8.7-6.9-10.1-19.4-3.3-28.1,6.9-8.7,19.4-10.1,28.1-3.3,8.7,6.9,10.1,19.4,3.3,28.1Zm19.6,103c-10.9-1.6-18.5-11.7-17-22.6,1.6-10.9,11.7-18.5,22.6-17,10.9,1.6,18.5,11.7,17,22.6-1.6,10.9-11.7,18.5-22.6,17Zm16.9-117.5c-10.9-1.6-18.5-11.7-17-22.6,1.6-10.9,11.7-18.5,22.6-17,10.9,1.6,18.5,11.7,17,22.6-1.6,10.9-11.7,18.5-22.6,17Zm56.6,88.2c-6.9,8.7-19.4,10.1-28.1,3.3-8.7-6.9-10.1-19.4-3.3-28.1,6.9-8.7,19.4-10.1,28.1-3.3,8.7,6.9,10.1,19.4,3.3,28.1Zm.3-52.9c-10.2,4.1-21.9-.8-26-11.1-4.1-10.2.8-21.9,11.1-26,10.2-4.1,21.9.8,26,11.1,4.1,10.2-.8,21.9-11.1,26Z"/>
        <path class="cls-1" d="m312.9,54.7l-54.3-29.3c-1.4-.7-3.1-.6-4.6.5-1.5,1-2.4,2.8-2.4,4.6-1.5,50.3-12.6,93.3-33.6,129.5,1.5,3.2,2.9,6.5,4.1,9.9,2-3.3,4-6.7,5.9-10.1l44.7,24.1c-5.7,10.2-12.1,19.9-19.3,29.2l-25.1-13.6c.3,3.9.3,7.9.1,11.8l18.4,9.9c-7.7,9.1-16,17.8-25.2,26.1l-.7-.4c-3.1,8-7.2,15.7-12.1,22.8,31.6-24.4,56.5-53.2,74-85.8,19.6-36.5,30.4-78.6,32.2-125.3,0-1.8-.7-3.3-2.1-4.1Zm-35.4,120.1l-44.8-24.1c5.1-10.3,9.5-21.2,13.2-32.5l45.1,24.3c-3.8,11.2-8.3,22-13.6,32.3Zm16.8-42.3l-45.2-24.4c3.3-11.4,5.8-23.2,7.7-35.5l44.6,24c.3.2.6.2.9.3-1.9,12.2-4.6,24.1-8,35.5Zm9.5-46.3l-44.6-24c-.3-.2-.6-.3-.9-.3.9-7.7,1.6-15.7,2.1-23.7l45.4,24.5c-.4,8-1,15.9-2,23.6Z"/>
      </g>
      <g>
        <path class="cls-2" d="m257.5,21.3l-9,56.6-9.2,34-14.9,36.1-4.5,6.6c7.6,18.2,10.2,38.2,7.3,58.3-1.6,11.4-5,22.3-10,32.5l16.9-13.3,31.9-36.3,21.4-41.4,16.1-45.7,5.3-29.6.7-30.6-52.2-27.1Z"/>
        <path class="cls-2" d="m132.5,95.3c-56.2-8.1-108.4,30.9-116.5,87.2-8.1,56.2,30.9,108.4,87.2,116.5,56.2,8.1,108.4-30.9,116.5-87.2,8.1-56.2-30.9-108.4-87.2-116.5Zm-62.2,142.6c-10.2,4.1-21.9-.8-26-11.1-4.1-10.2.8-21.9,11.1-26,10.2-4.1,21.9.8,26,11.1,4.1,10.2-.8,21.9-11.1,26Zm16.7-65.2c-6.9,8.7-19.4,10.1-28.1,3.3-8.7-6.9-10.1-19.4-3.3-28.1,6.9-8.7,19.4-10.1,28.1-3.3,8.7,6.9,10.1,19.4,3.3,28.1Zm19.6,103c-10.9-1.6-18.5-11.7-17-22.6,1.6-10.9,11.7-18.5,22.6-17,10.9,1.6,18.5,11.7,17,22.6-1.6,10.9-11.7,18.5-22.6,17Zm16.9-117.5c-10.9-1.6-18.5-11.7-17-22.6,1.6-10.9,11.7-18.5,22.6-17,10.9,1.6,18.5,11.7,17,22.6-1.6,10.9-11.7,18.5-22.6,17Zm56.6,88.2c-6.9,8.7-19.4,10.1-28.1,3.3-8.7-6.9-10.1-19.4-3.3-28.1,6.9-8.7,19.4-10.1,28.1-3.3,8.7,6.9,10.1,19.4,3.3,28.1Zm.3-52.9c-10.2,4.1-21.9-.8-26-11.1-4.1-10.2.8-21.9,11.1-26,10.2-4.1,21.9.8,26,11.1,4.1,10.2-.8,21.9-11.1,26Z"/>
        <path class="cls-2" d="m312.9,44.7l-54.3-29.3c-1.4-.7-3.1-.6-4.6.5-1.5,1-2.4,2.8-2.4,4.6-1.5,50.3-12.6,93.3-33.6,129.5,1.5,3.2,2.9,6.5,4.1,9.9,2-3.3,4-6.7,5.9-10.1l44.7,24.1c-5.7,10.2-12.1,19.9-19.3,29.2l-25.1-13.6c.3,3.9.3,7.9.1,11.8l18.4,9.9c-7.7,9.1-16,17.8-25.2,26.1l-.7-.4c-3.1,8-7.2,15.7-12.1,22.8,31.6-24.4,56.5-53.2,74-85.8,19.6-36.5,30.4-78.6,32.2-125.3,0-1.8-.7-3.3-2.1-4.1Zm-35.4,120.1l-44.8-24.1c5.1-10.3,9.5-21.2,13.2-32.5l45.1,24.3c-3.8,11.2-8.3,22-13.6,32.3Zm16.8-42.3l-45.2-24.4c3.3-11.4,5.8-23.2,7.7-35.5l44.6,24c.3.2.6.2.9.3-1.9,12.2-4.6,24.1-8,35.5Zm9.5-46.3l-44.6-24c-.3-.2-.6-.3-.9-.3.9-7.7,1.6-15.7,2.1-23.7l45.4,24.5c-.4,8-1,15.9-2,23.6Z"/>
      </g>
      <g>
        <path class="cls-3" d="m257.5,21.3l-9,56.6-9.2,34-14.9,36.1-4.5,6.6c7.6,18.2,10.2,38.2,7.3,58.3-1.6,11.4-5,22.3-10,32.5l16.9-13.3,31.9-36.3,21.4-41.4,16.1-45.7,5.3-29.6.7-30.6-52.2-27.1Z"/>
        <path class="cls-4" d="m132.5,95.3c-56.2-8.1-108.4,30.9-116.5,87.2-8.1,56.2,30.9,108.4,87.2,116.5,56.2,8.1,108.4-30.9,116.5-87.2,8.1-56.2-30.9-108.4-87.2-116.5Zm-62.2,142.6c-10.2,4.1-21.9-.8-26-11.1-4.1-10.2.8-21.9,11.1-26,10.2-4.1,21.9.8,26,11.1,4.1,10.2-.8,21.9-11.1,26Zm16.7-65.2c-6.9,8.7-19.4,10.1-28.1,3.3-8.7-6.9-10.1-19.4-3.3-28.1,6.9-8.7,19.4-10.1,28.1-3.3,8.7,6.9,10.1,19.4,3.3,28.1Zm19.6,103c-10.9-1.6-18.5-11.7-17-22.6,1.6-10.9,11.7-18.5,22.6-17,10.9,1.6,18.5,11.7,17,22.6-1.6,10.9-11.7,18.5-22.6,17Zm16.9-117.5c-10.9-1.6-18.5-11.7-17-22.6,1.6-10.9,11.7-18.5,22.6-17,10.9,1.6,18.5,11.7,17,22.6-1.6,10.9-11.7,18.5-22.6,17Zm56.6,88.2c-6.9,8.7-19.4,10.1-28.1,3.3-8.7-6.9-10.1-19.4-3.3-28.1,6.9-8.7,19.4-10.1,28.1-3.3,8.7,6.9,10.1,19.4,3.3,28.1Zm.3-52.9c-10.2,4.1-21.9-.8-26-11.1-4.1-10.2.8-21.9,11.1-26,10.2-4.1,21.9.8,26,11.1,4.1,10.2-.8,21.9-11.1,26Z"/>
        <path class="cls-4" d="m312.9,44.7l-54.3-29.3c-1.4-.7-3.1-.6-4.6.5-1.5,1-2.4,2.8-2.4,4.6-1.5,50.3-12.6,93.3-33.6,129.5,1.5,3.2,2.9,6.5,4.1,9.9,2-3.3,4-6.7,5.9-10.1l44.7,24.1c-5.7,10.2-12.1,19.9-19.3,29.2l-25.1-13.6c.3,3.9.3,7.9.1,11.8l18.4,9.9c-7.7,9.1-16,17.8-25.2,26.1l-.7-.4c-3.1,8-7.2,15.7-12.1,22.8,31.6-24.4,56.5-53.2,74-85.8,19.6-36.5,30.4-78.6,32.2-125.3,0-1.8-.7-3.3-2.1-4.1Zm-35.4,120.1l-44.8-24.1c5.1-10.3,9.5-21.2,13.2-32.5l45.1,24.3c-3.8,11.2-8.3,22-13.6,32.3Zm16.8-42.3l-45.2-24.4c3.3-11.4,5.8-23.2,7.7-35.5l44.6,24c.3.2.6.2.9.3-1.9,12.2-4.6,24.1-8,35.5Zm9.5-46.3l-44.6-24c-.3-.2-.6-.3-.9-.3.9-7.7,1.6-15.7,2.1-23.7l45.4,24.5c-.4,8-1,15.9-2,23.6Z"/>
      </g>
    </g>
  </g>
</svg>