<?xml version="1.0" encoding="UTF-8"?>
<svg id="Layer_2" data-name="Layer 2" xmlns="http://www.w3.org/2000/svg" width="330" height="305.6" viewBox="0 0 330 305.6">
  <defs>
    <style>
      .cls-1 {
        fill: #bcbfd3;
        stroke: #bcbfd3;
      }

      .cls-1, .cls-2 {
        stroke-linecap: round;
        stroke-linejoin: round;
        stroke-width: 30px;
      }

      .cls-3 {
        fill: #747f93;
      }

      .cls-2 {
        fill: #fff;
        stroke: #fff;
      }

      .cls-4 {
        fill: #50555f;
      }
    </style>
  </defs>
  <g id="Grouped">
    <g>
      <g>
        <path class="cls-1" d="m165,29.2c-35.4,0-67.4,14.7-90.3,38.3,0,0,.2.2.3.2,11.3,9.2,27.2,9.8,39.7,2.4,14.7-8.8,31.9-13.8,50.3-13.8s35.6,5,50.3,13.8,28.4,6.8,39.7-2.4.2-.2.3-.2c-22.9-23.6-54.9-38.3-90.3-38.3Z"/>
        <g>
          <g>
            <rect class="cls-1" x="54.3" y="154.9" width="54.9" height="135.7" rx="27.1" ry="27.1"/>
            <rect class="cls-1" x="220.8" y="154.9" width="54.9" height="135.7" rx="27.1" ry="27.1"/>
          </g>
          <path class="cls-1" d="m303.2,180v-16.8c0-76.2-62-138.2-138.2-138.2S26.8,87,26.8,163.2v16.8c-6.8,1.4-11.8,7.4-11.8,14.5v40.6c0,16.4,13.3,29.7,29.7,29.7h0l-.4-101.6c0-66.6,54.2-120.7,120.7-120.7s120.7,54.2,120.7,120.7l-.4,101.6c16.4,0,29.7-13.3,29.7-29.7v-40.6c0-7.2-5.1-13.1-11.8-14.5Z"/>
        </g>
      </g>
      <g>
        <path class="cls-2" d="m165,19.2c-35.4,0-67.4,14.7-90.3,38.3,0,0,.2.2.3.2,11.3,9.2,27.2,9.8,39.7,2.4,14.7-8.8,31.9-13.8,50.3-13.8s35.6,5,50.3,13.8,28.4,6.8,39.7-2.4.2-.2.3-.2c-22.9-23.6-54.9-38.3-90.3-38.3Z"/>
        <g>
          <g>
            <rect class="cls-2" x="54.3" y="144.9" width="54.9" height="135.7" rx="27.1" ry="27.1"/>
            <rect class="cls-2" x="220.8" y="144.9" width="54.9" height="135.7" rx="27.1" ry="27.1"/>
          </g>
          <path class="cls-2" d="m303.2,170v-16.8c0-76.2-62-138.2-138.2-138.2S26.8,77,26.8,153.2v16.8c-6.8,1.4-11.8,7.4-11.8,14.5v40.6c0,16.4,13.3,29.7,29.7,29.7h0l-.4-101.6c0-66.6,54.2-120.7,120.7-120.7s120.7,54.2,120.7,120.7l-.4,101.6c16.4,0,29.7-13.3,29.7-29.7v-40.6c0-7.2-5.1-13.1-11.8-14.5Z"/>
        </g>
      </g>
      <g>
        <path class="cls-4" d="m165,19.2c-35.4,0-67.4,14.7-90.3,38.3,0,0,.2.2.3.2,11.3,9.2,27.2,9.8,39.7,2.4,14.7-8.8,31.9-13.8,50.3-13.8s35.6,5,50.3,13.8,28.4,6.8,39.7-2.4.2-.2.3-.2c-22.9-23.6-54.9-38.3-90.3-38.3Z"/>
        <g>
          <g>
            <rect class="cls-4" x="54.3" y="144.9" width="54.9" height="135.7" rx="27.1" ry="27.1"/>
            <rect class="cls-4" x="220.8" y="144.9" width="54.9" height="135.7" rx="27.1" ry="27.1"/>
          </g>
          <path class="cls-3" d="m303.2,170v-16.8c0-76.2-62-138.2-138.2-138.2S26.8,77,26.8,153.2v16.8c-6.8,1.4-11.8,7.4-11.8,14.5v40.6c0,16.4,13.3,29.7,29.7,29.7h0l-.4-101.6c0-66.6,54.2-120.7,120.7-120.7s120.7,54.2,120.7,120.7l-.4,101.6c16.4,0,29.7-13.3,29.7-29.7v-40.6c0-7.2-5.1-13.1-11.8-14.5Z"/>
        </g>
      </g>
    </g>
  </g>
</svg>