<?xml version="1.0" encoding="UTF-8"?>
<svg id="Layer_2" data-name="Layer 2" xmlns="http://www.w3.org/2000/svg" width="245.6" height="340" viewBox="0 0 245.6 340">
  <defs>
    <style>
      .cls-1 {
        fill: #bcbfd3;
        stroke: #bcbfd3;
      }

      .cls-1, .cls-2 {
        stroke-linecap: round;
        stroke-linejoin: round;
        stroke-width: 30px;
      }

      .cls-3 {
        fill: #fcb84b;
      }

      .cls-4 {
        fill: #747f93;
      }

      .cls-5 {
        fill: #515660;
      }

      .cls-2 {
        fill: #fff;
        stroke: #fff;
      }
    </style>
  </defs>
  <g id="Grouped">
    <g>
      <g>
        <path class="cls-1" d="m55,216.7c10.8,8.8,17.9,21.3,19.9,35,.1.7.2,1.5.3,2.2,1.1,6.6,6.9,11.5,13.6,11.5h67.8c6.7,0,12.5-4.9,13.6-11.5s.3-1.9.4-2.9c1.9-13.5,9.2-25.7,19.8-34.3,24.4-19.8,40.1-50,40.1-83.9,0-59.9-48.9-108.4-109-107.8-59.3.6-106.7,48.5-106.7,107.8,0,33.9,15.6,64.1,40,83.8Z"/>
        <rect class="cls-1" x="79.7" y="275.6" width="86.3" height="19.9" rx="6" ry="6"/>
        <rect class="cls-1" x="79.7" y="305.1" width="86.3" height="19.9" rx="6" ry="6"/>
        <path class="cls-1" d="m153.4,109.1h0c-4.8-3-10.2-3.4-15.7-1.2-5.1,2.1-10.2,6.4-15.2,12.9-4.7-5.9-9.6-9.9-14.4-11.9-5.5-2.3-11-1.9-15.7,1.2-15.7,9.9-7.8,63.4,3.4,127.1.9,5,1.7,9.6,2.4,13.7.4,2.2,2.3,3.8,4.5,3.8s1.8-.3,2.6-.8c1.5-1,2.2-2.9,1.9-4.8-.7-4-1.5-8.5-2.3-13.4h0c-3.6-20.9-8.6-49.4-10.8-73.4-3.5-38.1,2.2-43.8,3.3-44.5,2.3-1.4,4.6-1.6,7.4-.4,4.2,1.7,8.7,6,13.3,12.5,1.1,1.5,2.8,2.4,4.7,2.4h0c1.9,0,3.6-.9,4.7-2.5,4.7-6.9,9.5-11.5,13.8-13.3,2.8-1.1,5.1-1,7.4.4,1.2.7,6.8,6.4,3.3,44.7-2.2,24.1-7.2,52.6-10.8,73.4v.2c-.9,4.8-1.6,9.2-2.3,13.1-.3,1.9.4,3.7,1.9,4.8.8.5,1.6.8,2.6.8,2.2,0,4.1-1.6,4.5-3.8.7-4,1.5-8.6,2.3-13.5,3.7-21,8.7-49.7,10.9-74.2,2.9-31.7.6-48.1-7.5-53.3Z"/>
      </g>
      <g>
        <path class="cls-2" d="m55,206.7c10.8,8.8,17.9,21.3,19.9,35,.1.7.2,1.5.3,2.2,1.1,6.6,6.9,11.5,13.6,11.5h67.8c6.7,0,12.5-4.9,13.6-11.5s.3-1.9.4-2.9c1.9-13.5,9.2-25.7,19.8-34.3,24.4-19.8,40.1-50,40.1-83.9,0-59.9-48.9-108.4-109-107.8C62.3,15.6,15,63.5,15,122.8c0,33.9,15.6,64.1,40,83.8Z"/>
        <rect class="cls-2" x="79.7" y="265.6" width="86.3" height="19.9" rx="6" ry="6"/>
        <rect class="cls-2" x="79.7" y="295.1" width="86.3" height="19.9" rx="6" ry="6"/>
        <path class="cls-2" d="m153.4,99.1h0c-4.8-3-10.2-3.4-15.7-1.2-5.1,2.1-10.2,6.4-15.2,12.9-4.7-5.9-9.6-9.9-14.4-11.9-5.5-2.3-11-1.9-15.7,1.2-15.7,9.9-7.8,63.4,3.4,127.1.9,5,1.7,9.6,2.4,13.7.4,2.2,2.3,3.8,4.5,3.8s1.8-.3,2.6-.8c1.5-1,2.2-2.9,1.9-4.8-.7-4-1.5-8.5-2.3-13.4h0c-3.6-20.9-8.6-49.4-10.8-73.4-3.5-38.1,2.2-43.8,3.3-44.5,2.3-1.4,4.6-1.6,7.4-.4,4.2,1.7,8.7,6,13.3,12.5,1.1,1.5,2.8,2.4,4.7,2.4h0c1.9,0,3.6-.9,4.7-2.5,4.7-6.9,9.5-11.5,13.8-13.3,2.8-1.1,5.1-1,7.4.4,1.2.7,6.8,6.4,3.3,44.7-2.2,24.1-7.2,52.6-10.8,73.4v.2c-.9,4.8-1.6,9.2-2.3,13.1-.3,1.9.4,3.7,1.9,4.8.8.5,1.6.8,2.6.8,2.2,0,4.1-1.6,4.5-3.8.7-4,1.5-8.6,2.3-13.5,3.7-21,8.7-49.7,10.9-74.2,2.9-31.7.6-48.1-7.5-53.3Z"/>
      </g>
      <g>
        <path class="cls-3" d="m55,206.7c10.8,8.8,17.9,21.3,19.9,35,.1.7.2,1.5.3,2.2,1.1,6.6,6.9,11.5,13.6,11.5h67.8c6.7,0,12.5-4.9,13.6-11.5s.3-1.9.4-2.9c1.9-13.5,9.2-25.7,19.8-34.3,24.4-19.8,40.1-50,40.1-83.9,0-59.9-48.9-108.4-109-107.8C62.3,15.6,15,63.5,15,122.8c0,33.9,15.6,64.1,40,83.8Z"/>
        <rect class="cls-4" x="79.7" y="265.6" width="86.3" height="19.9" rx="6" ry="6"/>
        <rect class="cls-4" x="79.7" y="295.1" width="86.3" height="19.9" rx="6" ry="6"/>
        <path class="cls-5" d="m153.4,99.1h0c-4.8-3-10.2-3.4-15.7-1.2-5.1,2.1-10.2,6.4-15.2,12.9-4.7-5.9-9.6-9.9-14.4-11.9-5.5-2.3-11-1.9-15.7,1.2-15.7,9.9-7.8,63.4,3.4,127.1.9,5,1.7,9.6,2.4,13.7.4,2.2,2.3,3.8,4.5,3.8s1.8-.3,2.6-.8c1.5-1,2.2-2.9,1.9-4.8-.7-4-1.5-8.5-2.3-13.4h0c-3.6-20.9-8.6-49.4-10.8-73.4-3.5-38.1,2.2-43.8,3.3-44.5,2.3-1.4,4.6-1.6,7.4-.4,4.2,1.7,8.7,6,13.3,12.5,1.1,1.5,2.8,2.4,4.7,2.4h0c1.9,0,3.6-.9,4.7-2.5,4.7-6.9,9.5-11.5,13.8-13.3,2.8-1.1,5.1-1,7.4.4,1.2.7,6.8,6.4,3.3,44.7-2.2,24.1-7.2,52.6-10.8,73.4v.2c-.9,4.8-1.6,9.2-2.3,13.1-.3,1.9.4,3.7,1.9,4.8.8.5,1.6.8,2.6.8,2.2,0,4.1-1.6,4.5-3.8.7-4,1.5-8.6,2.3-13.5,3.7-21,8.7-49.7,10.9-74.2,2.9-31.7.6-48.1-7.5-53.3Z"/>
      </g>
    </g>
  </g>
</svg>