<?xml version="1.0" encoding="UTF-8"?>
<svg id="Layer_2" data-name="Layer 2" xmlns="http://www.w3.org/2000/svg" width="289.8" height="340" viewBox="0 0 289.8 340">
  <defs>
    <style>
      .cls-1 {
        fill: #bcbfd3;
        stroke: #bcbfd3;
      }

      .cls-1, .cls-2 {
        stroke-linecap: round;
        stroke-linejoin: round;
        stroke-width: 30px;
      }

      .cls-2 {
        fill: #fff;
        stroke: #fff;
      }

      .cls-3 {
        fill: #50555f;
      }
    </style>
  </defs>
  <g id="Grouped">
    <g>
      <path class="cls-1" d="m243.6,66.9l-113.9-37.3-14.9-4.1c-8.2-2.3-16.3,3.9-16.3,12.4v169.4c-9.4-2.5-20.2-3.2-31.4-1.6-31.5,4.4-54.7,24.9-51.8,45.8,2.9,20.9,30.9,34.2,62.4,29.8,26.1-3.7,46.5-18.3,51.1-35.1l1-177.6c0-3,2.9-5.1,5.8-4.2l101.8,33.3c3.7,1.2,6.2,4.7,6.2,8.6v143.9c-9.4-2.5-20.2-3.2-31.4-1.6-31.5,4.4-54.7,24.9-51.8,45.8,2.9,20.9,30.9,34.2,62.4,29.8,26.1-3.7,46.5-18.3,51.1-35.1l1-179.1v-19.9c0-7.7-5-14.6-12.3-17l-18.9-6.2Z"/>
      <path class="cls-2" d="m243.6,56.9l-113.9-37.3-14.9-4.1c-8.2-2.3-16.3,3.9-16.3,12.4v169.4c-9.4-2.5-20.2-3.2-31.4-1.6-31.5,4.4-54.7,24.9-51.8,45.8,2.9,20.9,30.9,34.2,62.4,29.8,26.1-3.7,46.5-18.3,51.1-35.1l1-177.6c0-3,2.9-5.1,5.8-4.2l101.8,33.3c3.7,1.2,6.2,4.7,6.2,8.6v143.9c-9.4-2.5-20.2-3.2-31.4-1.6-31.5,4.4-54.7,24.9-51.8,45.8,2.9,20.9,30.9,34.2,62.4,29.8,26.1-3.7,46.5-18.3,51.1-35.1l1-179.1v-19.9c0-7.7-5-14.6-12.3-17l-18.9-6.2Z"/>
      <path class="cls-3" d="m243.6,56.9l-113.9-37.3-14.9-4.1c-8.2-2.3-16.3,3.9-16.3,12.4v169.4c-9.4-2.5-20.2-3.2-31.4-1.6-31.5,4.4-54.7,24.9-51.8,45.8,2.9,20.9,30.9,34.2,62.4,29.8,26.1-3.7,46.5-18.3,51.1-35.1l1-177.6c0-3,2.9-5.1,5.8-4.2l101.8,33.3c3.7,1.2,6.2,4.7,6.2,8.6v143.9c-9.4-2.5-20.2-3.2-31.4-1.6-31.5,4.4-54.7,24.9-51.8,45.8,2.9,20.9,30.9,34.2,62.4,29.8,26.1-3.7,46.5-18.3,51.1-35.1l1-179.1v-19.9c0-7.7-5-14.6-12.3-17l-18.9-6.2Z"/>
    </g>
  </g>
</svg>