<?xml version="1.0" encoding="UTF-8"?>
<svg id="Layer_2" data-name="Layer 2" xmlns="http://www.w3.org/2000/svg" width="330" height="340" viewBox="0 0 330 340">
  <defs>
    <style>
      .cls-1 {
        fill: #bcbfd3;
        stroke: #bcbfd3;
      }

      .cls-1, .cls-2 {
        stroke-linecap: round;
        stroke-linejoin: round;
        stroke-width: 30px;
      }

      .cls-3 {
        fill: #fcb84b;
      }

      .cls-4 {
        fill: #f04b36;
      }

      .cls-2 {
        fill: #fff;
        stroke: #fff;
      }

      .cls-5 {
        fill: #50555f;
      }
    </style>
  </defs>
  <g id="Grouped">
    <g>
      <g>
        <g>
          <path class="cls-1" d="m28.4,84.7l-10.5,10.5c-3.9,3.9-3.9,10.2,0,14.1l164.7,164.7c3.9,3.9,10.2,3.9,14.1,0l10.5-10.5L28.4,84.7Z"/>
          <rect class="cls-1" x="117.2" y="25" width="46.7" height="252.8" transform="translate(-65.9 143.8) rotate(-45)"/>
          <path class="cls-1" d="m74.7,38.4l178.8,178.8,10.5-10.5c3.9-3.9,3.9-10.2,0-14.1L99.3,27.9c-3.9-3.9-10.2-3.9-14.1,0l-10.5,10.5Z"/>
        </g>
        <path class="cls-1" d="m296.5,289.8l-16.8,16.8-74.9-17.7c-4.2-1-5.7-6.3-2.7-9.4l67.3-67.3c3.1-3.1,8.4-1.6,9.4,2.7l17.7,74.9Z"/>
        <path class="cls-1" d="m288,293.3h23.7v21.2c0,6.5-5.3,11.9-11.9,11.9h0c-6.5,0-11.9-5.3-11.9-11.9v-21.2h0Z" transform="translate(-131.3 302.8) rotate(-45)"/>
      </g>
      <g>
        <g>
          <path class="cls-2" d="m28.4,74.7l-10.5,10.5c-3.9,3.9-3.9,10.2,0,14.1l164.7,164.7c3.9,3.9,10.2,3.9,14.1,0l10.5-10.5L28.4,74.7Z"/>
          <rect class="cls-2" x="117.2" y="14.9" width="46.7" height="252.8" transform="translate(-58.8 140.8) rotate(-45)"/>
          <path class="cls-2" d="m74.7,28.4l178.8,178.8,10.5-10.5c3.9-3.9,3.9-10.2,0-14.1L99.3,17.9c-3.9-3.9-10.2-3.9-14.1,0l-10.5,10.5Z"/>
        </g>
        <path class="cls-2" d="m296.5,279.7l-16.8,16.8-74.9-17.7c-4.2-1-5.7-6.3-2.7-9.4l67.3-67.3c3.1-3.1,8.4-1.6,9.4,2.7l17.7,74.9Z"/>
        <path class="cls-2" d="m288,283.3h23.7v21.2c0,6.5-5.3,11.9-11.9,11.9h0c-6.5,0-11.9-5.3-11.9-11.9v-21.2h0Z" transform="translate(-124.2 299.8) rotate(-45)"/>
      </g>
      <g>
        <g>
          <path class="cls-4" d="m28.4,74.7l-10.5,10.5c-3.9,3.9-3.9,10.2,0,14.1l164.7,164.7c3.9,3.9,10.2,3.9,14.1,0l10.5-10.5L28.4,74.7Z"/>
          <rect class="cls-4" x="117.2" y="14.9" width="46.7" height="252.8" transform="translate(-58.8 140.8) rotate(-45)"/>
          <path class="cls-4" d="m74.7,28.4l178.8,178.8,10.5-10.5c3.9-3.9,3.9-10.2,0-14.1L99.3,17.9c-3.9-3.9-10.2-3.9-14.1,0l-10.5,10.5Z"/>
        </g>
        <path class="cls-3" d="m296.5,279.7l-16.8,16.8-74.9-17.7c-4.2-1-5.7-6.3-2.7-9.4l67.3-67.3c3.1-3.1,8.4-1.6,9.4,2.7l17.7,74.9Z"/>
        <path class="cls-5" d="m288,283.3h23.7v21.2c0,6.5-5.3,11.9-11.9,11.9h0c-6.5,0-11.9-5.3-11.9-11.9v-21.2h0Z" transform="translate(-124.2 299.8) rotate(-45)"/>
      </g>
    </g>
  </g>
</svg>