<?xml version="1.0" encoding="UTF-8"?>
<svg id="Layer_2" data-name="Layer 2" xmlns="http://www.w3.org/2000/svg" width="264.7" height="340" viewBox="0 0 264.7 340">
  <defs>
    <style>
      .cls-1 {
        fill: #bcbfd3;
        stroke: #bcbfd3;
      }

      .cls-1, .cls-2 {
        stroke-linecap: round;
        stroke-linejoin: round;
        stroke-width: 30px;
      }

      .cls-3 {
        fill: #fcb84b;
      }

      .cls-4 {
        fill: #f04b36;
      }

      .cls-5 {
        fill: #b1c5e6;
      }

      .cls-2 {
        fill: #fff;
        stroke: #fff;
      }

      .cls-6 {
        fill: #50555f;
      }
    </style>
  </defs>
  <g id="Grouped">
    <g>
      <g>
        <path class="cls-1" d="m15,219.4c0,16,13,29,29,29h176.7c16,0,29-13,29-29V85c0-30.8-25.1-55.9-55.9-55.9-36.8-5.7-78-5.3-122.9,0-30.8,0-55.9,25.1-55.9,55.9v134.4Z"/>
        <rect class="cls-1" x="44" y="81" width="176.7" height="83" rx="17.7" ry="17.7"/>
        <g>
          <circle class="cls-1" cx="70.8" cy="198.6" r="19.8"/>
          <circle class="cls-1" cx="193.9" cy="198.6" r="19.8"/>
        </g>
        <path class="cls-1" d="m207.1,256.5h-24.3c.2.6.4,1.1.7,1.7l4.7,8.7-110.9-1.5,3.9-7.2c.3-.6.5-1.1.7-1.7h-24.3l-28.4,52.7c-2.8,5.2-.9,11.8,4.4,14.6,1.6.9,3.4,1.3,5.1,1.3,3.8,0,7.5-2,9.5-5.7l3.3-6.2,162.7,1.9,2.3,4.3c1.9,3.6,5.7,5.7,9.5,5.7s3.5-.4,5.1-1.3c5.2-2.8,7.2-9.3,4.4-14.6l-28.4-52.7Zm-145.4,37.7l6.6-12.3,129,1.7,6.6,12.2-142.1-1.7Z"/>
      </g>
      <g>
        <path class="cls-2" d="m15,209.4c0,16,13,29,29,29h176.7c16,0,29-13,29-29V75c0-30.8-25.1-55.9-55.9-55.9-36.8-5.7-78-5.3-122.9,0-30.8,0-55.9,25.1-55.9,55.9v134.4Z"/>
        <rect class="cls-2" x="44" y="71" width="176.7" height="83" rx="17.7" ry="17.7"/>
        <g>
          <circle class="cls-2" cx="70.8" cy="188.6" r="19.8"/>
          <circle class="cls-2" cx="193.9" cy="188.6" r="19.8"/>
        </g>
        <path class="cls-2" d="m207.1,246.5h-24.3c.2.6.4,1.1.7,1.7l4.7,8.7-110.9-1.5,3.9-7.2c.3-.6.5-1.1.7-1.7h-24.3l-28.4,52.7c-2.8,5.2-.9,11.8,4.4,14.6,1.6.9,3.4,1.3,5.1,1.3,3.8,0,7.5-2,9.5-5.7l3.3-6.2,162.7,1.9,2.3,4.3c1.9,3.6,5.7,5.7,9.5,5.7s3.5-.4,5.1-1.3c5.2-2.8,7.2-9.3,4.4-14.6l-28.4-52.7Zm-145.4,37.7l6.6-12.3,129,1.7,6.6,12.2-142.1-1.7Z"/>
      </g>
      <g>
        <path class="cls-4" d="m15,209.4c0,16,13,29,29,29h176.7c16,0,29-13,29-29V75c0-30.8-25.1-55.9-55.9-55.9-36.8-5.7-78-5.3-122.9,0-30.8,0-55.9,25.1-55.9,55.9v134.4Z"/>
        <rect class="cls-5" x="44" y="71" width="176.7" height="83" rx="17.7" ry="17.7"/>
        <g>
          <circle class="cls-3" cx="70.8" cy="188.6" r="19.8"/>
          <circle class="cls-3" cx="193.9" cy="188.6" r="19.8"/>
        </g>
        <path class="cls-6" d="m207.1,246.5h-24.3c.2.6.4,1.1.7,1.7l4.7,8.7-110.9-1.5,3.9-7.2c.3-.6.5-1.1.7-1.7h-24.3l-28.4,52.7c-2.8,5.2-.9,11.8,4.4,14.6,1.6.9,3.4,1.3,5.1,1.3,3.8,0,7.5-2,9.5-5.7l3.3-6.2,162.7,1.9,2.3,4.3c1.9,3.6,5.7,5.7,9.5,5.7s3.5-.4,5.1-1.3c5.2-2.8,7.2-9.3,4.4-14.6l-28.4-52.7Zm-145.4,37.7l6.6-12.3,129,1.7,6.6,12.2-142.1-1.7Z"/>
      </g>
    </g>
  </g>
</svg>