<?xml version="1.0" encoding="UTF-8"?>
<svg id="Layer_2" data-name="Layer 2" xmlns="http://www.w3.org/2000/svg" width="330" height="317.5" viewBox="0 0 330 317.5">
  <defs>
    <style>
      .cls-1 {
        fill: #bcbfd3;
        stroke: #bcbfd3;
      }

      .cls-1, .cls-2 {
        stroke-linecap: round;
        stroke-linejoin: round;
        stroke-width: 30px;
      }

      .cls-3 {
        fill: #5876ba;
      }

      .cls-4 {
        fill: #f04b36;
      }

      .cls-2 {
        fill: #fff;
        stroke: #fff;
      }

      .cls-5 {
        fill: #50555f;
      }

      .cls-6 {
        fill: #f7901e;
      }
    </style>
  </defs>
  <g id="Grouped">
    <g>
      <g>
        <rect class="cls-1" x="221" y="25" width="44.5" height="60.7"/>
        <path class="cls-1" d="m153.6,35.1L25.5,105.9c-6.5,3.6-10.5,10.4-10.5,17.9v5.7c0,8,8.6,13.1,15.6,9.2l134.4-74.3,134.4,74.3c7,3.9,15.6-1.2,15.6-9.2v-5.7c0-7.4-4-14.3-10.5-17.9L176.4,35.1c-7.1-3.9-15.8-3.9-22.9,0Z"/>
        <path class="cls-1" d="m57.2,302.5h215.5c9.4,0,16.9-7.6,16.9-16.9v-140.5l-124.7-69-124.7,69v140.5c0,9.4,7.6,16.9,16.9,16.9Z"/>
        <rect class="cls-1" x="122.9" y="155.4" width="82.9" height="147.1" rx="8.7" ry="8.7"/>
      </g>
      <g>
        <rect class="cls-2" x="221" y="15" width="44.5" height="60.7"/>
        <path class="cls-2" d="m153.6,25.1L25.5,95.9c-6.5,3.6-10.5,10.4-10.5,17.9v5.7c0,8,8.6,13.1,15.6,9.2L165,54.3l134.4,74.3c7,3.9,15.6-1.2,15.6-9.2v-5.7c0-7.4-4-14.3-10.5-17.9L176.4,25.1c-7.1-3.9-15.8-3.9-22.9,0Z"/>
        <path class="cls-2" d="m57.2,292.5h215.5c9.4,0,16.9-7.6,16.9-16.9v-140.5l-124.7-69-124.7,69v140.5c0,9.4,7.6,16.9,16.9,16.9Z"/>
        <rect class="cls-2" x="122.9" y="145.4" width="82.9" height="147.1" rx="8.7" ry="8.7"/>
      </g>
      <g>
        <rect class="cls-5" x="221" y="15" width="44.5" height="60.7"/>
        <path class="cls-3" d="m153.6,25.1L25.5,95.9c-6.5,3.6-10.5,10.4-10.5,17.9v5.7c0,8,8.6,13.1,15.6,9.2L165,54.3l134.4,74.3c7,3.9,15.6-1.2,15.6-9.2v-5.7c0-7.4-4-14.3-10.5-17.9L176.4,25.1c-7.1-3.9-15.8-3.9-22.9,0Z"/>
        <path class="cls-4" d="m57.2,292.5h215.5c9.4,0,16.9-7.6,16.9-16.9v-140.5l-124.7-69-124.7,69v140.5c0,9.4,7.6,16.9,16.9,16.9Z"/>
        <rect class="cls-6" x="122.9" y="145.4" width="82.9" height="147.1" rx="8.7" ry="8.7"/>
      </g>
    </g>
  </g>
</svg>