<?xml version="1.0" encoding="UTF-8"?>
<svg id="Layer_2" data-name="Layer 2" xmlns="http://www.w3.org/2000/svg" width="330" height="308.2" viewBox="0 0 330 308.2">
  <defs>
    <style>
      .cls-1 {
        fill: #bcbfd3;
        stroke: #bcbfd3;
      }

      .cls-1, .cls-2 {
        stroke-linecap: round;
        stroke-linejoin: round;
        stroke-width: 30px;
      }

      .cls-3, .cls-2 {
        fill: #fff;
      }

      .cls-4 {
        opacity: .2;
      }

      .cls-5 {
        fill: #b1c5e6;
      }

      .cls-2 {
        stroke: #fff;
      }

      .cls-6 {
        fill: #50555f;
      }
    </style>
  </defs>
  <g id="Grouped">
    <g>
      <g>
        <g>
          <path class="cls-1" d="m287.8,25H42.2c-15,0-27.2,12.2-27.2,27.2v162.9c0,15,12.2,27.2,27.2,27.2h90.5v23.3h64.7v-23.3h90.5c15,0,27.2-12.2,27.2-27.2V52.2c0-15-12.2-27.2-27.2-27.2Zm12,176.1c0,6.6-5.4,12-12,12H42.2c-6.6,0-12-5.4-12-12V52.2c0-6.6,5.4-12,12-12h245.7c6.6,0,12,5.4,12,12v148.9Z"/>
          <path class="cls-1" d="m224.5,275.2h-117.7c-5,0-9,4-9,9s4,9,9,9h117.7c5,0,9-4,9-9s-4-9-9-9Z"/>
        </g>
        <rect class="cls-1" x="30.2" y="40.2" width="269.6" height="172.8" rx="12" ry="12"/>
        <g class="cls-4">
          <polygon class="cls-1" points="237.4 40.2 97.2 213 121 213 261.3 40.2 237.4 40.2"/>
          <path class="cls-1" d="m42.2,213h27.2L209.7,40.2h-71.4L30.2,173.3v27.8c0,6.6,5.4,12,12,12Z"/>
        </g>
      </g>
      <g>
        <g>
          <path class="cls-2" d="m287.8,15H42.2c-15,0-27.2,12.2-27.2,27.2v162.9c0,15,12.2,27.2,27.2,27.2h90.5v23.3h64.7v-23.3h90.5c15,0,27.2-12.2,27.2-27.2V42.2c0-15-12.2-27.2-27.2-27.2Zm12,176.1c0,6.6-5.4,12-12,12H42.2c-6.6,0-12-5.4-12-12V42.2c0-6.6,5.4-12,12-12h245.7c6.6,0,12,5.4,12,12v148.9Z"/>
          <path class="cls-2" d="m224.5,265.2h-117.7c-5,0-9,4-9,9s4,9,9,9h117.7c5,0,9-4,9-9s-4-9-9-9Z"/>
        </g>
        <rect class="cls-2" x="30.2" y="30.2" width="269.6" height="172.8" rx="12" ry="12"/>
        <g class="cls-4">
          <polygon class="cls-2" points="237.4 30.2 97.2 203 121 203 261.3 30.2 237.4 30.2"/>
          <path class="cls-2" d="m42.2,203h27.2L209.7,30.2h-71.4L30.2,163.3v27.8c0,6.6,5.4,12,12,12Z"/>
        </g>
      </g>
      <g>
        <g>
          <path class="cls-6" d="m287.8,15H42.2c-15,0-27.2,12.2-27.2,27.2v162.9c0,15,12.2,27.2,27.2,27.2h90.5v23.3h64.7v-23.3h90.5c15,0,27.2-12.2,27.2-27.2V42.2c0-15-12.2-27.2-27.2-27.2Zm12,176.1c0,6.6-5.4,12-12,12H42.2c-6.6,0-12-5.4-12-12V42.2c0-6.6,5.4-12,12-12h245.7c6.6,0,12,5.4,12,12v148.9Z"/>
          <path class="cls-6" d="m224.5,265.2h-117.7c-5,0-9,4-9,9s4,9,9,9h117.7c5,0,9-4,9-9s-4-9-9-9Z"/>
        </g>
        <rect class="cls-5" x="30.2" y="30.2" width="269.6" height="172.8" rx="12" ry="12"/>
        <g class="cls-4">
          <polygon class="cls-3" points="237.4 30.2 97.2 203 121 203 261.3 30.2 237.4 30.2"/>
          <path class="cls-3" d="m42.2,203h27.2L209.7,30.2h-71.4L30.2,163.3v27.8c0,6.6,5.4,12,12,12Z"/>
        </g>
      </g>
    </g>
  </g>
</svg>