<?xml version="1.0" encoding="UTF-8"?>
<svg id="Layer_2" data-name="Layer 2" xmlns="http://www.w3.org/2000/svg" width="250" height="340" viewBox="0 0 250 340">
  <defs>
    <style>
      .cls-1 {
        fill: #bcbfd3;
        stroke: #bcbfd3;
      }

      .cls-1, .cls-2 {
        stroke-linecap: round;
        stroke-linejoin: round;
        stroke-width: 30px;
      }

      .cls-3 {
        fill: #747f93;
      }

      .cls-2 {
        fill: #fff;
        stroke: #fff;
      }

      .cls-4 {
        fill: #50555f;
      }
    </style>
  </defs>
  <g id="Grouped">
    <g>
      <g>
        <rect class="cls-1" x="15" y="160.5" width="220" height="164.5" rx="23.9" ry="23.9"/>
        <path class="cls-1" d="m209.8,145.7h-31.8v-35.9c0-29.2-23.7-52.9-52.9-52.9s-52.9,23.7-52.9,52.9v35.9h-31.8v-35.9c0-46.7,38-84.8,84.8-84.8s84.8,38,84.8,84.8v35.9Z"/>
        <path class="cls-1" d="m139.8,236c7.9-5.2,12.9-14.5,12-24.9-1.1-13.1-11.9-23.6-25-24.5-15.7-1-28.7,11.4-28.7,26.8s4.8,17.7,12.1,22.5,2.7,3.3,2.2,5.4l-9.8,42.8c-1.1,4.7,2.5,9.2,7.3,9.2h30.2c4.8,0,8.4-4.5,7.3-9.2l-9.8-42.8c-.5-2.1.4-4.2,2.2-5.4Z"/>
      </g>
      <g>
        <rect class="cls-2" x="15" y="150.5" width="220" height="164.5" rx="23.9" ry="23.9"/>
        <path class="cls-2" d="m209.8,135.7h-31.8v-35.9c0-29.2-23.7-52.9-52.9-52.9s-52.9,23.7-52.9,52.9v35.9h-31.8v-35.9c0-46.7,38-84.8,84.8-84.8s84.8,38,84.8,84.8v35.9Z"/>
        <path class="cls-2" d="m139.8,226c7.9-5.2,12.9-14.5,12-24.9-1.1-13.1-11.9-23.6-25-24.5-15.7-1-28.7,11.4-28.7,26.8s4.8,17.7,12.1,22.5,2.7,3.3,2.2,5.4l-9.8,42.8c-1.1,4.7,2.5,9.2,7.3,9.2h30.2c4.8,0,8.4-4.5,7.3-9.2l-9.8-42.8c-.5-2.1.4-4.2,2.2-5.4Z"/>
      </g>
      <g>
        <rect class="cls-3" x="15" y="150.5" width="220" height="164.5" rx="23.9" ry="23.9"/>
        <path class="cls-4" d="m209.8,135.7h-31.8v-35.9c0-29.2-23.7-52.9-52.9-52.9s-52.9,23.7-52.9,52.9v35.9h-31.8v-35.9c0-46.7,38-84.8,84.8-84.8s84.8,38,84.8,84.8v35.9Z"/>
        <path class="cls-4" d="m139.8,226c7.9-5.2,12.9-14.5,12-24.9-1.1-13.1-11.9-23.6-25-24.5-15.7-1-28.7,11.4-28.7,26.8s4.8,17.7,12.1,22.5,2.7,3.3,2.2,5.4l-9.8,42.8c-1.1,4.7,2.5,9.2,7.3,9.2h30.2c4.8,0,8.4-4.5,7.3-9.2l-9.8-42.8c-.5-2.1.4-4.2,2.2-5.4Z"/>
      </g>
    </g>
  </g>
</svg>