<?xml version="1.0" encoding="UTF-8"?>
<svg id="Layer_2" data-name="Layer 2" xmlns="http://www.w3.org/2000/svg" width="330" height="202.7" viewBox="0 0 330 202.7">
  <defs>
    <style>
      .cls-1 {
        fill: #bcbfd3;
        stroke: #bcbfd3;
      }

      .cls-1, .cls-2 {
        stroke-linecap: round;
        stroke-linejoin: round;
        stroke-width: 30px;
      }

      .cls-3 {
        fill: #5876ba;
      }

      .cls-4 {
        fill: #b1c5e6;
      }

      .cls-2 {
        fill: #fff;
        stroke: #fff;
      }

      .cls-5 {
        fill: #50555f;
      }
    </style>
  </defs>
  <g id="Grouped">
    <g>
      <g>
        <circle class="cls-1" cx="75.6" cy="157.2" r="28.1"/>
        <circle class="cls-1" cx="234" cy="159.7" r="28.1"/>
        <path class="cls-1" d="m273.8,89.4l-10.2-2c-16.1-3.2-29.4-13.5-35.7-27.6-9.2-20.4-31.1-34.8-56.6-34.8h-64.7c-28.4,0-52.3,17.8-59.2,41.9-2,6.8-6.8,12.6-13.3,16.5-8.7,5.1-19.1,22.5-19.1,31.5v24.3c0,12.7,11.1,23.1,24.9,23.3-.3-1.7-.4-3.5-.4-5.3,0-19.9,16.2-36.1,36.1-36.1s36.1,16.2,36.1,36.1-.1,3.6-.4,5.3h86.7c0-.9-.1-1.9-.1-2.9,0-19.9,16.2-36.1,36.1-36.1s36.1,16.2,36.1,36.1,0,1.9-.1,2.9h19.7c14,0,25.4-10.4,25.4-23.3v-3.5c0-22.5-17.2-41.8-41.2-46.3Z"/>
        <g>
          <path class="cls-1" d="m224.5,82c-3-3.8-5.5-7.9-7.5-12.3-7.6-16.8-25.5-27.7-45.7-27.7h-27.3c-2.7,0-4.8,2.1-4.8,4.8v37.1c0,2.6,2.1,4.7,4.7,4.8l76.5,1.5c4.3,0,6.7-4.8,4.1-8.2Z"/>
          <path class="cls-1" d="m129.2,46.8c0-2.7-2.1-4.8-4.8-4.8h-17.8c-22.8,0-42.6,14-47.9,34-.4,1.3-.9,2.6-1.5,3.8-1.5,3.3.8,7.1,4.5,7.2l62.6,1.2c2.7,0,4.9-2.1,4.9-4.8v-36.7Z"/>
        </g>
      </g>
      <g>
        <circle class="cls-2" cx="75.6" cy="147.2" r="28.1"/>
        <circle class="cls-2" cx="234" cy="149.6" r="28.1"/>
        <path class="cls-2" d="m273.8,79.4l-10.2-2c-16.1-3.2-29.4-13.5-35.7-27.6-9.2-20.4-31.1-34.8-56.6-34.8h-64.7c-28.4,0-52.3,17.8-59.2,41.9-2,6.8-6.8,12.6-13.3,16.5-8.7,5.1-19.1,22.5-19.1,31.5v24.3c0,12.7,11.1,23.1,24.9,23.3-.3-1.7-.4-3.5-.4-5.3,0-19.9,16.2-36.1,36.1-36.1s36.1,16.2,36.1,36.1-.1,3.6-.4,5.3h86.7c0-.9-.1-1.9-.1-2.9,0-19.9,16.2-36.1,36.1-36.1s36.1,16.2,36.1,36.1,0,1.9-.1,2.9h19.7c14,0,25.4-10.4,25.4-23.3v-3.5c0-22.5-17.2-41.8-41.2-46.3Z"/>
        <g>
          <path class="cls-2" d="m224.5,72c-3-3.8-5.5-7.9-7.5-12.3-7.6-16.8-25.5-27.7-45.7-27.7h-27.3c-2.7,0-4.8,2.1-4.8,4.8v37.1c0,2.6,2.1,4.7,4.7,4.8l76.5,1.5c4.3,0,6.7-4.8,4.1-8.2Z"/>
          <path class="cls-2" d="m129.2,36.8c0-2.7-2.1-4.8-4.8-4.8h-17.8c-22.8,0-42.6,14-47.9,34-.4,1.3-.9,2.6-1.5,3.8-1.5,3.3.8,7.1,4.5,7.2l62.6,1.2c2.7,0,4.9-2.1,4.9-4.8v-36.7Z"/>
        </g>
      </g>
      <g>
        <circle class="cls-5" cx="75.6" cy="147.2" r="28.1"/>
        <circle class="cls-5" cx="234" cy="149.6" r="28.1"/>
        <path class="cls-3" d="m273.8,79.4l-10.2-2c-16.1-3.2-29.4-13.5-35.7-27.6-9.2-20.4-31.1-34.8-56.6-34.8h-64.7c-28.4,0-52.3,17.8-59.2,41.9-2,6.8-6.8,12.6-13.3,16.5-8.7,5.1-19.1,22.5-19.1,31.5v24.3c0,12.7,11.1,23.1,24.9,23.3-.3-1.7-.4-3.5-.4-5.3,0-19.9,16.2-36.1,36.1-36.1s36.1,16.2,36.1,36.1-.1,3.6-.4,5.3h86.7c0-.9-.1-1.9-.1-2.9,0-19.9,16.2-36.1,36.1-36.1s36.1,16.2,36.1,36.1,0,1.9-.1,2.9h19.7c14,0,25.4-10.4,25.4-23.3v-3.5c0-22.5-17.2-41.8-41.2-46.3Z"/>
        <g>
          <path class="cls-4" d="m224.5,72c-3-3.8-5.5-7.9-7.5-12.3-7.6-16.8-25.5-27.7-45.7-27.7h-27.3c-2.7,0-4.8,2.1-4.8,4.8v37.1c0,2.6,2.1,4.7,4.7,4.8l76.5,1.5c4.3,0,6.7-4.8,4.1-8.2Z"/>
          <path class="cls-4" d="m129.2,36.8c0-2.7-2.1-4.8-4.8-4.8h-17.8c-22.8,0-42.6,14-47.9,34-.4,1.3-.9,2.6-1.5,3.8-1.5,3.3.8,7.1,4.5,7.2l62.6,1.2c2.7,0,4.9-2.1,4.9-4.8v-36.7Z"/>
        </g>
      </g>
    </g>
  </g>
</svg>