<?xml version="1.0" encoding="UTF-8"?>
<svg id="Layer_2" data-name="Layer 2" xmlns="http://www.w3.org/2000/svg" width="330" height="340" viewBox="0 0 330 340">
  <defs>
    <style>
      .cls-1 {
        fill: #bcbfd3;
        stroke: #bcbfd3;
      }

      .cls-1, .cls-2 {
        stroke-linecap: round;
        stroke-linejoin: round;
        stroke-width: 30px;
      }

      .cls-2 {
        fill: #fff;
        stroke: #fff;
      }

      .cls-3 {
        fill: #50555f;
      }
    </style>
  </defs>
  <g id="Grouped">
    <g>
      <path class="cls-1" d="m224.3,31.5L21.5,234.3c-8.6,8.6-8.6,22.6,0,31.2l16.2,16.2,4.8,4.8,35.9,35.9c3.6,3.6,9.4,3.6,13,0h0c3.6-3.6,3.6-9.4,0-13l-32.3-32.3c-2-2-2-5.1,0-7.1h0c2-2,5.1-2,7.1,0l32.3,32.3c3.6,3.6,9.4,3.6,13,0h0c3.6-3.6,3.6-9.4,0-13l-32.3-32.3c-2-2-2-5.1,0-7.1h0c2-2,5.1-2,7.1,0l32.3,32.3c3.6,3.6,9.4,3.6,13,0h0c3.6-3.6,3.6-9.4,0-13l-32.3-32.3c-2-2-2-5.1,0-7.1h0c2-2,5.1-2,7.1,0l32.3,32.3c3.6,3.6,9.4,3.6,13,0h0c3.6-3.6,3.6-9.4,0-13l-32.3-32.3c-2-2-2-5.1,0-7.1h0c2-2,5.1-2,7.1,0l32.3,32.3c3.6,3.6,9.4,3.6,13,0h0c3.6-3.6,3.6-9.4,0-13l-32.3-32.3c-2-2-2-5.1,0-7.1h0c2-2,5.1-2,7.1,0l32.3,32.3c3.6,3.6,9.4,3.6,13,0h0c3.6-3.6,3.6-9.4,0-13l-32.3-32.3c-2-2-2-5.1,0-7.1h0c2-2,5.1-2,7.1,0l32.1,32.1c3.5,3.5,9.2,3.8,12.9.5,3.9-3.6,4-9.6.3-13.3l-32.3-32.3c-2-2-2-5.1,0-7.1h0c2-2,5.1-2,7.1,0l32.1,32.1c3.5,3.5,9.2,3.8,12.9.5,3.9-3.6,4-9.6.3-13.3l-32.3-32.3c-2-2-2-5.1,0-7.1h0c2-2,5.1-2,7.1,0l32.1,32.1c3.5,3.5,9.2,3.8,12.9.5,3.9-3.6,4-9.6.3-13.3l-32.3-32.3c-2-2-2-5.1,0-7.1h0c2-2,5.1-2,7.1,0l32.1,32.1c3.5,3.5,9.2,3.8,12.9.5,3.9-3.6,4-9.6.3-13.3l-32.3-32.3c-2-2-2-5.1,0-7.1h0c2-2,5.1-2,7.1,0l32.1,32.1c3.5,3.5,9.2,3.8,12.9.5,3.9-3.6,4-9.6.3-13.3l-32.3-32.3c-2-2-2-5.1,0-7.1h0c2-2,5.1-2,7.1,0l32.3,32.3c3.6,3.6,9.4,3.6,13,0h0c3.6-3.6,3.6-9.4,0-13l-35.9-35.9-4.8-4.8-16.2-16.2c-8.6-8.6-22.6-8.6-31.2,0Z"/>
      <path class="cls-2" d="m224.3,21.5L21.5,224.3c-8.6,8.6-8.6,22.6,0,31.2l16.2,16.2,4.8,4.8,35.9,35.9c3.6,3.6,9.4,3.6,13,0h0c3.6-3.6,3.6-9.4,0-13l-32.3-32.3c-2-2-2-5.1,0-7.1h0c2-2,5.1-2,7.1,0l32.3,32.3c3.6,3.6,9.4,3.6,13,0h0c3.6-3.6,3.6-9.4,0-13l-32.3-32.3c-2-2-2-5.1,0-7.1h0c2-2,5.1-2,7.1,0l32.3,32.3c3.6,3.6,9.4,3.6,13,0h0c3.6-3.6,3.6-9.4,0-13l-32.3-32.3c-2-2-2-5.1,0-7.1h0c2-2,5.1-2,7.1,0l32.3,32.3c3.6,3.6,9.4,3.6,13,0h0c3.6-3.6,3.6-9.4,0-13l-32.3-32.3c-2-2-2-5.1,0-7.1h0c2-2,5.1-2,7.1,0l32.3,32.3c3.6,3.6,9.4,3.6,13,0h0c3.6-3.6,3.6-9.4,0-13l-32.3-32.3c-2-2-2-5.1,0-7.1h0c2-2,5.1-2,7.1,0l32.3,32.3c3.6,3.6,9.4,3.6,13,0h0c3.6-3.6,3.6-9.4,0-13l-32.3-32.3c-2-2-2-5.1,0-7.1h0c2-2,5.1-2,7.1,0l32.1,32.1c3.5,3.5,9.2,3.8,12.9.5,3.9-3.6,4-9.6.3-13.3l-32.3-32.3c-2-2-2-5.1,0-7.1h0c2-2,5.1-2,7.1,0l32.1,32.1c3.5,3.5,9.2,3.8,12.9.5,3.9-3.6,4-9.6.3-13.3l-32.3-32.3c-2-2-2-5.1,0-7.1h0c2-2,5.1-2,7.1,0l32.1,32.1c3.5,3.5,9.2,3.8,12.9.5,3.9-3.6,4-9.6.3-13.3l-32.3-32.3c-2-2-2-5.1,0-7.1h0c2-2,5.1-2,7.1,0l32.1,32.1c3.5,3.5,9.2,3.8,12.9.5,3.9-3.6,4-9.6.3-13.3l-32.3-32.3c-2-2-2-5.1,0-7.1h0c2-2,5.1-2,7.1,0l32.1,32.1c3.5,3.5,9.2,3.8,12.9.5,3.9-3.6,4-9.6.3-13.3l-32.3-32.3c-2-2-2-5.1,0-7.1h0c2-2,5.1-2,7.1,0l32.3,32.3c3.6,3.6,9.4,3.6,13,0h0c3.6-3.6,3.6-9.4,0-13l-35.9-35.9-4.8-4.8-16.2-16.2c-8.6-8.6-22.6-8.6-31.2,0Z"/>
      <path class="cls-3" d="m224.3,21.5L21.5,224.3c-8.6,8.6-8.6,22.6,0,31.2l16.2,16.2,4.8,4.8,35.9,35.9c3.6,3.6,9.4,3.6,13,0h0c3.6-3.6,3.6-9.4,0-13l-32.3-32.3c-2-2-2-5.1,0-7.1h0c2-2,5.1-2,7.1,0l32.3,32.3c3.6,3.6,9.4,3.6,13,0h0c3.6-3.6,3.6-9.4,0-13l-32.3-32.3c-2-2-2-5.1,0-7.1h0c2-2,5.1-2,7.1,0l32.3,32.3c3.6,3.6,9.4,3.6,13,0h0c3.6-3.6,3.6-9.4,0-13l-32.3-32.3c-2-2-2-5.1,0-7.1h0c2-2,5.1-2,7.1,0l32.3,32.3c3.6,3.6,9.4,3.6,13,0h0c3.6-3.6,3.6-9.4,0-13l-32.3-32.3c-2-2-2-5.1,0-7.1h0c2-2,5.1-2,7.1,0l32.3,32.3c3.6,3.6,9.4,3.6,13,0h0c3.6-3.6,3.6-9.4,0-13l-32.3-32.3c-2-2-2-5.1,0-7.1h0c2-2,5.1-2,7.1,0l32.3,32.3c3.6,3.6,9.4,3.6,13,0h0c3.6-3.6,3.6-9.4,0-13l-32.3-32.3c-2-2-2-5.1,0-7.1h0c2-2,5.1-2,7.1,0l32.1,32.1c3.5,3.5,9.2,3.8,12.9.5,3.9-3.6,4-9.6.3-13.3l-32.3-32.3c-2-2-2-5.1,0-7.1h0c2-2,5.1-2,7.1,0l32.1,32.1c3.5,3.5,9.2,3.8,12.9.5,3.9-3.6,4-9.6.3-13.3l-32.3-32.3c-2-2-2-5.1,0-7.1h0c2-2,5.1-2,7.1,0l32.1,32.1c3.5,3.5,9.2,3.8,12.9.5,3.9-3.6,4-9.6.3-13.3l-32.3-32.3c-2-2-2-5.1,0-7.1h0c2-2,5.1-2,7.1,0l32.1,32.1c3.5,3.5,9.2,3.8,12.9.5,3.9-3.6,4-9.6.3-13.3l-32.3-32.3c-2-2-2-5.1,0-7.1h0c2-2,5.1-2,7.1,0l32.1,32.1c3.5,3.5,9.2,3.8,12.9.5,3.9-3.6,4-9.6.3-13.3l-32.3-32.3c-2-2-2-5.1,0-7.1h0c2-2,5.1-2,7.1,0l32.3,32.3c3.6,3.6,9.4,3.6,13,0h0c3.6-3.6,3.6-9.4,0-13l-35.9-35.9-4.8-4.8-16.2-16.2c-8.6-8.6-22.6-8.6-31.2,0Z"/>
    </g>
  </g>
</svg>