<?xml version="1.0" encoding="UTF-8"?>
<svg id="Layer_2" data-name="Layer 2" xmlns="http://www.w3.org/2000/svg" width="329" height="340" viewBox="0 0 329 340">
  <defs>
    <style>
      .cls-1 {
        fill: #bcbfd3;
        stroke: #bcbfd3;
      }

      .cls-1, .cls-2 {
        stroke-linecap: round;
        stroke-linejoin: round;
        stroke-width: 30px;
      }

      .cls-3 {
        fill: #fcb84b;
      }

      .cls-4 {
        fill: #f04b36;
      }

      .cls-2 {
        fill: #fff;
        stroke: #fff;
      }
    </style>
  </defs>
  <g id="Grouped">
    <g>
      <g>
        <g>
          <path class="cls-1" d="m293.7,155.9l-129.2,65-1.8-.9-127.4-64.1-19.8,122.9c-3.9,24.2,14.8,46.2,39.4,46.2h219.3c24.6,0,43.3-22,39.4-46.2l-19.8-122.9Z"/>
          <path class="cls-1" d="m251.6,103.3H77.4c-19.6,0-36.3,14.2-39.4,33.5l-1.4,8.8,127.9,64.3,127.9-64.3-1.4-8.8c-3.1-19.3-19.8-33.5-39.4-33.5Z"/>
        </g>
        <rect class="cls-1" x="137.5" y="182.9" width="54.1" height="54.1" rx="25.4" ry="25.4"/>
        <path class="cls-1" d="m93.1,93.6c15.6-31.7,41.8-52.6,71.4-52.6s55.8,20.9,71.4,52.6h12c1.8,0,2.9-2.1,2.1-3.9-17.8-38.8-49.5-64.6-85.6-64.6s-67.8,25.9-85.6,64.6c-.8,1.8.3,3.9,2.1,3.9h12Z"/>
      </g>
      <g>
        <g>
          <path class="cls-2" d="m293.7,145.9l-129.2,65-1.8-.9-127.4-64.1-19.8,122.9c-3.9,24.2,14.8,46.2,39.4,46.2h219.3c24.6,0,43.3-22,39.4-46.2l-19.8-122.9Z"/>
          <path class="cls-2" d="m251.6,93.3H77.4c-19.6,0-36.3,14.2-39.4,33.5l-1.4,8.8,127.9,64.3,127.9-64.3-1.4-8.8c-3.1-19.3-19.8-33.5-39.4-33.5Z"/>
        </g>
        <rect class="cls-2" x="137.5" y="172.9" width="54.1" height="54.1" rx="25.4" ry="25.4"/>
        <path class="cls-2" d="m93.1,83.6c15.6-31.7,41.8-52.6,71.4-52.6s55.8,20.9,71.4,52.6h12c1.8,0,2.9-2.1,2.1-3.9-17.8-38.8-49.5-64.6-85.6-64.6s-67.8,25.9-85.6,64.6c-.8,1.8.3,3.9,2.1,3.9h12Z"/>
      </g>
      <g>
        <g>
          <path class="cls-4" d="m293.7,145.9l-129.2,65-1.8-.9-127.4-64.1-19.8,122.9c-3.9,24.2,14.8,46.2,39.4,46.2h219.3c24.6,0,43.3-22,39.4-46.2l-19.8-122.9Z"/>
          <path class="cls-4" d="m251.6,93.3H77.4c-19.6,0-36.3,14.2-39.4,33.5l-1.4,8.8,127.9,64.3,127.9-64.3-1.4-8.8c-3.1-19.3-19.8-33.5-39.4-33.5Z"/>
        </g>
        <rect class="cls-3" x="137.5" y="172.9" width="54.1" height="54.1" rx="25.4" ry="25.4"/>
        <path class="cls-4" d="m93.1,83.6c15.6-31.7,41.8-52.6,71.4-52.6s55.8,20.9,71.4,52.6h12c1.8,0,2.9-2.1,2.1-3.9-17.8-38.8-49.5-64.6-85.6-64.6s-67.8,25.9-85.6,64.6c-.8,1.8.3,3.9,2.1,3.9h12Z"/>
      </g>
    </g>
  </g>
</svg>